B612-Regular.ufo
<glyph name="exclam" format="2">
  <advance width="700"/>
  <unicode hex="0021"/>
  <outline>
    <contour>
      <point x="405" y="1500" type="line" name="sh01"/>
      <point x="405" y="450" type="line"/>
      <point x="195" y="429" type="line" name="fh01"/>
      <point x="195" y="1500" type="line" name="sh02"/>
    </contour>
    <contour>
      <point x="169" y="120" type="qcurve" name="dh01"/>
      <point x="169" y="147"/>
      <point x="190" y="195"/>
      <point x="226" y="231"/>
      <point x="273" y="252"/>
      <point x="300" y="252" type="qcurve" name="mh01"/>
      <point x="327" y="252"/>
      <point x="375" y="231"/>
      <point x="411" y="195"/>
      <point x="432" y="147"/>
      <point x="432" y="120" type="qcurve" name="dh02"/>
      <point x="432" y="93"/>
      <point x="411" y="44"/>
      <point x="376" y="8"/>
      <point x="329" y="-14"/>
      <point x="302" y="-14" type="qcurve" name="ab01"/>
      <point x="274" y="-14"/>
      <point x="226" y="8"/>
      <point x="190" y="44"/>
      <point x="169" y="93"/>
    </contour>
  </outline>
</glyph>
<glyph name="quotedbl" format="2">
  <advance width="800"/>
  <unicode hex="0022"/>
  <outline>
    <contour>
      <point x="325" y="1500" type="line" name="at01"/>
      <point x="325" y="1400" type="line" name="sh02"/>
      <point x="325" y="1362"/>
      <point x="311" y="1250"/>
      <point x="303" y="1196" type="qcurve"/>
      <point x="293" y="1134"/>
      <point x="281" y="1067" type="qcurve" name="sv01"/>
      <point x="194" y="1067" type="line"/>
      <point x="182" y="1134"/>
      <point x="172" y="1196" type="qcurve"/>
      <point x="164" y="1250"/>
      <point x="150" y="1362"/>
      <point x="150" y="1400" type="qcurve" name="sh01"/>
      <point x="150" y="1500" type="line"/>
    </contour>
    <contour>
      <point x="626" y="1500" type="line" name="at02"/>
      <point x="626" y="1400" type="line" name="sh03"/>
      <point x="626" y="1362"/>
      <point x="612" y="1250"/>
      <point x="604" y="1196" type="qcurve"/>
      <point x="594" y="1134"/>
      <point x="582" y="1067" type="qcurve" name="sv02"/>
      <point x="495" y="1067" type="line" name="sv03"/>
      <point x="483" y="1134"/>
      <point x="473" y="1196" type="qcurve"/>
      <point x="465" y="1250"/>
      <point x="451" y="1362"/>
      <point x="451" y="1400" type="qcurve" name="ah01"/>
      <point x="451" y="1500" type="line"/>
    </contour>
  </outline>
</glyph>
<glyph name="quotesingle" format="2">
  <advance width="400"/>
  <unicode hex="0027"/>
  <outline>
    <contour>
      <point x="150" y="1500" type="line" name="dh01"/>
      <point x="325" y="1500" type="line" name="dh02"/>
      <point x="325" y="1400" type="line"/>
      <point x="325" y="1326"/>
      <point x="254" y="1155"/>
      <point x="184" y="1067" type="qcurve" name="av01"/>
      <point x="140" y="1067" type="line" name="sh01"/>
      <point x="142" y="1143"/>
      <point x="145" y="1209" type="qcurve" name="sh02"/>
      <point x="146" y="1237"/>
      <point x="147" y="1295"/>
      <point x="149" y="1346"/>
      <point x="150" y="1388"/>
      <point x="150" y="1400" type="qcurve"/>
    </contour>
  </outline>
</glyph>
<glyph name="plus" format="2">
  <advance width="1200"/>
  <unicode hex="002B"/>
  <outline>
    <contour>
      <point x="100" y="700" type="line" name="hr00"/>
      <point x="473" y="700" type="line"/>
      <point x="473" y="1121" type="line"/>
      <point x="628" y="1121" type="line"/>
      <point x="628" y="700" type="line"/>
      <point x="1000" y="700" type="line"/>
      <point x="1000" y="545" type="line"/>
      <point x="628" y="545" type="line"/>
      <point x="628" y="122" type="line"/>
      <point x="473" y="122" type="line"/>
      <point x="473" y="545" type="line"/>
      <point x="100" y="545" type="line"/>
    </contour>
  </outline>
</glyph>
<glyph name="period" format="2">
  <advance width="600"/>
  <unicode hex="002E"/>
  <outline>
    <contour>
      <point x="86" y="150" type="qcurve" name="hr00"/>
      <point x="86" y="184"/>
      <point x="112" y="244"/>
      <point x="157" y="289"/>
      <point x="216" y="315"/>
      <point x="250" y="315" type="qcurve"/>
      <point x="284" y="315"/>
      <point x="344" y="289"/>
      <point x="389" y="244"/>
      <point x="415" y="184"/>
      <point x="415" y="150" type="qcurve"/>
      <point x="415" y="116"/>
      <point x="389" y="55"/>
      <point x="345" y="10"/>
      <point x="286" y="-17"/>
      <point x="252" y="-17" type="qcurve"/>
      <point x="218" y="-17"/>
      <point x="157" y="10"/>
      <point x="112" y="55"/>
      <point x="86" y="116"/>
    </contour>
  </outline>
</glyph>
<glyph name="slash" format="2">
  <advance width="1100"/>
  <unicode hex="002F"/>
  <outline>
    <contour>
      <point x="285" y="-100" type="line" name="av02"/>
      <point x="75" y="-100" type="line"/>
      <point x="785" y="1600" type="line" name="av01"/>
      <point x="985" y="1600" type="line"/>
    </contour>
  </outline>
</glyph>
<glyph name="zero" format="2">
  <advance width="1300"/>
  <unicode hex="0030"/>
  <outline>
    <contour>
      <point x="600" y="-17" type="qcurve" name="ab01"/>
      <point x="515" y="-17"/>
      <point x="373" y="48"/>
      <point x="260" y="160"/>
      <point x="175" y="310"/>
      <point x="118" y="481"/>
      <point x="90" y="662"/>
      <point x="90" y="750" type="qcurve" name="sh01"/>
      <point x="90" y="840"/>
      <point x="114" y="1024"/>
      <point x="166" y="1194"/>
      <point x="247" y="1343"/>
      <point x="360" y="1453"/>
      <point x="507" y="1517"/>
      <point x="600" y="1517" type="qcurve" name="at01"/>
      <point x="685" y="1517"/>
      <point x="827" y="1452"/>
      <point x="940" y="1340"/>
      <point x="1025" y="1190"/>
      <point x="1082" y="1019"/>
      <point x="1110" y="837"/>
      <point x="1110" y="750" type="qcurve" name="sh02"/>
      <point x="1110" y="660"/>
      <point x="1086" y="476"/>
      <point x="1034" y="306"/>
      <point x="953" y="157"/>
      <point x="840" y="47"/>
      <point x="692" y="-17"/>
    </contour>
    <contour>
      <point x="297" y="793" type="qcurve" name="sh03"/>
      <point x="297" y="735"/>
      <point x="305" y="596"/>
      <point x="329" y="455"/>
      <point x="372" y="323"/>
      <point x="441" y="220"/>
      <point x="540" y="158"/>
      <point x="608" y="158" type="qcurve" name="sv01"/>
      <point x="669" y="158"/>
      <point x="760" y="205"/>
      <point x="826" y="286"/>
      <point x="868" y="393"/>
      <point x="893" y="515"/>
      <point x="903" y="645"/>
      <point x="903" y="707" type="qcurve" name="ah01"/>
      <point x="903" y="765"/>
      <point x="895" y="904"/>
      <point x="871" y="1044"/>
      <point x="828" y="1177"/>
      <point x="759" y="1279"/>
      <point x="660" y="1341"/>
      <point x="592" y="1341" type="qcurve" name="sv02"/>
      <point x="531" y="1341"/>
      <point x="440" y="1294"/>
      <point x="374" y="1214"/>
      <point x="332" y="1106"/>
      <point x="307" y="984"/>
      <point x="297" y="855"/>
    </contour>
  </outline>
</glyph>
<glyph name="two" format="2">
  <advance width="1300"/>
  <unicode hex="0032"/>
  <outline>
    <contour>
      <point x="152" y="0" type="line" name="sh01"/>
      <point x="152" y="168" type="line"/>
      <point x="200" y="244"/>
      <point x="311" y="391"/>
      <point x="424" y="528"/>
      <point x="534" y="651"/>
      <point x="580" y="702" type="qcurve" name="mh01"/>
      <point x="631" y="758"/>
      <point x="723" y="857"/>
      <point x="793" y="955"/>
      <point x="835" y="1056"/>
      <point x="835" y="1115" type="qcurve" name="dh01"/>
      <point x="835" y="1163"/>
      <point x="799" y="1248"/>
      <point x="734" y="1311"/>
      <point x="644" y="1348"/>
      <point x="590" y="1348" type="qcurve" name="sv01"/>
      <point x="529" y="1348"/>
      <point x="440" y="1315"/>
      <point x="373" y="1261"/>
      <point x="324" y="1194"/>
      <point x="303" y="1160" type="qcurve"/>
      <point x="162" y="1220" type="line"/>
      <point x="188" y="1285"/>
      <point x="269" y="1394"/>
      <point x="379" y="1473"/>
      <point x="519" y="1517"/>
      <point x="605" y="1517" type="qcurve" name="at01"/>
      <point x="706" y="1517"/>
      <point x="864" y="1445"/>
      <point x="973" y="1328"/>
      <point x="1030" y="1180"/>
      <point x="1030" y="1104" type="qcurve" name="dh02"/>
      <point x="1030" y="1027"/>
      <point x="973" y="888"/>
      <point x="888" y="763"/>
      <point x="790" y="653"/>
      <point x="749" y="605" type="qcurve"/>
      <point x="697" y="544"/>
      <point x="593" y="426"/>
      <point x="498" y="313"/>
      <point x="416" y="208"/>
      <point x="386" y="160" type="qcurve" name="mh02"/>
      <point x="1056" y="160" type="line"/>
      <point x="1056" y="0" type="line"/>
    </contour>
  </outline>
</glyph>
<glyph name="three" format="2">
  <advance width="1300"/>
  <unicode hex="0033"/>
  <outline>
    <contour>
      <point x="215" y="1340" type="line" name="sv01"/>
      <point x="230" y="1500" type="line" name="at01"/>
      <point x="960" y="1500" type="line"/>
      <point x="960" y="1360" type="line"/>
      <point x="948" y="1320"/>
      <point x="891" y="1233" name="fh01"/>
      <point x="814" y="1145" name="fh02"/>
      <point x="723" y="1058" name="fh03"/>
      <point x="677" y="1019" type="qcurve" name="fh04"/>
      <point x="545" y="945" type="line"/>
      <point x="555" y="947"/>
      <point x="586" y="948"/>
      <point x="600" y="948" type="qcurve" name="dv01"/>
      <point x="697" y="948"/>
      <point x="864" y="900"/>
      <point x="987" y="803"/>
      <point x="1058" y="654"/>
      <point x="1058" y="553" type="qcurve" name="dh02"/>
      <point x="1058" y="456"/>
      <point x="986" y="298"/>
      <point x="861" y="175"/>
      <point x="693" y="86"/>
      <point x="502" y="28"/>
      <point x="298" y="0"/>
      <point x="200" y="0" type="qcurve" name="ab01"/>
      <point x="200" y="160" type="line" name="dh04"/>
      <point x="283" y="163"/>
      <point x="443" y="187"/>
      <point x="587" y="230"/>
      <point x="709" y="292"/>
      <point x="798" y="375"/>
      <point x="848" y="479"/>
      <point x="848" y="543" type="qcurve" name="dh01"/>
      <point x="848" y="615"/>
      <point x="787" y="711"/>
      <point x="681" y="767"/>
      <point x="538" y="790"/>
      <point x="456" y="790" type="qcurve" name="dv02"/>
      <point x="424" y="790"/>
      <point x="349" y="787"/>
      <point x="319" y="785" type="qcurve" name="dh03"/>
      <point x="319" y="940" type="line"/>
      <point x="360" y="970" name="fh05"/>
      <point x="456" y="1046" name="fh06"/>
      <point x="554" y="1129" name="fh07"/>
      <point x="647" y="1214" name="fh08"/>
      <point x="723" y="1291" name="fh09"/>
      <point x="775" y="1357" name="fh10"/>
      <point x="783" y="1380" type="qcurve" name="iv01"/>
      <point x="631" y="1340" type="line"/>
    </contour>
  </outline>
</glyph>
<glyph name="six" format="2">
  <advance width="1300"/>
  <unicode hex="0036"/>
  <outline>
    <contour>
      <point x="929" y="1344" type="line" name="sh01"/>
      <point x="922" y="1346"/>
      <point x="895" y="1347"/>
      <point x="884" y="1347" type="qcurve" name="sv01"/>
      <point x="812" y="1347"/>
      <point x="676" y="1302"/>
      <point x="556" y="1220"/>
      <point x="455" y="1106"/>
      <point x="378" y="969"/>
      <point x="328" y="813"/>
      <point x="320" y="730" type="qcurve" name="sh04"/>
      <point x="403" y="847" type="line"/>
      <point x="428" y="863"/>
      <point x="495" y="892"/>
      <point x="569" y="914"/>
      <point x="645" y="927"/>
      <point x="679" y="927" type="qcurve" name="dv02"/>
      <point x="766" y="927"/>
      <point x="927" y="879"/>
      <point x="1052" y="779"/>
      <point x="1127" y="622"/>
      <point x="1127" y="513" type="qcurve" name="sh05"/>
      <point x="1127" y="405"/>
      <point x="1054" y="212"/>
      <point x="922" y="67"/>
      <point x="738" y="-17"/>
      <point x="626" y="-17" type="qcurve" name="ab01"/>
      <point x="528" y="-17"/>
      <point x="377" y="46"/>
      <point x="265" y="150"/>
      <point x="190" y="284"/>
      <point x="143" y="425"/>
      <point x="123" y="563"/>
      <point x="123" y="620" type="qcurve" name="sh02"/>
      <point x="123" y="739"/>
      <point x="172" y="965"/>
      <point x="265" y="1164"/>
      <point x="399" y="1331"/>
      <point x="570" y="1450"/>
      <point x="775" y="1517"/>
      <point x="893" y="1517" type="qcurve" name="at01"/>
      <point x="908" y="1517"/>
      <point x="944" y="1516"/>
      <point x="954" y="1514" type="qcurve" name="at02"/>
    </contour>
    <contour>
      <point x="329" y="597" type="qcurve" name="sh03"/>
      <point x="329" y="569"/>
      <point x="330" y="523"/>
      <point x="335" y="479"/>
      <point x="343" y="434"/>
      <point x="350" y="407" type="qcurve"/>
      <point x="364" y="350"/>
      <point x="412" y="257"/>
      <point x="481" y="190"/>
      <point x="572" y="153"/>
      <point x="629" y="153" type="qcurve" name="sv02"/>
      <point x="708" y="153"/>
      <point x="819" y="213"/>
      <point x="889" y="312"/>
      <point x="922" y="438"/>
      <point x="922" y="503" type="qcurve" name="ah01"/>
      <point x="922" y="566"/>
      <point x="885" y="662"/>
      <point x="817" y="725"/>
      <point x="722" y="757"/>
      <point x="664" y="757" type="qcurve" name="dv01"/>
      <point x="610" y="757"/>
      <point x="508" y="731"/>
      <point x="419" y="687"/>
      <point x="350" y="629"/>
    </contour>
  </outline>
</glyph>
<glyph name="seven" format="2">
  <advance width="1300"/>
  <unicode hex="0037"/>
  <outline>
    <contour>
      <point x="200" y="1500" type="line" name="at01"/>
      <point x="1100" y="1500" type="line" name="at02"/>
      <point x="1100" y="1370" type="line" name="sh01"/>
      <point x="1100" y="1327"/>
      <point x="1035" y="1192"/>
      <point x="935" y="1024"/>
      <point x="817" y="831"/>
      <point x="709" y="628"/>
      <point x="629" y="424"/>
      <point x="618" y="329" type="qcurve" name="sh04"/>
      <point x="613" y="288"/>
      <point x="608" y="201"/>
      <point x="605" y="115"/>
      <point x="605" y="34"/>
      <point x="605" y="0" type="qcurve" name="sh03"/>
      <point x="400" y="0" type="line" name="sh02"/>
      <point x="400" y="30"/>
      <point x="401" y="131"/>
      <point x="405" y="243"/>
      <point x="414" y="353"/>
      <point x="422" y="392" type="qcurve"/>
      <point x="445" y="499"/>
      <point x="531" y="706"/>
      <point x="632" y="897"/>
      <point x="738" y="1067"/>
      <point x="824" y="1206"/>
      <point x="879" y="1310"/>
      <point x="879" y="1340" type="qcurve" name="sv01"/>
      <point x="200" y="1340" type="line"/>
    </contour>
  </outline>
</glyph>
<glyph name="nine" format="2">
  <advance width="1300"/>
  <unicode hex="0039"/>
  <outline>
    <contour>
      <point x="848" y="663" type="line" name="hr00"/>
      <point x="789" y="617"/>
      <point x="670" y="573"/>
      <point x="595" y="573" type="qcurve" name="dv01"/>
      <point x="497" y="573"/>
      <point x="327" y="638"/>
      <point x="201" y="758"/>
      <point x="129" y="927"/>
      <point x="129" y="1031" type="qcurve" name="dh02"/>
      <point x="129" y="1139"/>
      <point x="198" y="1317"/>
      <point x="325" y="1446"/>
      <point x="506" y="1517"/>
      <point x="618" y="1517" type="qcurve" name="at01"/>
      <point x="718" y="1517"/>
      <point x="871" y="1455"/>
      <point x="983" y="1353"/>
      <point x="1058" y="1221"/>
      <point x="1103" y="1079"/>
      <point x="1122" y="939"/>
      <point x="1122" y="880" type="qcurve" name="sh01"/>
      <point x="1122" y="763"/>
      <point x="1075" y="543"/>
      <point x="984" y="347"/>
      <point x="852" y="182"/>
      <point x="683" y="61"/>
      <point x="478" y="-12"/>
      <point x="361" y="-17" type="qcurve" name="ab01"/>
      <point x="330" y="150" type="line" name="sh02"/>
      <point x="450" y="156"/>
      <point x="661" y="258"/>
      <point x="822" y="427"/>
      <point x="921" y="652"/>
      <point x="928" y="780" type="qcurve" name="sh03"/>
    </contour>
    <contour>
      <point x="916" y="953" type="qcurve" name="ah01"/>
      <point x="913" y="1028"/>
      <point x="875" y="1169"/>
      <point x="805" y="1280"/>
      <point x="698" y="1347"/>
      <point x="626" y="1347" type="qcurve" name="sv01"/>
      <point x="558" y="1347"/>
      <point x="450" y="1303"/>
      <point x="374" y="1225"/>
      <point x="333" y="1115"/>
      <point x="333" y="1049" type="qcurve" name="dh01"/>
      <point x="333" y="984"/>
      <point x="366" y="872"/>
      <point x="433" y="790"/>
      <point x="536" y="743"/>
      <point x="605" y="743" type="qcurve" name="dv02"/>
      <point x="658" y="743"/>
      <point x="755" y="777"/>
      <point x="836" y="834"/>
      <point x="898" y="910"/>
    </contour>
  </outline>
</glyph>
<glyph name="equal" format="2">
  <advance width="1000"/>
  <unicode hex="003D"/>
  <outline>
    <contour>
      <point x="100" y="700" type="line" name="hr00"/>
      <point x="900" y="700" type="line"/>
      <point x="900" y="560" type="line"/>
      <point x="100" y="560" type="line"/>
    </contour>
    <contour>
      <point x="100" y="400" type="line"/>
      <point x="900" y="400" type="line"/>
      <point x="900" y="260" type="line"/>
      <point x="100" y="260" type="line"/>
    </contour>
  </outline>
</glyph>
<glyph name="A" format="2">
  <advance width="1300"/>
  <unicode hex="0041"/>
  <outline>
    <contour>
      <point x="62" y="0" type="line" name="sh02"/>
      <point x="485" y="1300" type="line"/>
      <point x="520" y="1500" type="line"/>
      <point x="737" y="1520" type="line" name="at01"/>
      <point x="1235" y="0" type="line" name="sh04"/>
      <point x="1035" y="0" type="line" name="sh03"/>
      <point x="887" y="450" type="line" name="dv01"/>
      <point x="392" y="450" type="line"/>
      <point x="246" y="0" type="line" name="sh01"/>
    </contour>
    <contour>
      <point x="639" y="1360" type="line" name="ah01"/>
      <point x="603" y="1100" type="line"/>
      <point x="441" y="600" type="line"/>
      <point x="838" y="600" type="line" name="ih01"/>
      <point x="675" y="1100" type="line"/>
    </contour>
  </outline>
</glyph>
<glyph name="B" format="2">
  <advance width="1300"/>
  <unicode hex="0042"/>
  <outline>
    <contour>
      <point x="400" y="1147" type="line" name="sh01"/>
      <point x="400" y="885" type="line"/>
      <point x="510" y="885" type="line" name="ih02"/>
      <point x="575" y="885"/>
      <point x="697" y="914"/>
      <point x="792" y="977"/>
      <point x="850" y="1077"/>
      <point x="850" y="1148" type="qcurve" name="dh03"/>
      <point x="850" y="1214"/>
      <point x="794" y="1302"/>
      <point x="703" y="1354"/>
      <point x="589" y="1375"/>
      <point x="532" y="1375" type="qcurve" name="sv01"/>
      <point x="515" y="1375"/>
      <point x="475" y="1373"/>
      <point x="434" y="1368"/>
      <point x="395" y="1362"/>
      <point x="380" y="1359" type="qcurve"/>
    </contour>
    <contour>
      <point x="190" y="0" type="line" name="dh01"/>
      <point x="190" y="1290" type="line"/>
      <point x="160" y="1490" type="line"/>
      <point x="190" y="1494"/>
      <point x="269" y="1502"/>
      <point x="353" y="1507"/>
      <point x="435" y="1510"/>
      <point x="467" y="1510" type="qcurve" name="at01"/>
      <point x="578" y="1510"/>
      <point x="785" y="1481"/>
      <point x="945" y="1405"/>
      <point x="1041" y="1272"/>
      <point x="1041" y="1169" type="qcurve" name="dh04"/>
      <point x="1041" y="1060"/>
      <point x="936" y="902" name="hr01"/>
      <point x="850" y="860" type="qcurve"/>
      <point x="696" y="816" type="line" name="ih01"/>
      <point x="843" y="802" type="line"/>
      <point x="904" y="784"/>
      <point x="1013" y="727"/>
      <point x="1095" y="645"/>
      <point x="1142" y="533" name="hr00"/>
      <point x="1142" y="460" type="qcurve" name="sh03"/>
      <point x="1142" y="375"/>
      <point x="1096" y="241"/>
      <point x="1018" y="139"/>
      <point x="912" y="66"/>
      <point x="791" y="21"/>
      <point x="662" y="0"/>
      <point x="600" y="0" type="qcurve"/>
    </contour>
    <contour>
      <point x="400" y="160" type="line" name="dh02"/>
      <point x="540" y="160" type="line"/>
      <point x="639" y="160"/>
      <point x="789" y="189"/>
      <point x="891" y="256"/>
      <point x="942" y="367" name="hr02"/>
      <point x="942" y="450" type="qcurve" name="sh02"/>
      <point x="942" y="525"/>
      <point x="890" y="631"/>
      <point x="795" y="699"/>
      <point x="661" y="730"/>
      <point x="580" y="730" type="qcurve" name="ih03"/>
      <point x="400" y="730" type="line"/>
    </contour>
  </outline>
</glyph>
<glyph name="C" format="2">
  <advance width="1200"/>
  <unicode hex="0043"/>
  <guideline x="0" y="153" angle="0"/>
  <outline>
    <contour>
      <point x="1106" y="104" type="line" name="fh01"/>
      <point x="1024" y="38"/>
      <point x="826" y="-17"/>
      <point x="708" y="-17" type="qcurve" name="ab01"/>
      <point x="564" y="-17"/>
      <point x="334" y="108"/>
      <point x="174" y="322"/>
      <point x="89" y="608"/>
      <point x="89" y="770" type="qcurve" name="dh01"/>
      <point x="89" y="921"/>
      <point x="166" y="1192"/>
      <point x="324" y="1397"/>
      <point x="566" y="1517"/>
      <point x="731" y="1517" type="qcurve" name="at01"/>
      <point x="846" y="1517"/>
      <point x="1051" y="1444"/>
      <point x="1123" y="1375" type="qcurve" name="fh02"/>
      <point x="1033" y="1268" type="line" name="fh03"/>
      <point x="985" y="1300"/>
      <point x="840" y="1348"/>
      <point x="747" y="1348" type="qcurve" name="sv01"/>
      <point x="625" y="1348"/>
      <point x="455" y="1256"/>
      <point x="347" y="1099"/>
      <point x="298" y="890"/>
      <point x="298" y="773" type="qcurve" name="dh02"/>
      <point x="298" y="704"/>
      <point x="320" y="559"/>
      <point x="365" y="421"/>
      <point x="436" y="299"/>
      <point x="533" y="207"/>
      <point x="657" y="153"/>
      <point x="734" y="153" type="qcurve" name="sv02"/>
      <point x="779" y="153"/>
      <point x="853" y="161"/>
      <point x="922" y="179"/>
      <point x="990" y="208"/>
      <point x="1029" y="230" type="qcurve" name="fh04"/>
    </contour>
  </outline>
</glyph>
<glyph name="F" format="2">
  <advance width="1100"/>
  <unicode hex="0046"/>
  <outline>
    <contour>
      <point x="400" y="0" type="line" name="dh02"/>
      <point x="190" y="0" type="line" name="dh01"/>
      <point x="190" y="1290" type="line"/>
      <point x="160" y="1500" type="line" name="at01"/>
      <point x="1045" y="1500" type="line" name="dh04"/>
      <point x="1025" y="1340" type="line" name="sv01"/>
      <point x="380" y="1340" type="line"/>
      <point x="400" y="1150" type="line" name="sh01"/>
      <point x="400" y="885" type="line"/>
      <point x="940" y="885" type="line" name="dh03"/>
      <point x="940" y="740" type="line" name="dv01"/>
      <point x="400" y="740" type="line"/>
    </contour>
  </outline>
</glyph>
<glyph name="G" format="2">
  <advance width="1300"/>
  <unicode hex="0047"/>
  <outline>
    <contour>
      <point x="1200" y="197" type="line" name="sh01"/>
      <point x="1159" y="152"/>
      <point x="1057" y="73"/>
      <point x="935" y="16"/>
      <point x="791" y="-17"/>
      <point x="708" y="-17" type="qcurve" name="ab01"/>
      <point x="564" y="-17"/>
      <point x="334" y="108"/>
      <point x="173" y="322"/>
      <point x="88" y="608"/>
      <point x="88" y="770" type="qcurve" name="sh02"/>
      <point x="88" y="921"/>
      <point x="165" y="1192"/>
      <point x="324" y="1397"/>
      <point x="566" y="1517"/>
      <point x="731" y="1517" type="qcurve" name="at01"/>
      <point x="846" y="1517"/>
      <point x="1051" y="1444"/>
      <point x="1123" y="1375" type="qcurve" name="fh01"/>
      <point x="1033" y="1268" type="line"/>
      <point x="985" y="1300"/>
      <point x="840" y="1348"/>
      <point x="747" y="1348" type="qcurve" name="sv01"/>
      <point x="625" y="1348"/>
      <point x="455" y="1256"/>
      <point x="347" y="1099"/>
      <point x="298" y="890"/>
      <point x="298" y="773" type="qcurve" name="sh03"/>
      <point x="298" y="704"/>
      <point x="320" y="559"/>
      <point x="365" y="421"/>
      <point x="436" y="299"/>
      <point x="533" y="207"/>
      <point x="657" y="153"/>
      <point x="734" y="153" type="qcurve" name="sv02"/>
      <point x="779" y="153"/>
      <point x="863" y="172"/>
      <point x="935" y="202"/>
      <point x="992" y="239"/>
      <point x="1010" y="258" type="qcurve" name="ah01"/>
      <point x="1010" y="645" type="line" name="sv03"/>
      <point x="700" y="665" type="line"/>
      <point x="700" y="805" type="line"/>
      <point x="1200" y="805" type="line" name="av01"/>
    </contour>
  </outline>
</glyph>
<glyph name="I" format="2">
  <advance width="600"/>
  <unicode hex="0049"/>
  <outline>
    <contour>
      <point x="190" y="0" type="line" name="dh01"/>
      <point x="190" y="1290" type="line"/>
      <point x="160" y="1500" type="line"/>
      <point x="400" y="1520" type="line" name="at01"/>
      <point x="400" y="0" type="line" name="dh02"/>
    </contour>
  </outline>
</glyph>
<glyph name="J" format="2">
  <advance width="900"/>
  <unicode hex="004A"/>
  <outline>
    <contour>
      <point x="270" y="1497" type="line" name="hr00"/>
      <point x="700" y="1520" type="line" name="at01"/>
      <point x="700" y="430" type="line" name="dh02"/>
      <point x="700" y="238"/>
      <point x="493" y="-12"/>
      <point x="297" y="-17" type="qcurve" name="ab01"/>
      <point x="129" y="-17"/>
      <point x="0" y="115" type="qcurve" name="fh01"/>
      <point x="92" y="233" type="line"/>
      <point x="102" y="223"/>
      <point x="141" y="196"/>
      <point x="193" y="172"/>
      <point x="254" y="156"/>
      <point x="287" y="156" type="qcurve" name="sv01"/>
      <point x="391" y="156"/>
      <point x="490" y="312"/>
      <point x="490" y="470" type="qcurve" name="dh01"/>
      <point x="490" y="1148" type="line"/>
      <point x="510" y="1338" type="line"/>
      <point x="290" y="1325" type="line" name="sv02"/>
    </contour>
  </outline>
</glyph>
<glyph name="K" format="2">
  <advance width="1200"/>
  <unicode hex="004B"/>
  <outline>
    <contour>
      <point x="190" y="0" type="line" name="sh01"/>
      <point x="190" y="1290" type="line"/>
      <point x="160" y="1500" type="line" name="at01"/>
      <point x="400" y="1520" type="line" name="ah03"/>
      <point x="400" y="856" type="line" name="ah01"/>
      <point x="941" y="1500" type="line" name="sh02"/>
      <point x="1163" y="1500" type="line" name="sh03"/>
      <point x="632" y="865" type="line" name="fh01"/>
      <point x="463" y="802" type="line" name="av01"/>
      <point x="637" y="744" type="line" name="fh02"/>
      <point x="1190" y="0" type="line" name="sh05"/>
      <point x="953" y="0" type="line" name="sh04"/>
      <point x="400" y="746" type="line" name="ah02"/>
      <point x="400" y="0" type="line" name="ah04"/>
    </contour>
  </outline>
</glyph>
<glyph name="M" format="2">
  <advance width="1800"/>
  <unicode hex="004D"/>
  <guideline x="0" y="1287" angle="0"/>
  <outline>
    <contour>
      <point x="1400" y="0" type="line" name="sh01"/>
      <point x="1400" y="1000" type="line" name="fh01"/>
      <point x="1444" y="1320" type="line" name="fh02"/>
      <point x="1439" y="1321" type="line" name="ih01"/>
      <point x="1338" y="1020" type="line" name="ih03"/>
      <point x="923" y="130" type="line" name="fh03"/>
      <point x="854" y="130" type="line" name="fh04"/>
      <point x="485" y="920" type="line" name="ih06"/>
      <point x="353" y="1321" type="line" name="ih04"/>
      <point x="347" y="1320" type="line" name="fh05"/>
      <point x="400" y="901" type="line" name="fv01"/>
      <point x="400" y="0" type="line" name="dh01"/>
      <point x="200" y="0" type="line" name="dh02"/>
      <point x="200" y="1290" type="line"/>
      <point x="172" y="1500" type="line" name="ih05"/>
      <point x="406" y="1520" type="line" name="sh02"/>
      <point x="845" y="580" type="line" name="fh06"/>
      <point x="900" y="320" type="line" name="ah01"/>
      <point x="955" y="580" type="line" name="fh07"/>
      <point x="1384" y="1500" type="line" name="sh03"/>
      <point x="1610" y="1520" type="line" name="ih02"/>
      <point x="1610" y="0" type="line" name="ah02"/>
    </contour>
  </outline>
</glyph>
<glyph name="N" format="2">
  <advance width="1500"/>
  <unicode hex="004E"/>
  <outline>
    <contour>
      <point x="1100" y="0" type="line" name="ah01"/>
      <point x="485" y="1028" type="line" name="ih03"/>
      <point x="368" y="1317" type="line" name="ih01"/>
      <point x="362" y="1316" type="line" name="fv01"/>
      <point x="400" y="1000" type="line" name="fv02"/>
      <point x="400" y="0" type="line" name="sh02"/>
      <point x="200" y="0" type="line" name="sh01"/>
      <point x="200" y="1290" type="line"/>
      <point x="170" y="1500" type="line" name="ih02"/>
      <point x="406" y="1520" type="line" name="at01"/>
      <point x="1022" y="487" type="line" name="ih05"/>
      <point x="1142" y="173" type="line" name="ih04"/>
      <point x="1148" y="174" type="line"/>
      <point x="1100" y="510" type="line" name="sh04"/>
      <point x="1100" y="1500" type="line"/>
      <point x="1295" y="1520" type="line" name="at02"/>
      <point x="1295" y="0" type="line" name="sh03"/>
    </contour>
  </outline>
</glyph>
<glyph name="O" format="2">
  <advance width="1600"/>
  <unicode hex="004F"/>
  <outline>
    <contour>
      <point x="800" y="-17" type="qcurve" name="ab01"/>
      <point x="642" y="-17"/>
      <point x="392" y="99"/>
      <point x="217" y="304"/>
      <point x="124" y="585"/>
      <point x="124" y="750" type="qcurve" name="sh01"/>
      <point x="124" y="915"/>
      <point x="214" y="1196"/>
      <point x="387" y="1401"/>
      <point x="639" y="1517"/>
      <point x="800" y="1517" type="qcurve" name="at01"/>
      <point x="957" y="1517"/>
      <point x="1208" y="1401"/>
      <point x="1383" y="1196"/>
      <point x="1476" y="915"/>
      <point x="1476" y="750" type="qcurve" name="sh02"/>
      <point x="1476" y="585"/>
      <point x="1386" y="304"/>
      <point x="1213" y="99"/>
      <point x="961" y="-17"/>
    </contour>
    <contour>
      <point x="1268" y="719" type="qcurve" name="ah01"/>
      <point x="1268" y="799"/>
      <point x="1246" y="954"/>
      <point x="1198" y="1093"/>
      <point x="1122" y="1212"/>
      <point x="1017" y="1298"/>
      <point x="880" y="1347"/>
      <point x="794" y="1347" type="qcurve" name="sv01"/>
      <point x="671" y="1347"/>
      <point x="496" y="1252"/>
      <point x="384" y="1094"/>
      <point x="332" y="892"/>
      <point x="332" y="785" type="qcurve" name="sh03"/>
      <point x="332" y="704"/>
      <point x="355" y="548"/>
      <point x="403" y="407"/>
      <point x="478" y="288"/>
      <point x="583" y="202"/>
      <point x="720" y="153"/>
      <point x="806" y="153" type="qcurve" name="sv02"/>
      <point x="887" y="153"/>
      <point x="1019" y="198"/>
      <point x="1122" y="276"/>
      <point x="1196" y="384"/>
      <point x="1245" y="509"/>
      <point x="1268" y="648"/>
    </contour>
  </outline>
</glyph>
<glyph name="P" format="2">
  <advance width="1200"/>
  <unicode hex="0050"/>
  <guideline x="0" y="810" angle="0"/>
  <outline>
    <contour>
      <point x="400" y="0" type="line" name="sh02"/>
      <point x="190" y="0" type="line" name="sh01"/>
      <point x="190" y="1290" type="line"/>
      <point x="155" y="1490" type="line"/>
      <point x="185" y="1495"/>
      <point x="272" y="1503"/>
      <point x="370" y="1509"/>
      <point x="468" y="1512"/>
      <point x="507" y="1512" type="qcurve" name="at01"/>
      <point x="622" y="1512"/>
      <point x="833" y="1471"/>
      <point x="995" y="1375"/>
      <point x="1091" y="1219"/>
      <point x="1091" y="1104" type="qcurve" name="sh03"/>
      <point x="1091" y="964"/>
      <point x="991" y="779"/>
      <point x="809" y="669"/>
      <point x="554" y="624"/>
      <point x="400" y="624" type="qcurve" name="dv01"/>
    </contour>
    <contour>
      <point x="400" y="1147" type="line" name="sh04"/>
      <point x="400" y="765" type="line" name="dv02"/>
      <point x="520" y="765"/>
      <point x="706" y="793"/>
      <point x="834" y="866"/>
      <point x="900" y="994"/>
      <point x="900" y="1095" type="qcurve" name="ah01"/>
      <point x="900" y="1170"/>
      <point x="837" y="1276"/>
      <point x="737" y="1344"/>
      <point x="613" y="1375"/>
      <point x="552" y="1375" type="qcurve" name="sv01"/>
      <point x="535" y="1375"/>
      <point x="488" y="1372"/>
      <point x="440" y="1368"/>
      <point x="395" y="1362"/>
      <point x="380" y="1359" type="qcurve"/>
    </contour>
  </outline>
</glyph>
<glyph name="Q" format="2">
  <advance width="1600"/>
  <unicode hex="0051"/>
  <outline>
    <contour>
      <point x="1404" y="-145" type="line" name="dv01"/>
      <point x="1348" y="-145"/>
      <point x="1237" y="-130"/>
      <point x="1131" y="-78"/>
      <point x="1031" y="19"/>
      <point x="987" y="102" type="qcurve"/>
      <point x="982" y="111"/>
      <point x="972" y="129"/>
      <point x="967" y="137" type="qcurve"/>
      <point x="957" y="-1" type="line" name="fh01"/>
      <point x="920" y="-9"/>
      <point x="842" y="-17"/>
      <point x="800" y="-17" type="qcurve" name="ab01"/>
      <point x="642" y="-17"/>
      <point x="392" y="99"/>
      <point x="217" y="304"/>
      <point x="124" y="585"/>
      <point x="124" y="750" type="qcurve" name="dh01"/>
      <point x="124" y="915"/>
      <point x="214" y="1196"/>
      <point x="387" y="1401"/>
      <point x="639" y="1517"/>
      <point x="800" y="1517" type="qcurve" name="at01"/>
      <point x="957" y="1517"/>
      <point x="1208" y="1401"/>
      <point x="1383" y="1196"/>
      <point x="1476" y="915"/>
      <point x="1476" y="750" type="qcurve" name="dh04"/>
      <point x="1476" y="645"/>
      <point x="1439" y="454"/>
      <point x="1367" y="289"/>
      <point x="1262" y="153"/>
      <point x="1194" y="103" type="qcurve"/>
      <point x="1223" y="66"/>
      <point x="1278" y="25"/>
      <point x="1341" y="4"/>
      <point x="1414" y="-1"/>
      <point x="1461" y="-1" type="qcurve" name="dv02"/>
    </contour>
    <contour>
      <point x="1268" y="719" type="qcurve" name="dh03"/>
      <point x="1268" y="799"/>
      <point x="1246" y="954"/>
      <point x="1198" y="1093"/>
      <point x="1122" y="1212"/>
      <point x="1017" y="1298"/>
      <point x="880" y="1347"/>
      <point x="794" y="1347" type="qcurve" name="sv01"/>
      <point x="671" y="1347"/>
      <point x="496" y="1252"/>
      <point x="384" y="1094"/>
      <point x="332" y="892"/>
      <point x="332" y="785" type="qcurve" name="dh02"/>
      <point x="332" y="704"/>
      <point x="355" y="548"/>
      <point x="403" y="407"/>
      <point x="478" y="288"/>
      <point x="583" y="202"/>
      <point x="720" y="153"/>
      <point x="806" y="153" type="qcurve" name="sv02"/>
      <point x="844" y="153"/>
      <point x="914" y="163"/>
      <point x="945" y="172" type="qcurve" name="iv01"/>
      <point x="916" y="217" name="fh02"/>
      <point x="861" y="269" name="fh03"/>
      <point x="801" y="295"/>
      <point x="729" y="301"/>
      <point x="682" y="301" type="qcurve" name="dv03"/>
      <point x="739" y="445" type="line" name="dv04"/>
      <point x="794" y="445"/>
      <point x="898" y="421"/>
      <point x="999" y="361"/>
      <point x="1097" y="257"/>
      <point x="1145" y="177" type="qcurve" name="iv02"/>
      <point x="1145" y="314" type="line" name="fh04"/>
      <point x="1209" y="395"/>
      <point x="1268" y="607"/>
    </contour>
  </outline>
</glyph>
<glyph name="R" format="2">
  <advance width="1300"/>
  <unicode hex="0052"/>
  <outline>
    <contour>
      <point x="400" y="614" type="line" name="dv01"/>
      <point x="400" y="0" type="line" name="sh02"/>
      <point x="190" y="0" type="line" name="sh01"/>
      <point x="190" y="1290" type="line"/>
      <point x="155" y="1490" type="line"/>
      <point x="188" y="1494"/>
      <point x="281" y="1502"/>
      <point x="382" y="1508"/>
      <point x="484" y="1512"/>
      <point x="527" y="1512" type="qcurve" name="at01"/>
      <point x="653" y="1512"/>
      <point x="861" y="1459" name="fh01"/>
      <point x="1009" y="1355"/>
      <point x="1091" y="1200"/>
      <point x="1091" y="1099" type="qcurve" name="sh03"/>
      <point x="1091" y="994"/>
      <point x="1026" y="834"/>
      <point x="908" y="721"/>
      <point x="745" y="650"/>
      <point x="648" y="633" type="qcurve" name="ih01"/>
      <point x="790" y="593" type="line" name="fh02"/>
      <point x="1233" y="0" type="line" name="ab01"/>
      <point x="1010" y="0" type="line" name="fh03"/>
      <point x="567" y="595" type="line" name="fh04"/>
      <point x="556" y="609"/>
      <point x="528" y="614"/>
      <point x="520" y="614" type="qcurve"/>
    </contour>
    <contour>
      <point x="400" y="1147" type="line" name="sh04"/>
      <point x="400" y="765" type="line" name="dv02"/>
      <point x="548" y="765" type="line"/>
      <point x="639" y="765"/>
      <point x="773" y="816"/>
      <point x="861" y="903"/>
      <point x="905" y="1018"/>
      <point x="905" y="1083" type="qcurve" name="ah01"/>
      <point x="905" y="1168"/>
      <point x="841" y="1281"/>
      <point x="739" y="1348"/>
      <point x="613" y="1375"/>
      <point x="552" y="1375" type="qcurve" name="sv01"/>
      <point x="531" y="1375"/>
      <point x="485" y="1374"/>
      <point x="439" y="1372"/>
      <point x="396" y="1367"/>
      <point x="380" y="1364" type="qcurve" name="sv02"/>
    </contour>
  </outline>
</glyph>
<glyph name="S" format="2">
  <advance width="1100"/>
  <unicode hex="0053"/>
  <outline>
    <contour>
      <point x="870" y="1274" type="line" name="fh01"/>
      <point x="802" y="1314"/>
      <point x="677" y="1352"/>
      <point x="600" y="1352" type="qcurve" name="sv01"/>
      <point x="546" y="1352"/>
      <point x="443" y="1330"/>
      <point x="364" y="1281"/>
      <point x="315" y="1202"/>
      <point x="315" y="1145" type="qcurve" name="sh02"/>
      <point x="315" y="1089"/>
      <point x="375" y="1007"/>
      <point x="472" y="942"/>
      <point x="597" y="887" name="iv01"/>
      <point x="727" y="826"/>
      <point x="852" y="753"/>
      <point x="949" y="654"/>
      <point x="1009" y="522"/>
      <point x="1009" y="432" type="qcurve" name="sh03"/>
      <point x="1009" y="358"/>
      <point x="969" y="233"/>
      <point x="898" y="133"/>
      <point x="800" y="58"/>
      <point x="684" y="8"/>
      <point x="555" y="-17"/>
      <point x="488" y="-17" type="qcurve" name="ab01"/>
      <point x="255" y="-13"/>
      <point x="82" y="94" type="qcurve" name="fh02"/>
      <point x="173" y="244" type="line" name="fh03"/>
      <point x="193" y="231"/>
      <point x="258" y="198" name="fh04"/>
      <point x="338" y="168"/>
      <point x="428" y="148"/>
      <point x="474" y="148" type="qcurve" name="sv02"/>
      <point x="536" y="148"/>
      <point x="655" y="179"/>
      <point x="748" y="244"/>
      <point x="805" y="344"/>
      <point x="805" y="413" type="qcurve" name="ah01"/>
      <point x="805" y="478"/>
      <point x="745" y="575"/>
      <point x="648" y="652"/>
      <point x="523" y="714" name="iv02"/>
      <point x="393" y="776"/>
      <point x="268" y="844"/>
      <point x="171" y="930"/>
      <point x="111" y="1041"/>
      <point x="111" y="1116" type="qcurve" name="sh01"/>
      <point x="111" y="1213"/>
      <point x="191" y="1362"/>
      <point x="322" y="1464"/>
      <point x="488" y="1517"/>
      <point x="574" y="1517" type="qcurve" name="at01"/>
      <point x="787" y="1517"/>
      <point x="967" y="1397" type="qcurve" name="fh05"/>
    </contour>
  </outline>
</glyph>
<glyph name="T" format="2">
  <advance width="1200"/>
  <unicode hex="0054"/>
  <outline>
    <contour>
      <point x="495" y="0" type="line" name="dh01"/>
      <point x="495" y="1340" type="line" name="sv01"/>
      <point x="80" y="1340" type="line"/>
      <point x="80" y="1500" type="line" name="at01"/>
      <point x="1115" y="1500" type="line"/>
      <point x="1115" y="1340" type="line" name="sv02"/>
      <point x="705" y="1340" type="line" name="sv03"/>
      <point x="705" y="0" type="line" name="dh02"/>
    </contour>
  </outline>
</glyph>
<glyph name="W" format="2">
  <advance width="1900"/>
  <unicode hex="0057"/>
  <outline>
    <contour>
      <point x="872" y="1500" type="line" name="sh01"/>
      <point x="1029" y="1500" type="line" name="sh02"/>
      <point x="1288" y="460" type="line"/>
      <point x="1352" y="100" type="line" name="ah03"/>
      <point x="1356" y="100" type="line" name="iv01"/>
      <point x="1379" y="460" type="line"/>
      <point x="1639" y="1500" type="line" name="sh03"/>
      <point x="1814" y="1500" type="line" name="sh04"/>
      <point x="1440" y="0" type="line" name="ab01"/>
      <point x="1208" y="0" type="line" name="sh05"/>
      <point x="987" y="885" type="line"/>
      <point x="958" y="1243" type="line" name="ah01"/>
      <point x="894" y="885" type="line" name="fh01"/>
      <point x="673" y="0" type="line" name="sh06"/>
      <point x="441" y="0" type="line" name="fh02"/>
      <point x="67" y="1500" type="line" name="sh08"/>
      <point x="258" y="1520" type="line" name="sh07"/>
      <point x="522" y="460" type="line"/>
      <point x="586" y="100" type="line" name="ah02"/>
      <point x="590" y="100" type="line" name="iv02"/>
      <point x="612" y="460" type="line" name="fh03"/>
    </contour>
  </outline>
</glyph>
<glyph name="grave" format="2">
  <advance width="1100"/>
  <unicode hex="0060"/>
  <outline>
    <contour>
      <point x="660" y="1200" type="line" name="av01"/>
      <point x="510" y="1200" type="line"/>
      <point x="285" y="1500" type="line" name="iv01"/>
      <point x="489" y="1520" type="line" name="at01"/>
    </contour>
  </outline>
</glyph>
<glyph name="a" format="2">
  <advance width="1050"/>
  <unicode hex="0061"/>
  <outline>
    <contour>
      <point x="920" y="0" type="line" name="ab01"/>
      <point x="710" y="0" type="line"/>
      <point x="710" y="162" type="line" name="ah01"/>
      <point x="616" y="50" type="line"/>
      <point x="599" y="37"/>
      <point x="555" y="13"/>
      <point x="510" y="-6"/>
      <point x="465" y="-17"/>
      <point x="446" y="-17" type="qcurve" name="ab02"/>
      <point x="371" y="-17"/>
      <point x="234" y="30"/>
      <point x="131" y="121"/>
      <point x="70" y="256"/>
      <point x="70" y="344" type="qcurve" name="sh01"/>
      <point x="70" y="437"/>
      <point x="145" y="574"/>
      <point x="262" y="665"/>
      <point x="406" y="710"/>
      <point x="475" y="710" type="qcurve" name="dv02"/>
      <point x="532" y="710"/>
      <point x="619" y="698"/>
      <point x="649" y="690" type="qcurve"/>
      <point x="684" y="681"/>
      <point x="710" y="670" type="qcurve" name="sh02"/>
      <point x="710" y="705" type="line"/>
      <point x="710" y="764"/>
      <point x="696" y="858"/>
      <point x="653" y="923"/>
      <point x="572" y="957"/>
      <point x="505" y="957" type="qcurve" name="sv01"/>
      <point x="451" y="957"/>
      <point x="351" y="942"/>
      <point x="312" y="933" type="qcurve"/>
      <point x="266" y="922"/>
      <point x="227" y="910" type="qcurve" name="ih01"/>
      <point x="155" y="1044" type="line"/>
      <point x="199" y="1064"/>
      <point x="255" y="1080" type="qcurve" name="sh04"/>
      <point x="303" y="1094"/>
      <point x="435" y="1117"/>
      <point x="515" y="1117" type="qcurve" name="av01"/>
      <point x="630" y="1117"/>
      <point x="780" y="1055"/>
      <point x="866" y="943"/>
      <point x="900" y="786"/>
      <point x="900" y="690" type="qcurve"/>
      <point x="900" y="180" type="line" name="sh05"/>
    </contour>
    <contour>
      <point x="710" y="533" type="line" name="sh06"/>
      <point x="682" y="537"/>
      <point x="650" y="541" type="qcurve" name="sv02"/>
      <point x="623" y="544"/>
      <point x="553" y="550"/>
      <point x="515" y="550" type="qcurve" name="dv01"/>
      <point x="459" y="550"/>
      <point x="366" y="528"/>
      <point x="298" y="479"/>
      <point x="260" y="401"/>
      <point x="260" y="345" type="qcurve" name="sh03"/>
      <point x="260" y="300"/>
      <point x="290" y="226"/>
      <point x="342" y="172"/>
      <point x="413" y="143"/>
      <point x="454" y="143" type="qcurve" name="sv03"/>
      <point x="473" y="143"/>
      <point x="516" y="154"/>
      <point x="559" y="172"/>
      <point x="602" y="196"/>
      <point x="621" y="208" type="qcurve"/>
      <point x="666" y="237"/>
      <point x="710" y="274" type="qcurve"/>
    </contour>
  </outline>
</glyph>
<glyph name="b" format="2">
  <advance width="1200"/>
  <unicode hex="0062"/>
  <outline>
    <contour>
      <point x="390" y="171" type="line" name="sh03"/>
      <point x="409" y="165"/>
      <point x="459" y="154"/>
      <point x="516" y="147"/>
      <point x="576" y="143"/>
      <point x="604" y="143" type="qcurve" name="sv01"/>
      <point x="665" y="143"/>
      <point x="758" y="183"/>
      <point x="826" y="250"/>
      <point x="871" y="341"/>
      <point x="899" y="442"/>
      <point x="910" y="550"/>
      <point x="910" y="601" type="qcurve" name="ah01"/>
      <point x="910" y="701"/>
      <point x="872" y="837"/>
      <point x="807" y="921"/>
      <point x="722" y="957"/>
      <point x="675" y="957" type="qcurve" name="sv02"/>
      <point x="596" y="957"/>
      <point x="452" y="896"/>
      <point x="390" y="845" type="qcurve"/>
    </contour>
    <contour>
      <point x="200" y="1420" type="line" name="sh01"/>
      <point x="180" y="1600" type="line"/>
      <point x="390" y="1620" type="line" name="sh02"/>
      <point x="390" y="974" type="line" name="iv01"/>
      <point x="475" y="1065" type="line"/>
      <point x="526" y="1089"/>
      <point x="638" y="1117"/>
      <point x="694" y="1117" type="qcurve" name="av01"/>
      <point x="777" y="1117"/>
      <point x="924" y="1049"/>
      <point x="1035" y="916"/>
      <point x="1100" y="722"/>
      <point x="1100" y="596" type="qcurve" name="sh04"/>
      <point x="1100" y="458"/>
      <point x="1025" y="232"/>
      <point x="890" y="71"/>
      <point x="705" y="-17"/>
      <point x="595" y="-17" type="qcurve" name="ab01"/>
      <point x="532" y="-17"/>
      <point x="410" y="-8"/>
      <point x="304" y="7"/>
      <point x="222" y="26"/>
      <point x="200" y="35" type="qcurve"/>
    </contour>
  </outline>
</glyph>
<glyph name="c" format="2">
  <advance width="1000"/>
  <unicode hex="0063"/>
  <outline>
    <contour>
      <point x="807" y="878" type="line" name="mh01"/>
      <point x="768" y="913"/>
      <point x="661" y="957"/>
      <point x="604" y="957" type="qcurve" name="sv01"/>
      <point x="520" y="957"/>
      <point x="402" y="894"/>
      <point x="329" y="786"/>
      <point x="295" y="643"/>
      <point x="295" y="564" type="qcurve" name="sh02"/>
      <point x="295" y="482"/>
      <point x="326" y="333"/>
      <point x="400" y="219"/>
      <point x="523" y="152"/>
      <point x="615" y="152" type="qcurve" name="sv02"/>
      <point x="692" y="152"/>
      <point x="799" y="188"/>
      <point x="828" y="208" type="qcurve" name="mh02"/>
      <point x="900" y="67" type="line" name="mh03"/>
      <point x="844" y="29"/>
      <point x="695" y="-17"/>
      <point x="601" y="-17" type="qcurve" name="mh04"/>
      <point x="476" y="-17"/>
      <point x="288" y="82" name="fh01"/>
      <point x="163" y="247"/>
      <point x="100" y="462"/>
      <point x="100" y="577" type="qcurve" name="sh01"/>
      <point x="100" y="681"/>
      <point x="161" y="876"/>
      <point x="286" y="1026" name="fh02"/>
      <point x="477" y="1117"/>
      <point x="606" y="1117" type="qcurve" name="av01"/>
      <point x="698" y="1117"/>
      <point x="843" y="1060"/>
      <point x="906" y="991" type="qcurve" name="mh05"/>
    </contour>
  </outline>
</glyph>
<glyph name="d" format="2">
  <advance width="1200"/>
  <unicode hex="0064"/>
  <outline>
    <contour>
      <point x="656" y="940" type="line" name="sv01"/>
      <point x="564" y="940"/>
      <point x="430" y="871"/>
      <point x="342" y="753"/>
      <point x="300" y="593"/>
      <point x="300" y="502" type="qcurve" name="sh02"/>
      <point x="300" y="413"/>
      <point x="342" y="279"/>
      <point x="409" y="189"/>
      <point x="495" y="144"/>
      <point x="540" y="144" type="qcurve" name="sv02"/>
      <point x="587" y="144"/>
      <point x="668" y="176"/>
      <point x="736" y="224"/>
      <point x="790" y="281"/>
      <point x="810" y="306" type="qcurve" name="sh03"/>
      <point x="810" y="940" type="line"/>
    </contour>
    <contour>
      <point x="810" y="0" type="line" name="ab02"/>
      <point x="810" y="162" type="line" name="ah01"/>
      <point x="715" y="49" type="line"/>
      <point x="697" y="37"/>
      <point x="655" y="13"/>
      <point x="603" y="-5"/>
      <point x="540" y="-17"/>
      <point x="501" y="-17" type="qcurve" name="ab01"/>
      <point x="419" y="-17"/>
      <point x="277" y="64"/>
      <point x="172" y="208"/>
      <point x="111" y="407"/>
      <point x="111" y="526" type="qcurve" name="sh01"/>
      <point x="111" y="646"/>
      <point x="188" y="855"/>
      <point x="330" y="1011"/>
      <point x="531" y="1100"/>
      <point x="655" y="1100" type="qcurve" name="av02"/>
      <point x="810" y="1100" type="line" name="sh04"/>
      <point x="810" y="1620" type="line" name="av01"/>
      <point x="1000" y="1600" type="line"/>
      <point x="1000" y="180" type="line" name="sh05"/>
      <point x="1020" y="0" type="line"/>
    </contour>
  </outline>
</glyph>
<glyph name="e" format="2">
  <advance width="1100"/>
  <unicode hex="0065"/>
  <outline>
    <contour>
      <point x="966" y="129" type="line" name="mh01"/>
      <point x="935" y="97"/>
      <point x="861" y="43"/>
      <point x="771" y="4"/>
      <point x="662" y="-17"/>
      <point x="595" y="-17" type="qcurve" name="ab01"/>
      <point x="462" y="-17"/>
      <point x="274" y="77"/>
      <point x="155" y="235"/>
      <point x="100" y="439"/>
      <point x="100" y="550" type="qcurve" name="sh01"/>
      <point x="100" y="621"/>
      <point x="126" y="760"/>
      <point x="178" y="886"/>
      <point x="256" y="994"/>
      <point x="360" y="1072"/>
      <point x="491" y="1117"/>
      <point x="570" y="1117" type="qcurve" name="av01"/>
      <point x="678" y="1117"/>
      <point x="836" y="1047"/>
      <point x="940" y="921"/>
      <point x="990" y="745"/>
      <point x="990" y="638" type="qcurve" name="dh02"/>
      <point x="990" y="607"/>
      <point x="986" y="533"/>
      <point x="982" y="500" type="qcurve" name="dv01"/>
      <point x="290" y="500" type="line" name="sh02"/>
      <point x="290" y="425"/>
      <point x="331" y="295"/>
      <point x="405" y="198"/>
      <point x="510" y="143"/>
      <point x="575" y="143" type="qcurve" name="mh02"/>
      <point x="639" y="143"/>
      <point x="734" y="162"/>
      <point x="802" y="189"/>
      <point x="845" y="217" name="mh03"/>
      <point x="857" y="225" type="qcurve" name="mh04"/>
    </contour>
    <contour>
      <point x="800" y="650" type="line" name="dh01"/>
      <point x="801" y="661"/>
      <point x="802" y="683"/>
      <point x="802" y="694" type="qcurve"/>
      <point x="802" y="751"/>
      <point x="776" y="847"/>
      <point x="723" y="918"/>
      <point x="641" y="958"/>
      <point x="585" y="958" type="qcurve" name="sv01"/>
      <point x="518" y="958"/>
      <point x="423" y="915"/>
      <point x="358" y="848"/>
      <point x="319" y="768"/>
      <point x="309" y="732" type="qcurve"/>
      <point x="257" y="623" type="line" name="ih01"/>
      <point x="435" y="650" type="line"/>
    </contour>
  </outline>
</glyph>
<glyph name="f" format="2">
  <advance width="800"/>
  <unicode hex="0066"/>
  <guideline x="0" y="3258" angle="0"/>
  <outline>
    <contour>
      <point x="50" y="1100" type="line" name="dv03"/>
      <point x="200" y="1100" type="line" name="sh01"/>
      <point x="200" y="1255" type="line"/>
      <point x="200" y="1340"/>
      <point x="237" y="1474"/>
      <point x="317" y="1567"/>
      <point x="442" y="1617"/>
      <point x="530" y="1617" type="qcurve" name="av01"/>
      <point x="575" y="1617"/>
      <point x="650" y="1602"/>
      <point x="713" y="1578"/>
      <point x="766" y="1546"/>
      <point x="787" y="1529" type="qcurve" name="mh01"/>
      <point x="702" y="1411" type="line"/>
      <point x="681" y="1426"/>
      <point x="607" y="1457"/>
      <point x="562" y="1457" type="qcurve" name="sv01"/>
      <point x="476" y="1457"/>
      <point x="385" y="1360"/>
      <point x="385" y="1245" type="qcurve" name="sh02"/>
      <point x="385" y="1100" type="line"/>
      <point x="675" y="1100" type="line" name="dv02"/>
      <point x="655" y="940" type="line" name="dv01"/>
      <point x="390" y="940" type="line" name="dh02"/>
      <point x="390" y="0" type="line" name="ab01"/>
      <point x="200" y="0" type="line"/>
      <point x="200" y="940" type="line" name="dh01"/>
      <point x="50" y="940" type="line" name="dv04"/>
    </contour>
  </outline>
</glyph>
<glyph name="g" format="2">
  <advance width="1200"/>
  <unicode hex="0067"/>
  <outline>
    <contour>
      <point x="810" y="135" type="line" name="iv01"/>
      <point x="723" y="25" type="line"/>
      <point x="714" y="19"/>
      <point x="681" y="5"/>
      <point x="633" y="-8"/>
      <point x="569" y="-17"/>
      <point x="530" y="-17" type="qcurve" name="ab01"/>
      <point x="439" y="-17"/>
      <point x="282" y="72"/>
      <point x="166" y="225"/>
      <point x="100" y="430"/>
      <point x="100" y="545" type="qcurve" name="sh01"/>
      <point x="100" y="662"/>
      <point x="160" y="870"/>
      <point x="280" y="1026"/>
      <point x="458" y="1117"/>
      <point x="576" y="1117" type="qcurve" name="av01"/>
      <point x="613" y="1117"/>
      <point x="684" y="1111"/>
      <point x="715" y="1100" type="qcurve"/>
      <point x="810" y="958" type="line" name="sh02"/>
      <point x="810" y="1120" type="line" name="av02"/>
      <point x="1000" y="1100" type="line"/>
      <point x="1000" y="-46" type="line" name="sh03"/>
      <point x="1000" y="-144"/>
      <point x="933" y="-316"/>
      <point x="807" y="-443"/>
      <point x="626" y="-517"/>
      <point x="512" y="-517" type="qcurve" name="ab02"/>
      <point x="433" y="-517"/>
      <point x="314" y="-477"/>
      <point x="272" y="-453" type="qcurve"/>
      <point x="224" y="-425"/>
      <point x="189" y="-388" type="qcurve"/>
      <point x="287" y="-278" type="line" name="sh05"/>
      <point x="316" y="-300"/>
      <point x="352" y="-318" type="qcurve"/>
      <point x="383" y="-333"/>
      <point x="465" y="-357"/>
      <point x="513" y="-357" type="qcurve" name="sv03"/>
      <point x="575" y="-357"/>
      <point x="683" y="-306"/>
      <point x="764" y="-218"/>
      <point x="810" y="-99"/>
      <point x="810" y="-31" type="qcurve" name="ah01"/>
    </contour>
    <contour>
      <point x="810" y="834" type="line" name="sh06"/>
      <point x="783" y="868"/>
      <point x="747" y="895" type="qcurve"/>
      <point x="716" y="918"/>
      <point x="628" y="957"/>
      <point x="571" y="957" type="qcurve" name="sv02"/>
      <point x="511" y="957"/>
      <point x="423" y="919"/>
      <point x="360" y="855"/>
      <point x="321" y="770"/>
      <point x="298" y="675"/>
      <point x="290" y="578"/>
      <point x="290" y="533" type="qcurve" name="sh04"/>
      <point x="290" y="448"/>
      <point x="327" y="305"/>
      <point x="394" y="202"/>
      <point x="489" y="144"/>
      <point x="546" y="144" type="qcurve" name="sv01"/>
      <point x="597" y="144"/>
      <point x="677" y="166"/>
      <point x="741" y="203"/>
      <point x="790" y="250"/>
      <point x="810" y="275" type="qcurve"/>
    </contour>
  </outline>
</glyph>
<glyph name="i" format="2">
  <advance width="600"/>
  <unicode hex="0069"/>
  <outline>
    <contour>
      <point x="390" y="0" type="line" name="dh02"/>
      <point x="200" y="0" type="line" name="dh01"/>
      <point x="200" y="1055" type="line" name="av02"/>
      <point x="390" y="1075" type="line" name="av01"/>
    </contour>
    <contour>
      <point x="194" y="1500" type="line" name="sh01"/>
      <point x="396" y="1500" type="line" name="sh02"/>
      <point x="396" y="1300" type="line" name="sv01"/>
      <point x="194" y="1300" type="line" name="fv01"/>
    </contour>
  </outline>
</glyph>
<glyph name="j" format="2">
  <advance width="600"/>
  <unicode hex="006A"/>
  <outline>
    <contour>
      <point x="194" y="1500" type="line" name="sh01"/>
      <point x="396" y="1500" type="line" name="sh02"/>
      <point x="396" y="1300" type="line" name="sv01"/>
      <point x="194" y="1300" type="line"/>
    </contour>
    <contour>
      <point x="-22" y="-345" type="line"/>
      <point x="-11" y="-349"/>
      <point x="39" y="-357"/>
      <point x="70" y="-357" type="qcurve" name="sv02"/>
      <point x="107" y="-357"/>
      <point x="157" y="-318"/>
      <point x="187" y="-250"/>
      <point x="200" y="-159"/>
      <point x="200" y="-107" type="qcurve" name="dh01"/>
      <point x="200" y="1055" type="line"/>
      <point x="390" y="1075" type="line" name="av01"/>
      <point x="390" y="-97" type="line" name="dh02"/>
      <point x="390" y="-186"/>
      <point x="367" y="-340"/>
      <point x="299" y="-453"/>
      <point x="178" y="-517"/>
      <point x="80" y="-517" type="qcurve" name="ab01"/>
      <point x="19" y="-517"/>
      <point x="-50" y="-495"/>
      <point x="-61" y="-489" type="qcurve"/>
    </contour>
  </outline>
</glyph>
<glyph name="l" format="2">
  <advance width="700"/>
  <unicode hex="006C"/>
  <outline>
    <contour>
      <point x="390" y="376" type="line" name="dh02"/>
      <point x="390" y="310"/>
      <point x="405" y="221"/>
      <point x="434" y="166"/>
      <point x="477" y="143"/>
      <point x="505" y="143" type="qcurve" name="sv01"/>
      <point x="527" y="143"/>
      <point x="563" y="148"/>
      <point x="576" y="152" type="qcurve"/>
      <point x="591" y="156"/>
      <point x="603" y="161" type="qcurve"/>
      <point x="672" y="40" type="line" name="fh01"/>
      <point x="664" y="32"/>
      <point x="629" y="13"/>
      <point x="581" y="-5"/>
      <point x="520" y="-17"/>
      <point x="485" y="-17" type="qcurve" name="ab01"/>
      <point x="395" y="-17"/>
      <point x="283" y="49"/>
      <point x="221" y="163"/>
      <point x="200" y="314"/>
      <point x="200" y="400" type="qcurve" name="dh01"/>
      <point x="200" y="1400" type="line"/>
      <point x="180" y="1600" type="line"/>
      <point x="390" y="1620" type="line" name="av01"/>
    </contour>
  </outline>
</glyph>
<glyph name="m" format="2">
  <advance width="1800"/>
  <unicode hex="006D"/>
  <outline>
    <contour>
      <point x="390" y="0" type="line" name="dh02"/>
      <point x="200" y="0" type="line" name="dh01"/>
      <point x="200" y="1100" type="line"/>
      <point x="390" y="1120" type="line" name="sh01"/>
      <point x="390" y="937" type="line" name="iv01"/>
      <point x="451" y="1044" type="line"/>
      <point x="469" y="1056"/>
      <point x="523" y="1082"/>
      <point x="591" y="1103"/>
      <point x="669" y="1117"/>
      <point x="710" y="1117" type="qcurve" name="av01"/>
      <point x="822" y="1117"/>
      <point x="962" y="1008"/>
      <point x="983" y="923" type="qcurve" name="ih01"/>
      <point x="1059" y="1040" type="line"/>
      <point x="1094" y="1068"/>
      <point x="1222" y="1117"/>
      <point x="1305" y="1117" type="qcurve" name="av02"/>
      <point x="1381" y="1117"/>
      <point x="1489" y="1066"/>
      <point x="1558" y="970"/>
      <point x="1590" y="834"/>
      <point x="1590" y="750" type="qcurve"/>
      <point x="1590" y="0" type="line" name="sh05"/>
      <point x="1400" y="0" type="line" name="sh04"/>
      <point x="1400" y="740" type="line"/>
      <point x="1400" y="794"/>
      <point x="1385" y="875"/>
      <point x="1348" y="930"/>
      <point x="1286" y="957"/>
      <point x="1240" y="957" type="qcurve" name="sv01"/>
      <point x="1211" y="957"/>
      <point x="1148" y="937"/>
      <point x="1084" y="904"/>
      <point x="1023" y="861"/>
      <point x="996" y="839" type="qcurve" name="sh06"/>
      <point x="999" y="810"/>
      <point x="1000" y="771"/>
      <point x="1000" y="740" type="qcurve"/>
      <point x="1000" y="0" type="line" name="sh03"/>
      <point x="810" y="0" type="line" name="sh02"/>
      <point x="810" y="740" type="line"/>
      <point x="810" y="848"/>
      <point x="738" y="957"/>
      <point x="645" y="957" type="qcurve" name="sv02"/>
      <point x="615" y="957"/>
      <point x="547" y="939"/>
      <point x="480" y="907"/>
      <point x="416" y="866"/>
      <point x="390" y="844" type="qcurve"/>
    </contour>
  </outline>
</glyph>
<glyph name="q" format="2">
  <advance width="1200"/>
  <unicode hex="0071"/>
  <outline>
    <contour>
      <point x="810" y="935" type="line" name="ah01"/>
      <point x="791" y="939"/>
      <point x="740" y="947"/>
      <point x="683" y="953"/>
      <point x="623" y="957"/>
      <point x="596" y="957" type="qcurve" name="sv01"/>
      <point x="504" y="957"/>
      <point x="388" y="879"/>
      <point x="320" y="755"/>
      <point x="295" y="600"/>
      <point x="295" y="524" type="qcurve" name="sh02"/>
      <point x="295" y="424"/>
      <point x="333" y="280"/>
      <point x="396" y="187"/>
      <point x="479" y="143"/>
      <point x="525" y="143" type="qcurve" name="sv02"/>
      <point x="564" y="143"/>
      <point x="640" y="164"/>
      <point x="712" y="199"/>
      <point x="779" y="245"/>
      <point x="810" y="270" type="qcurve"/>
    </contour>
    <contour>
      <point x="810" y="136" type="line" name="sh03"/>
      <point x="705" y="29" type="line"/>
      <point x="654" y="5"/>
      <point x="554" y="-17"/>
      <point x="506" y="-17" type="qcurve" name="ab01"/>
      <point x="423" y="-17"/>
      <point x="276" y="58"/>
      <point x="165" y="197"/>
      <point x="100" y="398"/>
      <point x="100" y="524" type="qcurve" name="sh01"/>
      <point x="100" y="662"/>
      <point x="174" y="882"/>
      <point x="306" y="1035"/>
      <point x="490" y="1117"/>
      <point x="600" y="1117" type="qcurve" name="av02"/>
      <point x="663" y="1117"/>
      <point x="789" y="1106"/>
      <point x="897" y="1091"/>
      <point x="980" y="1072"/>
      <point x="1000" y="1065" type="qcurve" name="sh04"/>
      <point x="1000" y="-500" type="line" name="av01"/>
      <point x="810" y="-500" type="line"/>
    </contour>
  </outline>
</glyph>
<glyph name="r" format="2">
  <advance width="800"/>
  <unicode hex="0072"/>
  <outline>
    <contour>
      <point x="671" y="948" type="qcurve" name="sv01"/>
      <point x="631" y="948"/>
      <point x="553" y="916"/>
      <point x="481" y="862"/>
      <point x="417" y="790"/>
      <point x="390" y="750" type="qcurve"/>
      <point x="390" y="0" type="line" name="dh02"/>
      <point x="200" y="0" type="line" name="dh01"/>
      <point x="200" y="1100" type="line"/>
      <point x="390" y="1120" type="line" name="sh01"/>
      <point x="390" y="895" type="line" name="iv01"/>
      <point x="490" y="1070" type="line"/>
      <point x="503" y="1078"/>
      <point x="542" y="1095"/>
      <point x="592" y="1108"/>
      <point x="649" y="1117"/>
      <point x="679" y="1117" type="qcurve" name="av01"/>
      <point x="724" y="1117"/>
      <point x="785" y="1101"/>
      <point x="800" y="1094" type="qcurve"/>
      <point x="790" y="928" type="line"/>
      <point x="775" y="933"/>
      <point x="715" y="948"/>
    </contour>
  </outline>
</glyph>
<glyph name="s" format="2">
  <advance width="900"/>
  <unicode hex="0073"/>
  <outline>
    <contour>
      <point x="661" y="919" type="line" name="sh02"/>
      <point x="643" y="928"/>
      <point x="593" y="946"/>
      <point x="539" y="960"/>
      <point x="484" y="968"/>
      <point x="459" y="968" type="qcurve" name="sv01"/>
      <point x="353" y="968"/>
      <point x="265" y="905"/>
      <point x="265" y="842" type="qcurve" name="sh04"/>
      <point x="265" y="800"/>
      <point x="323" y="745"/>
      <point x="415" y="701"/>
      <point x="528" y="662" name="iv01"/>
      <point x="582" y="635" type="qcurve"/>
      <point x="621" y="616"/>
      <point x="701" y="564"/>
      <point x="765" y="494"/>
      <point x="805" y="406"/>
      <point x="805" y="351" type="qcurve" name="sh01"/>
      <point x="805" y="250"/>
      <point x="737" y="110"/>
      <point x="620" y="23"/>
      <point x="463" y="-17"/>
      <point x="374" y="-17" type="qcurve" name="ab01"/>
      <point x="340" y="-17"/>
      <point x="254" y="-4"/>
      <point x="168" y="19"/>
      <point x="90" y="51"/>
      <point x="64" y="69" type="qcurve"/>
      <point x="130" y="201" type="line" name="sh05"/>
      <point x="154" y="189"/>
      <point x="220" y="168"/>
      <point x="290" y="152"/>
      <point x="359" y="143"/>
      <point x="386" y="143" type="qcurve" name="sv02"/>
      <point x="432" y="143"/>
      <point x="517" y="162"/>
      <point x="582" y="204"/>
      <point x="621" y="271"/>
      <point x="621" y="320" type="qcurve" name="ah01"/>
      <point x="621" y="357"/>
      <point x="590" y="413"/>
      <point x="537" y="456"/>
      <point x="467" y="492"/>
      <point x="389" y="525" name="iv02"/>
      <point x="307" y="560"/>
      <point x="270" y="581" type="qcurve"/>
      <point x="235" y="601"/>
      <point x="170" y="649"/>
      <point x="120" y="709"/>
      <point x="90" y="784"/>
      <point x="90" y="832" type="qcurve" name="sh03"/>
      <point x="90" y="908"/>
      <point x="144" y="1017"/>
      <point x="242" y="1085"/>
      <point x="380" y="1117"/>
      <point x="463" y="1117" type="qcurve" name="av01"/>
      <point x="501" y="1117"/>
      <point x="575" y="1105"/>
      <point x="643" y="1086"/>
      <point x="699" y="1060"/>
      <point x="719" y="1047" type="qcurve"/>
    </contour>
  </outline>
</glyph>
<glyph name="u" format="2">
  <advance width="1200"/>
  <unicode hex="0075"/>
  <outline>
    <contour>
      <point x="810" y="1100" type="line" name="ah01"/>
      <point x="1000" y="1120" type="line" name="sh01"/>
      <point x="1000" y="0" type="line" name="ab01"/>
      <point x="810" y="0" type="line" name="sh02"/>
      <point x="810" y="163" type="line" name="ih01"/>
      <point x="749" y="56" type="line"/>
      <point x="731" y="44"/>
      <point x="682" y="18"/>
      <point x="620" y="-3"/>
      <point x="546" y="-17"/>
      <point x="505" y="-17" type="qcurve" name="ab02"/>
      <point x="425" y="-17"/>
      <point x="310" y="41"/>
      <point x="236" y="145"/>
      <point x="200" y="288"/>
      <point x="200" y="372" type="qcurve" name="sh03"/>
      <point x="200" y="1100" type="line"/>
      <point x="390" y="1120" type="line" name="av01"/>
      <point x="390" y="372" type="line" name="sh04"/>
      <point x="390" y="264"/>
      <point x="477" y="143"/>
      <point x="570" y="143" type="qcurve" name="sv01"/>
      <point x="604" y="143"/>
      <point x="670" y="165"/>
      <point x="732" y="199"/>
      <point x="787" y="239"/>
      <point x="810" y="258" type="qcurve"/>
    </contour>
  </outline>
</glyph>
<glyph name="w" format="2">
  <advance width="1500"/>
  <unicode hex="0077"/>
  <guideline x="0" y="500" angle="0"/>
  <guideline x="0" y="600" angle="0"/>
  <guideline x="466" y="0" angle="90"/>
  <guideline x="1039" y="0" angle="90"/>
  <guideline x="742" y="0" angle="90"/>
  <outline>
    <contour>
      <point x="997" y="480" type="line" name="mh01"/>
      <point x="1039" y="200" type="line" name="ah02"/>
      <point x="1079" y="480" type="line"/>
      <point x="1250" y="1100" type="line" name="sh01"/>
      <point x="1412" y="1117" type="line" name="sh02"/>
      <point x="1103" y="0" type="line" name="mh02"/>
      <point x="951" y="0" type="line" name="sh03"/>
      <point x="780" y="620" type="line" name="mh03"/>
      <point x="742" y="900" type="line" name="ah03"/>
      <point x="701" y="620" type="line" name="mh04"/>
      <point x="530" y="0" type="line" name="ab01"/>
      <point x="378" y="0" type="line"/>
      <point x="75" y="1100" type="line" name="sh05"/>
      <point x="247" y="1120" type="line" name="sh04"/>
      <point x="423" y="480" type="line" name="fh01"/>
      <point x="466" y="200" type="line" name="ah01"/>
      <point x="506" y="480" type="line" name="fh02"/>
      <point x="677" y="1100" type="line" name="sh06"/>
      <point x="825" y="1100" type="line" name="sh07"/>
    </contour>
  </outline>
</glyph>
<glyph name="x" format="2">
  <advance width="1100"/>
  <unicode hex="0078"/>
  <outline>
    <contour>
      <point x="851" y="0" type="line" name="sh01"/>
      <point x="583" y="382" type="line" name="fh01"/>
      <point x="538" y="500" type="line" name="ah02"/>
      <point x="493" y="382" type="line" name="fh02"/>
      <point x="225" y="0" type="line" name="sh02"/>
      <point x="26" y="0" type="line" name="fh03"/>
      <point x="438" y="588" type="line" name="fh04"/>
      <point x="80" y="1100" type="line" name="iv01"/>
      <point x="291" y="1117" type="line" name="sh03"/>
      <point x="526" y="781" type="line" name="fh05"/>
      <point x="565" y="670" type="line" name="ah01"/>
      <point x="603" y="781" type="line"/>
      <point x="828" y="1100" type="line" name="sh04"/>
      <point x="1039" y="1117" type="line" name="av01"/>
      <point x="665" y="583" type="line" name="fh06"/>
      <point x="1076" y="0" type="line" name="fh07"/>
    </contour>
  </outline>
</glyph>
<glyph name="y" format="2">
  <advance width="1100"/>
  <unicode hex="0079"/>
  <guideline x="550" y="0" angle="90"/>
  <outline>
    <contour>
      <point x="602" y="364" type="line" name="hr00"/>
      <point x="871" y="1100" type="line" name="sh01"/>
      <point x="1051" y="1117" type="line" name="sh02"/>
      <point x="637" y="-17" type="line" name="ih01"/>
      <point x="606" y="-101"/>
      <point x="533" y="-267"/>
      <point x="441" y="-398"/>
      <point x="330" y="-480"/>
      <point x="262" y="-480" type="qcurve" name="av01"/>
      <point x="211" y="-480"/>
      <point x="113" y="-439"/>
      <point x="72" y="-403" type="qcurve"/>
      <point x="145" y="-296" type="line" name="ih02"/>
      <point x="162" y="-308"/>
      <point x="206" y="-328"/>
      <point x="230" y="-328" type="qcurve" name="sv01"/>
      <point x="263" y="-328"/>
      <point x="325" y="-277"/>
      <point x="382" y="-197"/>
      <point x="431" y="-97"/>
      <point x="451" y="-47" type="qcurve" name="ab01"/>
      <point x="34" y="1100" type="line" name="sh04"/>
      <point x="224" y="1117" type="line" name="sh03"/>
      <point x="498" y="364" type="line"/>
      <point x="550" y="132" type="line" name="ah01"/>
    </contour>
  </outline>
</glyph>
<glyph name="braceright" format="2">
  <advance width="1200"/>
  <unicode hex="007D"/>
  <outline>
    <contour>
      <point x="1074" y="625" type="line" name="dv02"/>
      <point x="1074" y="475" type="line" name="dv01"/>
      <point x="952" y="475" type="line"/>
      <point x="903" y="468"/>
      <point x="844" y="428"/>
      <point x="812" y="364"/>
      <point x="802" y="275"/>
      <point x="802" y="220" type="qcurve"/>
      <point x="802" y="-20" type="line" name="dh02"/>
      <point x="802" y="-105"/>
      <point x="771" y="-251"/>
      <point x="695" y="-359"/>
      <point x="568" y="-420"/>
      <point x="472" y="-420" type="qcurve" name="av01"/>
      <point x="426" y="-420"/>
      <point x="361" y="-413"/>
      <point x="310" y="-400"/>
      <point x="269" y="-383"/>
      <point x="248" y="-373" type="qcurve"/>
      <point x="311" y="-250" type="line"/>
      <point x="330" y="-261"/>
      <point x="395" y="-277"/>
      <point x="420" y="-277" type="qcurve"/>
      <point x="428" y="-277"/>
      <point x="444" y="-277"/>
      <point x="452" y="-275" type="qcurve"/>
      <point x="501" y="-268"/>
      <point x="560" y="-228"/>
      <point x="592" y="-164"/>
      <point x="602" y="-75"/>
      <point x="602" y="-20" type="qcurve" name="dh01"/>
      <point x="602" y="220" type="line"/>
      <point x="602" y="271"/>
      <point x="613" y="367"/>
      <point x="639" y="452"/>
      <point x="679" y="523"/>
      <point x="709" y="550" type="qcurve"/>
      <point x="650" y="604"/>
      <point x="602" y="776"/>
      <point x="602" y="880" type="qcurve" name="sh01"/>
      <point x="602" y="1119" type="line"/>
      <point x="602" y="1174"/>
      <point x="592" y="1263"/>
      <point x="560" y="1327"/>
      <point x="501" y="1367"/>
      <point x="452" y="1374" type="qcurve"/>
      <point x="444" y="1376"/>
      <point x="428" y="1376"/>
      <point x="420" y="1376" type="qcurve"/>
      <point x="395" y="1376"/>
      <point x="330" y="1360"/>
      <point x="311" y="1349" type="qcurve"/>
      <point x="248" y="1472" type="line"/>
      <point x="269" y="1482"/>
      <point x="310" y="1499"/>
      <point x="361" y="1512"/>
      <point x="426" y="1519"/>
      <point x="472" y="1519" type="qcurve" name="at01"/>
      <point x="568" y="1519"/>
      <point x="695" y="1458"/>
      <point x="771" y="1350"/>
      <point x="802" y="1204"/>
      <point x="802" y="1119" type="qcurve" name="sh02"/>
      <point x="802" y="880" type="line"/>
      <point x="802" y="825"/>
      <point x="812" y="736"/>
      <point x="844" y="672"/>
      <point x="903" y="632"/>
      <point x="952" y="625" type="qcurve"/>
    </contour>
  </outline>
</glyph>
<glyph name="exclamdown" format="2">
  <advance width="700"/>
  <unicode hex="00A1"/>
  <outline>
    <contour>
      <point x="195" y="-399" type="line" name="sh02"/>
      <point x="195" y="672" type="line"/>
      <point x="405" y="651" type="line"/>
      <point x="405" y="-399" type="line" name="sh01"/>
    </contour>
    <contour>
      <point x="169" y="981" type="qcurve" name="dh01"/>
      <point x="169" y="1008"/>
      <point x="190" y="1057"/>
      <point x="226" y="1093"/>
      <point x="274" y="1115"/>
      <point x="302" y="1115" type="qcurve" name="at01"/>
      <point x="329" y="1115"/>
      <point x="376" y="1093"/>
      <point x="411" y="1057"/>
      <point x="432" y="1008"/>
      <point x="432" y="981" type="qcurve" name="dh02"/>
      <point x="432" y="954"/>
      <point x="411" y="906"/>
      <point x="375" y="870"/>
      <point x="327" y="849"/>
      <point x="300" y="849" type="qcurve"/>
      <point x="273" y="849"/>
      <point x="226" y="870"/>
      <point x="190" y="906"/>
      <point x="169" y="954"/>
    </contour>
  </outline>
</glyph>
<glyph name="cent" format="2">
  <advance width="1000"/>
  <unicode hex="00A2"/>
  <outline>
    <contour>
      <point x="673" y="1320" type="line" name="hr00"/>
      <point x="673" y="1113" type="line"/>
      <point x="725" y="1106"/>
      <point x="770" y="1088" type="qcurve"/>
      <point x="843" y="1060"/>
      <point x="906" y="991" type="qcurve"/>
      <point x="807" y="878" type="line"/>
      <point x="768" y="913"/>
      <point x="714" y="935" type="qcurve"/>
      <point x="687" y="946"/>
      <point x="660" y="951" type="qcurve"/>
      <point x="660" y="153" type="line"/>
      <point x="708" y="157"/>
      <point x="745" y="170" type="qcurve"/>
      <point x="799" y="188"/>
      <point x="828" y="208" type="qcurve"/>
      <point x="900" y="67" type="line"/>
      <point x="844" y="29"/>
      <point x="769" y="6" type="qcurve"/>
      <point x="725" y="-8"/>
      <point x="673" y="-13" type="qcurve"/>
      <point x="673" y="-200" type="line"/>
      <point x="527" y="-200" type="line"/>
      <point x="527" y="-12" type="line"/>
      <point x="447" y="-2"/>
      <point x="382" y="32" type="qcurve"/>
      <point x="288" y="82"/>
      <point x="163" y="247"/>
      <point x="100" y="462"/>
      <point x="100" y="577" type="qcurve"/>
      <point x="100" y="681"/>
      <point x="161" y="876"/>
      <point x="286" y="1026"/>
      <point x="381" y="1071" type="qcurve"/>
      <point x="446" y="1102"/>
      <point x="527" y="1112" type="qcurve"/>
      <point x="527" y="1300" type="line"/>
    </contour>
    <contour>
      <point x="461" y="925" type="qcurve"/>
      <point x="402" y="894"/>
      <point x="329" y="786"/>
      <point x="295" y="643"/>
      <point x="295" y="564" type="qcurve"/>
      <point x="295" y="482"/>
      <point x="326" y="333"/>
      <point x="400" y="219"/>
      <point x="461" y="185" type="qcurve"/>
      <point x="495" y="167"/>
      <point x="539" y="158" type="qcurve"/>
      <point x="539" y="952" type="line"/>
      <point x="496" y="944"/>
    </contour>
  </outline>
</glyph>
<glyph name="yen" format="2">
  <advance width="1200"/>
  <unicode hex="00A5"/>
  <outline>
    <contour>
      <point x="100" y="550" type="line" name="hr00"/>
      <point x="495" y="550" type="line"/>
      <point x="495" y="645" type="line"/>
      <point x="467" y="700" type="line"/>
      <point x="100" y="700" type="line"/>
      <point x="100" y="850" type="line"/>
      <point x="390" y="850" type="line"/>
      <point x="59" y="1500" type="line"/>
      <point x="263" y="1520" type="line"/>
      <point x="551" y="954" type="line"/>
      <point x="630" y="705" type="line"/>
      <point x="660" y="935" type="line"/>
      <point x="948" y="1500" type="line"/>
      <point x="1140" y="1500" type="line"/>
      <point x="809" y="850" type="line"/>
      <point x="1100" y="850" type="line"/>
      <point x="1100" y="700" type="line"/>
      <point x="732" y="700" type="line"/>
      <point x="705" y="646" type="line"/>
      <point x="705" y="550" type="line"/>
      <point x="1100" y="550" type="line"/>
      <point x="1100" y="400" type="line"/>
      <point x="705" y="400" type="line"/>
      <point x="705" y="0" type="line"/>
      <point x="495" y="0" type="line"/>
      <point x="495" y="400" type="line"/>
      <point x="100" y="400" type="line"/>
    </contour>
  </outline>
</glyph>
<glyph name="dieresis" format="2">
  <advance width="1100"/>
  <unicode hex="00A8"/>
  <outline>
    <contour>
      <point x="300" y="1500" type="line"/>
      <point x="500" y="1500" type="line" name="fh01"/>
      <point x="500" y="1300" type="line"/>
      <point x="300" y="1300" type="line"/>
    </contour>
    <contour>
      <point x="700" y="1500" type="line"/>
      <point x="900" y="1500" type="line"/>
      <point x="900" y="1300" type="line"/>
      <point x="700" y="1300" type="line"/>
    </contour>
  </outline>
</glyph>
<glyph name="ordfeminine" format="2">
  <advance width="800"/>
  <unicode hex="00AA"/>
  <outline>
    <contour>
      <point x="100" y="800" type="line"/>
      <point x="500" y="800" type="line"/>
      <point x="500" y="700" type="line"/>
      <point x="100" y="700" type="line"/>
    </contour>
    <component base="a" xScale="0.5" yScale="0.5" xOffset="45" yOffset="959"/>
  </outline>
</glyph>
<glyph name="plusminus" format="2">
  <advance width="1200"/>
  <unicode hex="00B1"/>
  <outline>
    <contour>
      <point x="100" y="862" type="line" name="hr00"/>
      <point x="473" y="862" type="line"/>
      <point x="473" y="1199" type="line"/>
      <point x="628" y="1199" type="line"/>
      <point x="628" y="862" type="line"/>
      <point x="1000" y="862" type="line"/>
      <point x="1000" y="738" type="line"/>
      <point x="628" y="738" type="line"/>
      <point x="628" y="400" type="line"/>
      <point x="473" y="400" type="line"/>
      <point x="473" y="738" type="line"/>
      <point x="100" y="738" type="line"/>
    </contour>
    <contour>
      <point x="100" y="290" type="line" name="hr01"/>
      <point x="1000" y="290" type="line"/>
      <point x="1000" y="150" type="line"/>
      <point x="100" y="150" type="line"/>
    </contour>
  </outline>
</glyph>
<glyph name="acute" format="2">
  <advance width="1100"/>
  <unicode hex="00B4"/>
  <outline>
    <contour>
      <point x="600" y="1500" type="line" name="hr00"/>
      <point x="830" y="1520" type="line" name="at01"/>
      <point x="590" y="1200" type="line" name="av01"/>
      <point x="440" y="1200" type="line"/>
    </contour>
  </outline>
</glyph>
<glyph name="paragraph" format="2">
  <advance width="1400"/>
  <unicode hex="00B6"/>
  <outline>
    <contour>
      <point x="730" y="-400" type="line" name="hr00"/>
      <point x="899" y="-400" type="line"/>
      <point x="899" y="1348" type="line"/>
      <point x="1033" y="1348" type="line"/>
      <point x="1033" y="-400" type="line"/>
      <point x="1202" y="-400" type="line"/>
      <point x="1202" y="1500" type="line"/>
      <point x="730" y="1500" type="line"/>
      <point x="538" y="1489"/>
      <point x="287" y="1392"/>
      <point x="287" y="1112" type="curve" smooth="yes"/>
      <point x="287" y="957"/>
      <point x="316" y="795"/>
      <point x="507" y="702" type="curve" smooth="yes"/>
      <point x="564" y="674"/>
      <point x="632" y="652"/>
      <point x="730" y="647" type="curve"/>
    </contour>
  </outline>
</glyph>
<glyph name="onequarter" format="2">
  <advance width="1500"/>
  <unicode hex="00BC"/>
  <outline>
    <contour>
      <point x="454" y="0" type="line" name="hr00"/>
      <point x="319" y="0" type="line"/>
      <point x="1094" y="1500" type="line"/>
      <point x="1220" y="1500" type="line"/>
    </contour>
    <contour>
      <point x="175" y="720" type="line" name="hr01"/>
      <point x="175" y="800" type="line"/>
      <point x="297" y="800" type="line"/>
      <point x="297" y="1283" type="line"/>
      <point x="326" y="1396" type="line"/>
      <point x="258" y="1303" type="line"/>
      <point x="152" y="1209" type="line"/>
      <point x="98" y="1270" type="line"/>
      <point x="327" y="1480" type="line"/>
      <point x="402" y="1470" type="line"/>
      <point x="402" y="800" type="line"/>
      <point x="525" y="800" type="line"/>
      <point x="525" y="720" type="line"/>
    </contour>
    <contour>
      <point x="1395" y="150" type="line" name="hr02"/>
      <point x="1305" y="150" type="line"/>
      <point x="1305" y="0" type="line"/>
      <point x="1200" y="0" type="line"/>
      <point x="1200" y="150" type="line"/>
      <point x="903" y="150" type="line"/>
      <point x="903" y="235" type="line"/>
      <point x="1145" y="760" type="line"/>
      <point x="1239" y="750" type="line"/>
      <point x="1032" y="300" type="line"/>
      <point x="985" y="230" type="line"/>
      <point x="1200" y="230" type="line"/>
      <point x="1200" y="433" type="line"/>
      <point x="1305" y="425" type="line"/>
      <point x="1305" y="230" type="line"/>
      <point x="1403" y="230" type="line"/>
    </contour>
  </outline>
</glyph>
<glyph name="AE" format="2">
  <advance width="1700"/>
  <unicode hex="00C6"/>
  <outline>
    <contour>
      <point x="990" y="160" type="line"/>
      <point x="1000" y="340" type="line"/>
      <point x="1000" y="740" type="line"/>
      <point x="1539" y="740" type="line"/>
      <point x="1539" y="885" type="line"/>
      <point x="1000" y="885" type="line"/>
      <point x="1000" y="1149" type="line"/>
      <point x="978" y="1340" type="line"/>
      <point x="1610" y="1340" type="line"/>
      <point x="1610" y="1500" type="line"/>
      <point x="619" y="1500" type="line"/>
      <point x="575" y="1300" type="line"/>
      <point x="50" y="0" type="line"/>
      <point x="257" y="0" type="line"/>
      <point x="437" y="450" type="line"/>
      <point x="791" y="450" type="line"/>
      <point x="791" y="200" type="line"/>
      <point x="775" y="0" type="line"/>
      <point x="1625" y="0" type="line"/>
      <point x="1645" y="160" type="line"/>
    </contour>
    <contour>
      <point x="498" y="599" type="line"/>
      <point x="697" y="1099" type="line"/>
      <point x="770" y="1340" type="line"/>
      <point x="791" y="1106" type="line"/>
      <point x="791" y="599" type="line"/>
    </contour>
  </outline>
</glyph>
<glyph name="Eth" format="2">
  <advance width="1300"/>
  <unicode hex="00D0"/>
  <outline>
    <contour>
      <point x="0" y="855" type="line" name="hr00"/>
      <point x="200" y="855" type="line"/>
      <point x="200" y="1290" type="line"/>
      <point x="170" y="1500" type="line"/>
      <point x="201" y="1503"/>
      <point x="287" y="1507"/>
      <point x="378" y="1510"/>
      <point x="467" y="1511"/>
      <point x="500" y="1511" type="qcurve"/>
      <point x="659" y="1511"/>
      <point x="930" y="1433"/>
      <point x="1128" y="1263"/>
      <point x="1240" y="997"/>
      <point x="1240" y="810" type="qcurve"/>
      <point x="1240" y="664"/>
      <point x="1184" y="431"/>
      <point x="1085" y="251"/>
      <point x="946" y="122"/>
      <point x="779" y="39"/>
      <point x="591" y="0"/>
      <point x="491" y="0" type="qcurve"/>
      <point x="200" y="0" type="line"/>
      <point x="200" y="700" type="line"/>
      <point x="0" y="700" type="line"/>
    </contour>
    <contour>
      <point x="410" y="1150" type="line"/>
      <point x="410" y="855" type="line"/>
      <point x="600" y="855" type="line"/>
      <point x="600" y="700" type="line"/>
      <point x="410" y="700" type="line"/>
      <point x="410" y="160" type="line"/>
      <point x="430" y="160" type="line"/>
      <point x="575" y="160"/>
      <point x="777" y="220"/>
      <point x="910" y="319"/>
      <point x="985" y="448"/>
      <point x="1022" y="586"/>
      <point x="1030" y="722"/>
      <point x="1030" y="780" type="qcurve"/>
      <point x="1030" y="907"/>
      <point x="986" y="1120"/>
      <point x="868" y="1273"/>
      <point x="657" y="1358"/>
      <point x="491" y="1358" type="qcurve"/>
      <point x="475" y="1358"/>
      <point x="439" y="1356"/>
      <point x="423" y="1354" type="qcurve"/>
      <point x="405" y="1352"/>
      <point x="385" y="1350" type="qcurve"/>
    </contour>
  </outline>
</glyph>
<glyph name="Thorn" format="2">
  <advance width="1300"/>
  <unicode hex="00DE"/>
  <outline>
    <contour>
      <point x="180" y="1500" type="line" name="hr00"/>
      <point x="400" y="1500" type="line"/>
      <point x="400" y="1301" type="line"/>
      <point x="600" y="1301" type="line"/>
      <point x="646" y="1301"/>
      <point x="748" y="1283"/>
      <point x="848" y="1244"/>
      <point x="939" y="1181"/>
      <point x="1009" y="1089"/>
      <point x="1050" y="967"/>
      <point x="1050" y="889" type="qcurve"/>
      <point x="1050" y="831"/>
      <point x="1035" y="707"/>
      <point x="988" y="592"/>
      <point x="902" y="492"/>
      <point x="830" y="457" type="qcurve"/>
      <point x="780" y="433"/>
      <point x="653" y="401"/>
      <point x="560" y="401" type="qcurve"/>
      <point x="400" y="401" type="line"/>
      <point x="400" y="0" type="line"/>
      <point x="200" y="0" type="line"/>
      <point x="200" y="1299" type="line"/>
    </contour>
    <contour>
      <point x="400" y="1151" type="line"/>
      <point x="400" y="557" type="line"/>
      <point x="589" y="557" type="line"/>
      <point x="662" y="557"/>
      <point x="768" y="608"/>
      <point x="837" y="697"/>
      <point x="870" y="818"/>
      <point x="870" y="889" type="qcurve"/>
      <point x="870" y="951"/>
      <point x="828" y="1049"/>
      <point x="749" y="1116"/>
      <point x="638" y="1151"/>
      <point x="569" y="1151" type="qcurve"/>
    </contour>
  </outline>
</glyph>
<glyph name="igrave" format="2">
  <advance width="600"/>
  <unicode hex="00EC"/>
  <outline>
    <contour>
      <point x="390" y="0" type="line"/>
      <point x="200" y="0" type="line"/>
      <point x="200" y="1055" type="line"/>
      <point x="390" y="1075" type="line"/>
    </contour>
    <component base="grave" xOffset="-200"/>
  </outline>
</glyph>
<glyph name="divide" format="2">
  <advance width="1100"/>
  <unicode hex="00F7"/>
  <outline>
    <contour>
      <point x="441" y="307" type="qcurve"/>
      <point x="441" y="329"/>
      <point x="458" y="368"/>
      <point x="488" y="398"/>
      <point x="527" y="415"/>
      <point x="549" y="415" type="qcurve"/>
      <point x="571" y="415"/>
      <point x="610" y="398"/>
      <point x="640" y="368"/>
      <point x="657" y="329"/>
      <point x="657" y="307" type="qcurve"/>
      <point x="657" y="285"/>
      <point x="640" y="245"/>
      <point x="611" y="215"/>
      <point x="572" y="197"/>
      <point x="550" y="197" type="qcurve"/>
      <point x="528" y="197"/>
      <point x="488" y="215"/>
      <point x="458" y="245"/>
      <point x="441" y="285"/>
    </contour>
    <contour>
      <point x="441" y="920" type="qcurve"/>
      <point x="441" y="942"/>
      <point x="458" y="981"/>
      <point x="488" y="1011"/>
      <point x="527" y="1028"/>
      <point x="549" y="1028" type="qcurve"/>
      <point x="571" y="1028"/>
      <point x="610" y="1011"/>
      <point x="640" y="981"/>
      <point x="657" y="942"/>
      <point x="657" y="920" type="qcurve"/>
      <point x="657" y="898"/>
      <point x="640" y="858"/>
      <point x="611" y="828"/>
      <point x="572" y="810"/>
      <point x="550" y="810" type="qcurve"/>
      <point x="528" y="810"/>
      <point x="488" y="828"/>
      <point x="458" y="858"/>
      <point x="441" y="898"/>
    </contour>
    <component base="minus"/>
  </outline>
</glyph>
<glyph name="oslash" format="2">
  <advance width="1200"/>
  <unicode hex="00F8"/>
  <outline>
    <contour>
      <point x="311" y="-100" type="line"/>
      <point x="101" y="-100" type="line"/>
      <point x="901" y="1209" type="line"/>
      <point x="1101" y="1209" type="line"/>
    </contour>
    <component base="o"/>
  </outline>
</glyph>
<glyph name="OE" format="2">
  <advance width="2000"/>
  <unicode hex="0152"/>
  <outline>
    <contour>
      <point x="800" y="-17" type="line" name="hr00"/>
      <point x="642" y="-17"/>
      <point x="392" y="99"/>
      <point x="217" y="304"/>
      <point x="124" y="585"/>
      <point x="124" y="750" type="qcurve"/>
      <point x="124" y="915"/>
      <point x="214" y="1196"/>
      <point x="387" y="1401"/>
      <point x="639" y="1517"/>
      <point x="800" y="1517" type="qcurve"/>
      <point x="980" y="1430" type="line"/>
      <point x="970" y="1500" type="line"/>
      <point x="1810" y="1500" type="line"/>
      <point x="1810" y="1340" type="line"/>
      <point x="1180" y="1340" type="line"/>
      <point x="1200" y="1150" type="line"/>
      <point x="1200" y="885" type="line"/>
      <point x="1740" y="885" type="line"/>
      <point x="1740" y="740" type="line"/>
      <point x="1200" y="740" type="line"/>
      <point x="1200" y="340" type="line"/>
      <point x="1190" y="160" type="line"/>
      <point x="1845" y="160" type="line"/>
      <point x="1825" y="0" type="line"/>
      <point x="970" y="0" type="line"/>
      <point x="980" y="70" type="line"/>
    </contour>
    <contour>
      <point x="990" y="1305" type="line"/>
      <point x="968" y="1315"/>
      <point x="948" y="1322" type="qcurve"/>
      <point x="880" y="1347"/>
      <point x="794" y="1347" type="qcurve"/>
      <point x="671" y="1347"/>
      <point x="496" y="1252"/>
      <point x="384" y="1094"/>
      <point x="332" y="892"/>
      <point x="332" y="785" type="qcurve"/>
      <point x="332" y="704"/>
      <point x="355" y="548"/>
      <point x="403" y="407"/>
      <point x="478" y="288"/>
      <point x="583" y="202"/>
      <point x="720" y="153"/>
      <point x="806" y="153" type="qcurve"/>
      <point x="887" y="153"/>
      <point x="953" y="175" type="qcurve"/>
      <point x="971" y="182"/>
      <point x="990" y="190" type="qcurve"/>
    </contour>
  </outline>
</glyph>
<glyph name="oe" format="2">
  <advance width="1900"/>
  <unicode hex="0153"/>
  <outline>
    <contour>
      <point x="1096" y="631" type="line"/>
      <point x="1221" y="650" type="line"/>
      <point x="1586" y="650" type="line"/>
      <point x="1587" y="665"/>
      <point x="1588" y="680"/>
      <point x="1588" y="694" type="curve" smooth="yes"/>
      <point x="1588" y="845"/>
      <point x="1521" y="958"/>
      <point x="1371" y="958" type="curve" smooth="yes"/>
      <point x="1193" y="958"/>
      <point x="1123" y="829"/>
      <point x="1095" y="732" type="curve"/>
      <point x="1043" y="623" type="line"/>
    </contour>
    <contour>
      <point x="896" y="572" type="curve" smooth="yes"/>
      <point x="896" y="769"/>
      <point x="828" y="962"/>
      <point x="595" y="962" type="curve" smooth="yes"/>
      <point x="381" y="962"/>
      <point x="290" y="769"/>
      <point x="290" y="572" type="curve" smooth="yes"/>
      <point x="290" y="355"/>
      <point x="373" y="138"/>
      <point x="594" y="138" type="curve" smooth="yes"/>
      <point x="819" y="138"/>
      <point x="896" y="355"/>
    </contour>
    <contour>
      <point x="1356" y="1117" type="curve" smooth="yes"/>
      <point x="1640" y="1117"/>
      <point x="1776" y="926"/>
      <point x="1776" y="638" type="curve" smooth="yes"/>
      <point x="1776" y="597"/>
      <point x="1773" y="544"/>
      <point x="1768" y="500" type="curve"/>
      <point x="1076" y="500" type="line"/>
      <point x="1076" y="466"/>
      <point x="1079" y="434"/>
      <point x="1085" y="403" type="curve" smooth="yes"/>
      <point x="1116" y="251"/>
      <point x="1218" y="143"/>
      <point x="1361" y="143" type="curve" smooth="yes"/>
      <point x="1531" y="143"/>
      <point x="1612" y="203"/>
      <point x="1643" y="225" type="curve"/>
      <point x="1752" y="129" type="line"/>
      <point x="1669" y="43"/>
      <point x="1560" y="-17"/>
      <point x="1381" y="-17" type="curve" smooth="yes"/>
      <point x="1216" y="-17"/>
      <point x="1098" y="41"/>
      <point x="1018" y="133" type="curve"/>
      <point x="986" y="215" type="line"/>
      <point x="954" y="136" type="line"/>
      <point x="868" y="40"/>
      <point x="746" y="-17"/>
      <point x="599" y="-17" type="curve" smooth="yes"/>
      <point x="304" y="-17"/>
      <point x="100" y="230"/>
      <point x="100" y="553" type="curve" smooth="yes"/>
      <point x="100" y="876"/>
      <point x="294" y="1117"/>
      <point x="599" y="1117" type="curve" smooth="yes"/>
      <point x="743" y="1117"/>
      <point x="866" y="1059"/>
      <point x="954" y="963" type="curve"/>
      <point x="985" y="885" type="line"/>
      <point x="1018" y="961" type="line"/>
      <point x="1094" y="1063"/>
      <point x="1219" y="1117"/>
    </contour>
  </outline>
</glyph>
<glyph name="circumflex" format="2">
  <advance width="1100"/>
  <unicode hex="02C6"/>
  <outline>
    <contour>
      <point x="780" y="1220" type="line" name="av01"/>
      <point x="630" y="1220" type="line"/>
      <point x="530" y="1372" type="line"/>
      <point x="500" y="1460" type="line" name="iv01"/>
      <point x="470" y="1373" type="line"/>
      <point x="369" y="1220" type="line" name="av02"/>
      <point x="219" y="1220" type="line"/>
      <point x="395" y="1500" type="line"/>
      <point x="595" y="1520" type="line" name="at01"/>
    </contour>
  </outline>
</glyph>
<glyph name="caron" format="2">
  <advance width="1100"/>
  <unicode hex="02C7"/>
  <outline>
    <contour>
      <point x="780" y="1520" type="line" name="hr00"/>
      <point x="630" y="1520" type="line"/>
      <point x="520" y="1388" type="line"/>
      <point x="500" y="1310" type="line"/>
      <point x="480" y="1387" type="line"/>
      <point x="369" y="1520" type="line"/>
      <point x="219" y="1520" type="line"/>
      <point x="395" y="1240" type="line"/>
      <point x="595" y="1220" type="line"/>
    </contour>
  </outline>
</glyph>
<glyph name="Gamma" format="2">
  <advance width="1100"/>
  <unicode hex="0393"/>
  <outline>
    <contour>
      <point x="400" y="1150" type="line" name="hr00"/>
      <point x="400" y="0" type="line" name="dh02"/>
      <point x="200" y="0" type="line" name="dh01"/>
      <point x="200" y="1300" type="line"/>
      <point x="183" y="1500" type="line" name="at01"/>
      <point x="1020" y="1500" type="line"/>
      <point x="1020" y="1350" type="line" name="sv01"/>
      <point x="385" y="1350" type="line"/>
    </contour>
  </outline>
</glyph>
<glyph name="Deltagreek" format="2">
  <advance width="1500"/>
  <unicode hex="0394"/>
  <outline>
    <contour>
      <point x="1485" y="0" type="line" name="ab01"/>
      <point x="13" y="0" type="line"/>
      <point x="636" y="1500" type="line"/>
      <point x="854" y="1523" type="line" name="at01"/>
    </contour>
    <contour>
      <point x="1158" y="160" type="line"/>
      <point x="1281" y="108" type="line" name="iv01"/>
      <point x="1199" y="200" type="line"/>
      <point x="783" y="1258" type="line"/>
      <point x="748" y="1425" type="line" name="iv02"/>
      <point x="713" y="1258" type="line"/>
      <point x="297" y="200" type="line"/>
      <point x="212" y="108" type="line" name="iv03"/>
      <point x="338" y="160" type="line"/>
    </contour>
  </outline>
</glyph>
<glyph name="Theta" format="2">
  <advance width="1600"/>
  <unicode hex="0398"/>
  <outline>
    <contour>
      <point x="520" y="835" type="line"/>
      <point x="1100" y="835" type="line"/>
      <point x="1080" y="665" type="line"/>
      <point x="500" y="665" type="line"/>
    </contour>
    <component base="O"/>
  </outline>
</glyph>
<glyph name="Sigma" format="2">
  <advance width="1200"/>
  <unicode hex="03A3"/>
  <outline>
    <contour>
      <point x="830" y="700" type="line" name="hr00"/>
      <point x="473" y="317" type="line"/>
      <point x="246" y="125" type="line"/>
      <point x="495" y="170" type="line"/>
      <point x="1101" y="170" type="line"/>
      <point x="1101" y="0" type="line"/>
      <point x="80" y="0" type="line"/>
      <point x="100" y="183" type="line"/>
      <point x="600" y="700" type="line"/>
      <point x="753" y="750" type="line"/>
      <point x="600" y="800" type="line"/>
      <point x="100" y="1317" type="line"/>
      <point x="80" y="1500" type="line"/>
      <point x="1101" y="1500" type="line"/>
      <point x="1101" y="1330" type="line"/>
      <point x="495" y="1330" type="line"/>
      <point x="246" y="1375" type="line"/>
      <point x="473" y="1183" type="line"/>
      <point x="830" y="800" type="line"/>
    </contour>
  </outline>
</glyph>
<glyph name="Phi" format="2">
  <advance width="1400"/>
  <unicode hex="03A6"/>
  <outline>
    <contour>
      <point x="600" y="204" type="line" name="av03"/>
      <point x="529" y="213"/>
      <point x="462" y="233" type="qcurve"/>
      <point x="348" y="268"/>
      <point x="174" y="405"/>
      <point x="71" y="612"/>
      <point x="71" y="750" type="qcurve" name="sh02"/>
      <point x="71" y="888"/>
      <point x="174" y="1094"/>
      <point x="348" y="1232"/>
      <point x="462" y="1266" type="qcurve"/>
      <point x="529" y="1287"/>
      <point x="600" y="1295" type="qcurve" name="av02"/>
      <point x="600" y="1500" type="line" name="sh03"/>
      <point x="799" y="1520" type="line" name="at01"/>
      <point x="799" y="1295" type="line" name="av01"/>
      <point x="870" y="1287"/>
      <point x="938" y="1266" type="qcurve"/>
      <point x="1052" y="1232"/>
      <point x="1227" y="1094"/>
      <point x="1331" y="888"/>
      <point x="1331" y="750" type="qcurve" name="sh06"/>
      <point x="1331" y="612"/>
      <point x="1227" y="405"/>
      <point x="1053" y="268"/>
      <point x="939" y="233" type="qcurve"/>
      <point x="871" y="213"/>
      <point x="799" y="204" type="qcurve" name="av04"/>
      <point x="799" y="0" type="line"/>
      <point x="600" y="0" type="line" name="sh07"/>
    </contour>
    <contour>
      <point x="867" y="1123" type="qcurve"/>
      <point x="833" y="1133"/>
      <point x="799" y="1139" type="qcurve" name="sv01"/>
      <point x="799" y="361" type="line" name="sh04"/>
      <point x="832" y="366"/>
      <point x="865" y="376" type="qcurve"/>
      <point x="946" y="399"/>
      <point x="1074" y="497"/>
      <point x="1152" y="646"/>
      <point x="1152" y="750" type="qcurve" name="sh05"/>
      <point x="1152" y="853"/>
      <point x="1075" y="1003"/>
      <point x="949" y="1100"/>
    </contour>
    <contour>
      <point x="535" y="376" type="qcurve"/>
      <point x="567" y="367"/>
      <point x="600" y="361" type="qcurve" name="ah01"/>
      <point x="600" y="1139" type="line" name="ah02"/>
      <point x="566" y="1133"/>
      <point x="533" y="1123" type="qcurve"/>
      <point x="452" y="1100"/>
      <point x="326" y="1003"/>
      <point x="249" y="853"/>
      <point x="249" y="750" type="qcurve" name="sh01"/>
      <point x="249" y="646"/>
      <point x="327" y="497"/>
      <point x="454" y="399"/>
    </contour>
  </outline>
</glyph>
<glyph name="beta" format="2">
  <advance width="1200"/>
  <unicode hex="03B2"/>
  <outline>
    <contour>
      <point x="622" y="-17" type="curve"/>
      <point x="681" y="-17"/>
      <point x="804" y="4"/>
      <point x="909" y="49"/>
      <point x="1010" y="122"/>
      <point x="1084" y="224"/>
      <point x="1128" y="358"/>
      <point x="1128" y="443" type="qcurve"/>
      <point x="1128" y="533"/>
      <point x="1083" y="645"/>
      <point x="1005" y="727"/>
      <point x="902" y="784"/>
      <point x="844" y="802" type="qcurve"/>
      <point x="704" y="816" type="line"/>
      <point x="850" y="860" type="line"/>
      <point x="932" y="902"/>
      <point x="1032" y="1060"/>
      <point x="1032" y="1169" type="qcurve" smooth="yes"/>
      <point x="1032" y="1280"/>
      <point x="993" y="1343"/>
      <point x="937" y="1405" type="curve" smooth="yes"/>
      <point x="869" y="1480"/>
      <point x="773" y="1517"/>
      <point x="644" y="1517" type="curve" smooth="yes"/>
      <point x="511" y="1517"/>
      <point x="384" y="1482"/>
      <point x="308" y="1412" type="curve" smooth="yes"/>
      <point x="231" y="1341"/>
      <point x="200" y="1242"/>
      <point x="200" y="1111" type="curve" smooth="yes"/>
      <point x="200" y="-500" type="line"/>
      <point x="400" y="-517" type="line"/>
      <point x="400" y="15" type="line"/>
      <point x="445" y="-1"/>
      <point x="531" y="-17"/>
    </contour>
    <contour>
      <point x="390" y="1160" type="line"/>
      <point x="390" y="1307"/>
      <point x="516" y="1369"/>
      <point x="641" y="1369" type="curve" smooth="yes"/>
      <point x="751" y="1369"/>
      <point x="850" y="1270"/>
      <point x="850" y="1148" type="curve"/>
      <point x="850" y="1077"/>
      <point x="795" y="977"/>
      <point x="705" y="914"/>
      <point x="549" y="885"/>
      <point x="470" y="885" type="qcurve"/>
      <point x="554" y="730" type="line"/>
      <point x="760" y="730"/>
      <point x="938" y="633"/>
      <point x="938" y="433" type="curve" smooth="yes"/>
      <point x="938" y="223"/>
      <point x="793" y="143"/>
      <point x="594" y="143" type="curve" smooth="yes"/>
      <point x="515" y="143"/>
      <point x="427" y="173"/>
      <point x="390" y="200" type="curve"/>
    </contour>
  </outline>
</glyph>
<glyph name="zeta" format="2">
  <advance width="1000"/>
  <unicode hex="03B6"/>
  <outline>
    <contour>
      <point x="920" y="1500" type="line"/>
      <point x="900" y="1342" type="line"/>
      <point x="660" y="1142"/>
      <point x="312" y="817"/>
      <point x="312" y="517" type="curve" smooth="yes"/>
      <point x="312" y="379"/>
      <point x="343" y="275"/>
      <point x="517" y="164" type="curve" smooth="yes"/>
      <point x="702" y="46"/>
      <point x="896" y="4"/>
      <point x="896" y="-203" type="curve" smooth="yes"/>
      <point x="896" y="-336"/>
      <point x="780" y="-451"/>
      <point x="634" y="-517" type="curve"/>
      <point x="544" y="-386" type="line"/>
      <point x="629" y="-342"/>
      <point x="700" y="-286"/>
      <point x="700" y="-222" type="curve" smooth="yes"/>
      <point x="700" y="-102"/>
      <point x="549" y="-56"/>
      <point x="400" y="30" type="curve" smooth="yes"/>
      <point x="213" y="138"/>
      <point x="115" y="279"/>
      <point x="115" y="492" type="curve" smooth="yes"/>
      <point x="115" y="795"/>
      <point x="310" y="1083"/>
      <point x="445" y="1224" type="curve"/>
      <point x="708" y="1369" type="line"/>
      <point x="540" y="1342" type="line"/>
      <point x="180" y="1342" type="line"/>
      <point x="200" y="1500" type="line"/>
    </contour>
  </outline>
</glyph>
<glyph name="theta" format="2">
  <advance width="1200"/>
  <unicode hex="03B8"/>
  <outline>
    <contour>
      <point x="600" y="-17" type="curve" smooth="yes" name="hr00"/>
      <point x="230" y="-17"/>
      <point x="100" y="400"/>
      <point x="100" y="750" type="curve" smooth="yes"/>
      <point x="100" y="1101"/>
      <point x="229" y="1517"/>
      <point x="600" y="1517" type="curve" smooth="yes"/>
      <point x="970" y="1517"/>
      <point x="1100" y="1101"/>
      <point x="1100" y="750" type="curve" smooth="yes"/>
      <point x="1100" y="401"/>
      <point x="970" y="-17"/>
    </contour>
    <contour>
      <point x="282" y="820" type="curve"/>
      <point x="918" y="820" type="line"/>
      <point x="906" y="1056"/>
      <point x="822" y="1354"/>
      <point x="600" y="1354" type="curve" smooth="yes"/>
      <point x="378" y="1354"/>
      <point x="294" y="1056"/>
    </contour>
    <contour>
      <point x="282" y="670" type="line"/>
      <point x="297" y="437"/>
      <point x="380" y="146"/>
      <point x="600" y="146" type="curve" smooth="yes"/>
      <point x="803" y="146"/>
      <point x="890" y="392"/>
      <point x="917" y="670" type="curve"/>
    </contour>
  </outline>
</glyph>
<glyph name="kappa" format="2">
  <advance width="1000"/>
  <unicode hex="03BA"/>
  <outline>
    <contour>
      <point x="200" y="0" type="line" name="dh01"/>
      <point x="200" y="919" type="line"/>
      <point x="180" y="1099" type="line"/>
      <point x="380" y="1119" type="line" name="sh01"/>
      <point x="380" y="644" type="line" name="iv01"/>
      <point x="750" y="1100" type="line"/>
      <point x="950" y="1121" type="line" name="av01"/>
      <point x="600" y="670" type="line"/>
      <point x="446" y="600" type="line" name="iv02"/>
      <point x="600" y="530" type="line"/>
      <point x="1000" y="0" type="line" name="ab01"/>
      <point x="800" y="0" type="line"/>
      <point x="380" y="554" type="line" name="iv03"/>
      <point x="380" y="0" type="line" name="dh02"/>
    </contour>
  </outline>
</glyph>
<glyph name="mugreek" format="2">
  <advance width="1200"/>
  <unicode hex="03BC"/>
  <outline>
    <contour>
      <point x="200" y="1100" type="line" name="hr00"/>
      <point x="390" y="1120" type="line"/>
      <point x="390" y="406" type="line"/>
      <point x="390" y="358"/>
      <point x="397" y="259"/>
      <point x="428" y="178"/>
      <point x="516" y="127"/>
      <point x="596" y="127" type="qcurve"/>
      <point x="656" y="127"/>
      <point x="767" y="173"/>
      <point x="810" y="222" type="qcurve"/>
      <point x="810" y="1100" type="line"/>
      <point x="1000" y="1120" type="line"/>
      <point x="1000" y="0" type="line"/>
      <point x="810" y="0" type="line"/>
      <point x="810" y="129" type="line"/>
      <point x="759" y="67"/>
      <point x="652" y="5"/>
      <point x="559" y="-15"/>
      <point x="510" y="-15" type="qcurve"/>
      <point x="473" y="-15"/>
      <point x="399" y="-2"/>
      <point x="370" y="11" type="qcurve"/>
      <point x="390" y="-150" type="line"/>
      <point x="390" y="-500" type="line"/>
      <point x="200" y="-500" type="line"/>
    </contour>
  </outline>
</glyph>
<glyph name="nu" format="2">
  <advance width="1200"/>
  <unicode hex="03BD"/>
  <outline>
    <contour>
      <point x="724" y="0" type="line"/>
      <point x="1106" y="1100" type="line"/>
      <point x="915" y="1100" type="line"/>
      <point x="638" y="295" type="line"/>
      <point x="590" y="75" type="line"/>
      <point x="544" y="295" type="line"/>
      <point x="267" y="1100" type="line"/>
      <point x="74" y="1100" type="line"/>
      <point x="457" y="0" type="line"/>
    </contour>
  </outline>
</glyph>
<glyph name="sigma1" format="2">
  <advance width="1000"/>
  <unicode hex="03C2"/>
  <outline>
    <contour>
      <point x="700" y="885" type="line"/>
      <point x="250" y="885"/>
      <point x="116" y="666"/>
      <point x="116" y="437" type="curve" smooth="yes"/>
      <point x="116" y="238"/>
      <point x="276" y="100"/>
      <point x="400" y="30" type="curve" smooth="yes"/>
      <point x="550" y="-55"/>
      <point x="700" y="-102"/>
      <point x="700" y="-222" type="curve" smooth="yes"/>
      <point x="700" y="-286"/>
      <point x="629" y="-342"/>
      <point x="544" y="-386" type="curve"/>
      <point x="634" y="-517" type="line"/>
      <point x="780" y="-451"/>
      <point x="896" y="-336"/>
      <point x="896" y="-203" type="curve" smooth="yes"/>
      <point x="896" y="4"/>
      <point x="707" y="55"/>
      <point x="517" y="164" type="curve" smooth="yes"/>
      <point x="379" y="243"/>
      <point x="321" y="354"/>
      <point x="321" y="447" type="curve" smooth="yes"/>
      <point x="321" y="720"/>
      <point x="601" y="739"/>
      <point x="805" y="739" type="curve"/>
      <point x="830" y="885" type="line"/>
    </contour>
  </outline>
</glyph>
<glyph name="tau" format="2">
  <advance width="1100"/>
  <unicode hex="03C4"/>
  <outline>
    <contour>
      <point x="980" y="942" type="line"/>
      <point x="1000" y="1100" type="line"/>
      <point x="120" y="1100" type="line"/>
      <point x="100" y="942" type="line"/>
      <point x="467" y="942" type="line"/>
      <point x="467" y="303" type="line" smooth="yes"/>
      <point x="467" y="150"/>
      <point x="482" y="47"/>
      <point x="547" y="0" type="curve"/>
      <point x="758" y="0" type="line"/>
      <point x="679" y="108"/>
      <point x="659" y="164"/>
      <point x="659" y="265" type="curve" smooth="yes"/>
      <point x="659" y="942" type="line"/>
    </contour>
  </outline>
</glyph>
<glyph name="upsilon" format="2">
  <advance width="1200"/>
  <unicode hex="03C5"/>
  <outline>
    <contour>
      <point x="400" y="497" type="line"/>
      <point x="400" y="300"/>
      <point x="445" y="129"/>
      <point x="650" y="129" type="curve" smooth="yes"/>
      <point x="861" y="129"/>
      <point x="900" y="306"/>
      <point x="900" y="497" type="curve"/>
      <point x="900" y="732" type="line"/>
      <point x="900" y="946"/>
      <point x="762" y="1007"/>
      <point x="700" y="1007" type="curve"/>
      <point x="700" y="1117" type="line"/>
      <point x="921" y="1117"/>
      <point x="1090" y="983"/>
      <point x="1090" y="759" type="curve" smooth="yes"/>
      <point x="1090" y="495" type="line"/>
      <point x="1090" y="337"/>
      <point x="1079" y="-17"/>
      <point x="650" y="-17" type="curve" smooth="yes"/>
      <point x="238" y="-17"/>
      <point x="212" y="326"/>
      <point x="212" y="495" type="curve"/>
      <point x="212" y="845" type="line"/>
      <point x="212" y="925"/>
      <point x="186" y="974"/>
      <point x="124" y="974" type="curve" smooth="yes"/>
      <point x="59" y="974"/>
      <point x="15" y="925"/>
      <point x="15" y="845" type="curve"/>
      <point x="-99" y="845" type="line"/>
      <point x="-99" y="980"/>
      <point x="-17" y="1117"/>
      <point x="132" y="1117" type="curve" smooth="yes"/>
      <point x="291" y="1117"/>
      <point x="400" y="1007"/>
      <point x="400" y="845" type="curve"/>
    </contour>
  </outline>
</glyph>
<glyph name="Upsilon1" format="2">
  <advance width="1300"/>
  <unicode hex="03D2"/>
  <guideline x="743" y="0" angle="90"/>
  <outline>
    <contour>
      <point x="1181" y="1517" type="curve" name="hr00"/>
      <point x="1181" y="1387" type="line"/>
      <point x="1181" y="1387"/>
      <point x="1100" y="1384"/>
      <point x="1053" y="1289" type="curve" smooth="yes"/>
      <point x="743" y="658" type="line"/>
      <point x="743" y="0" type="line"/>
      <point x="551" y="0" type="line"/>
      <point x="551" y="658" type="line"/>
      <point x="241" y="1289" type="line" smooth="yes"/>
      <point x="194" y="1384"/>
      <point x="113" y="1387"/>
      <point x="113" y="1387" type="curve"/>
      <point x="113" y="1517" type="line"/>
      <point x="213" y="1517"/>
      <point x="288" y="1504"/>
      <point x="380" y="1340" type="curve" smooth="yes"/>
      <point x="570" y="1000" type="line"/>
      <point x="651" y="751" type="line"/>
      <point x="651" y="751"/>
      <point x="724" y="1000"/>
      <point x="724" y="1000" type="curve"/>
      <point x="914" y="1340" type="line" smooth="yes"/>
      <point x="1006" y="1504"/>
      <point x="1081" y="1517"/>
    </contour>
  </outline>
</glyph>
<glyph name="omega1" format="2">
  <advance width="1600"/>
  <unicode hex="03D6"/>
  <outline>
    <contour>
      <point x="1520" y="1100" type="line"/>
      <point x="100" y="1100" type="line"/>
      <point x="80" y="942" type="line"/>
      <point x="278" y="942" type="line"/>
      <point x="170" y="885" type="line"/>
      <point x="128" y="810"/>
      <point x="104" y="723"/>
      <point x="104" y="495" type="curve"/>
      <point x="104" y="337"/>
      <point x="135" y="-17"/>
      <point x="504" y="-17" type="curve" smooth="yes"/>
      <point x="658" y="-17"/>
      <point x="734" y="40"/>
      <point x="793" y="120" type="curve"/>
      <point x="852" y="40"/>
      <point x="928" y="-17"/>
      <point x="1083" y="-17" type="curve" smooth="yes"/>
      <point x="1452" y="-17"/>
      <point x="1483" y="337"/>
      <point x="1483" y="495" type="curve" smooth="yes"/>
      <point x="1483" y="723"/>
      <point x="1459" y="810"/>
      <point x="1417" y="885" type="curve"/>
      <point x="1309" y="942" type="line"/>
      <point x="1500" y="942" type="line"/>
    </contour>
    <contour>
      <point x="700" y="745" type="line"/>
      <point x="700" y="482" type="line" smooth="yes"/>
      <point x="700" y="292"/>
      <point x="665" y="129"/>
      <point x="504" y="129" type="curve" smooth="yes"/>
      <point x="343" y="129"/>
      <point x="294" y="306"/>
      <point x="294" y="497" type="curve" smooth="yes"/>
      <point x="294" y="785"/>
      <point x="348" y="889"/>
      <point x="404" y="942" type="curve"/>
      <point x="1182" y="942" type="line"/>
      <point x="1238" y="889"/>
      <point x="1293" y="785"/>
      <point x="1293" y="497" type="curve"/>
      <point x="1293" y="306"/>
      <point x="1244" y="129"/>
      <point x="1083" y="129" type="curve" smooth="yes"/>
      <point x="922" y="129"/>
      <point x="887" y="292"/>
      <point x="887" y="482" type="curve" smooth="yes"/>
      <point x="887" y="725" type="line"/>
    </contour>
  </outline>
</glyph>
<glyph name="dblverticalbar" format="2">
  <advance width="800"/>
  <unicode hex="2016"/>
  <outline>
    <contour>
      <point x="355" y="1500" type="line"/>
      <point x="355" y="0" type="line"/>
      <point x="200" y="0" type="line"/>
      <point x="200" y="1500" type="line"/>
    </contour>
    <contour>
      <point x="655" y="1500" type="line"/>
      <point x="655" y="0" type="line"/>
      <point x="500" y="0" type="line"/>
      <point x="500" y="1500" type="line"/>
    </contour>
  </outline>
</glyph>
<glyph name="dagger" format="2">
  <advance width="1100"/>
  <unicode hex="2020"/>
  <outline>
    <contour>
      <point x="100" y="1049" type="line" name="at02"/>
      <point x="400" y="1049" type="line" name="dh01"/>
      <point x="400" y="1500" type="line"/>
      <point x="600" y="1520" type="line" name="at01"/>
      <point x="600" y="1049" type="line" name="dh02"/>
      <point x="920" y="1049" type="line"/>
      <point x="900" y="900" type="line" name="sv01"/>
      <point x="600" y="900" type="line" name="sh01"/>
      <point x="600" y="-400" type="line" name="av01"/>
      <point x="400" y="-400" type="line" name="sh02"/>
      <point x="400" y="900" type="line" name="sv02"/>
      <point x="100" y="900" type="line" name="sv03"/>
    </contour>
  </outline>
</glyph>
<glyph name="daggerdbl" format="2">
  <advance width="1000"/>
  <unicode hex="2021"/>
  <outline>
    <contour>
      <point x="100" y="1049" type="line" name="at02"/>
      <point x="400" y="1049" type="line" name="dh01"/>
      <point x="400" y="1500" type="line"/>
      <point x="600" y="1520" type="line" name="at01"/>
      <point x="600" y="1049" type="line" name="dh02"/>
      <point x="920" y="1049" type="line"/>
      <point x="900" y="900" type="line" name="sv01"/>
      <point x="600" y="900" type="line" name="sh01"/>
      <point x="600" y="300" type="line"/>
      <point x="900" y="300" type="line" name="dv02"/>
      <point x="900" y="150" type="line" name="dv01"/>
      <point x="600" y="150" type="line" name="sh02"/>
      <point x="600" y="-400" type="line" name="av01"/>
      <point x="400" y="-400" type="line" name="sh03"/>
      <point x="400" y="150" type="line" name="sv02"/>
      <point x="100" y="150" type="line"/>
      <point x="100" y="300" type="line" name="sv03"/>
      <point x="400" y="300" type="line" name="sh04"/>
      <point x="400" y="900" type="line" name="sv04"/>
      <point x="100" y="900" type="line" name="sv05"/>
    </contour>
  </outline>
</glyph>
<glyph name="foursuperior" format="2">
  <advance width="600"/>
  <unicode hex="2074"/>
  <outline>
    <contour>
      <point x="542" y="870" type="line" name="hr00"/>
      <point x="452" y="870" type="line"/>
      <point x="452" y="720" type="line"/>
      <point x="347" y="720" type="line"/>
      <point x="347" y="870" type="line"/>
      <point x="50" y="870" type="line"/>
      <point x="50" y="955" type="line"/>
      <point x="292" y="1480" type="line"/>
      <point x="386" y="1470" type="line"/>
      <point x="179" y="1020" type="line"/>
      <point x="132" y="950" type="line"/>
      <point x="347" y="950" type="line"/>
      <point x="347" y="1153" type="line"/>
      <point x="452" y="1145" type="line"/>
      <point x="452" y="950" type="line"/>
      <point x="550" y="950" type="line"/>
    </contour>
  </outline>
</glyph>
<glyph name="fivesuperior" format="2">
  <advance width="600"/>
  <unicode hex="2075"/>
  <outline>
    <contour>
      <point x="204" y="1211" type="line" name="hr00"/>
      <point x="207" y="1213"/>
      <point x="225" y="1222"/>
      <point x="251" y="1231"/>
      <point x="284" y="1237"/>
      <point x="305" y="1237" type="qcurve"/>
      <point x="357" y="1237"/>
      <point x="438" y="1205"/>
      <point x="495" y="1148"/>
      <point x="524" y="1072"/>
      <point x="524" y="1029" type="qcurve"/>
      <point x="524" y="979"/>
      <point x="488" y="893"/>
      <point x="426" y="825"/>
      <point x="342" y="773"/>
      <point x="248" y="737"/>
      <point x="148" y="720"/>
      <point x="100" y="720" type="qcurve"/>
      <point x="100" y="800" type="line"/>
      <point x="137" y="801"/>
      <point x="214" y="817"/>
      <point x="286" y="845"/>
      <point x="348" y="884"/>
      <point x="395" y="931"/>
      <point x="422" y="987"/>
      <point x="422" y="1019" type="qcurve"/>
      <point x="422" y="1044"/>
      <point x="405" y="1092"/>
      <point x="373" y="1130"/>
      <point x="324" y="1153"/>
      <point x="291" y="1153" type="qcurve"/>
      <point x="266" y="1153"/>
      <point x="225" y="1146"/>
      <point x="192" y="1137"/>
      <point x="169" y="1125"/>
      <point x="162" y="1120" type="qcurve"/>
      <point x="100" y="1120" type="line"/>
      <point x="100" y="1470" type="line"/>
      <point x="476" y="1470" type="line"/>
      <point x="476" y="1390" type="line"/>
      <point x="204" y="1390" type="line"/>
    </contour>
  </outline>
</glyph>
<glyph name="sixsuperior" format="2">
  <advance width="600"/>
  <unicode hex="2076"/>
  <outline>
    <contour>
      <point x="464" y="1392" type="line" name="hr00"/>
      <point x="461" y="1393"/>
      <point x="447" y="1393"/>
      <point x="442" y="1393" type="qcurve"/>
      <point x="406" y="1393"/>
      <point x="338" y="1371"/>
      <point x="278" y="1330"/>
      <point x="227" y="1273"/>
      <point x="189" y="1204"/>
      <point x="164" y="1126"/>
      <point x="160" y="1085" type="qcurve"/>
      <point x="201" y="1143" type="line"/>
      <point x="214" y="1151"/>
      <point x="247" y="1166"/>
      <point x="284" y="1177"/>
      <point x="322" y="1183"/>
      <point x="339" y="1183" type="qcurve"/>
      <point x="383" y="1183"/>
      <point x="463" y="1159"/>
      <point x="526" y="1109"/>
      <point x="563" y="1031"/>
      <point x="563" y="976" type="qcurve"/>
      <point x="563" y="922"/>
      <point x="527" y="826"/>
      <point x="461" y="753"/>
      <point x="369" y="711"/>
      <point x="313" y="711" type="qcurve"/>
      <point x="264" y="711"/>
      <point x="188" y="743"/>
      <point x="132" y="795"/>
      <point x="95" y="862"/>
      <point x="71" y="932"/>
      <point x="61" y="1001"/>
      <point x="61" y="1030" type="qcurve"/>
      <point x="61" y="1089"/>
      <point x="86" y="1202"/>
      <point x="132" y="1302"/>
      <point x="199" y="1385"/>
      <point x="285" y="1445"/>
      <point x="387" y="1478"/>
      <point x="446" y="1478" type="qcurve"/>
      <point x="454" y="1478"/>
      <point x="472" y="1478"/>
      <point x="477" y="1477" type="qcurve"/>
    </contour>
    <contour>
      <point x="164" y="1018" type="qcurve"/>
      <point x="164" y="1004"/>
      <point x="165" y="981"/>
      <point x="167" y="959"/>
      <point x="171" y="937"/>
      <point x="175" y="923" type="qcurve"/>
      <point x="182" y="895"/>
      <point x="206" y="848"/>
      <point x="240" y="815"/>
      <point x="286" y="796"/>
      <point x="314" y="796" type="qcurve"/>
      <point x="354" y="796"/>
      <point x="409" y="826"/>
      <point x="444" y="876"/>
      <point x="461" y="939"/>
      <point x="461" y="971" type="qcurve"/>
      <point x="461" y="1003"/>
      <point x="442" y="1051"/>
      <point x="408" y="1082"/>
      <point x="361" y="1098"/>
      <point x="332" y="1098" type="qcurve"/>
      <point x="305" y="1098"/>
      <point x="254" y="1085"/>
      <point x="209" y="1063"/>
      <point x="175" y="1034"/>
    </contour>
  </outline>
</glyph>
<glyph name="sevensuperior" format="2">
  <advance width="600"/>
  <unicode hex="2077"/>
  <outline>
    <contour>
      <point x="100" y="1470" type="line" name="hr00"/>
      <point x="550" y="1470" type="line"/>
      <point x="550" y="1405" type="line"/>
      <point x="550" y="1383"/>
      <point x="517" y="1316"/>
      <point x="467" y="1232"/>
      <point x="408" y="1135"/>
      <point x="354" y="1034"/>
      <point x="314" y="932"/>
      <point x="309" y="884" type="qcurve"/>
      <point x="306" y="864"/>
      <point x="304" y="820"/>
      <point x="302" y="777"/>
      <point x="302" y="737"/>
      <point x="302" y="720" type="qcurve"/>
      <point x="200" y="720" type="line"/>
      <point x="200" y="735"/>
      <point x="200" y="785"/>
      <point x="202" y="841"/>
      <point x="207" y="896"/>
      <point x="211" y="916" type="qcurve"/>
      <point x="222" y="969"/>
      <point x="265" y="1073"/>
      <point x="316" y="1168"/>
      <point x="369" y="1253"/>
      <point x="412" y="1323"/>
      <point x="439" y="1375"/>
      <point x="439" y="1390" type="qcurve"/>
      <point x="100" y="1390" type="line"/>
    </contour>
  </outline>
</glyph>
<glyph name="ninesuperior" format="2">
  <advance width="600"/>
  <unicode hex="2079"/>
  <outline>
    <contour>
      <point x="424" y="1051" type="line" name="hr00"/>
      <point x="394" y="1028"/>
      <point x="335" y="1006"/>
      <point x="297" y="1006" type="qcurve"/>
      <point x="248" y="1006"/>
      <point x="163" y="1039"/>
      <point x="100" y="1099"/>
      <point x="64" y="1183"/>
      <point x="64" y="1235" type="qcurve"/>
      <point x="64" y="1289"/>
      <point x="99" y="1378"/>
      <point x="162" y="1443"/>
      <point x="253" y="1478"/>
      <point x="309" y="1478" type="qcurve"/>
      <point x="359" y="1478"/>
      <point x="435" y="1447"/>
      <point x="491" y="1396"/>
      <point x="529" y="1330"/>
      <point x="551" y="1259"/>
      <point x="561" y="1189"/>
      <point x="561" y="1160" type="qcurve"/>
      <point x="561" y="1101"/>
      <point x="537" y="991"/>
      <point x="492" y="893"/>
      <point x="426" y="811"/>
      <point x="341" y="750"/>
      <point x="239" y="714"/>
      <point x="180" y="711" type="qcurve"/>
      <point x="165" y="795" type="line"/>
      <point x="225" y="798"/>
      <point x="330" y="849"/>
      <point x="411" y="933"/>
      <point x="460" y="1046"/>
      <point x="464" y="1110" type="qcurve"/>
    </contour>
    <contour>
      <point x="458" y="1196" type="qcurve"/>
      <point x="456" y="1234"/>
      <point x="437" y="1304"/>
      <point x="402" y="1360"/>
      <point x="349" y="1393"/>
      <point x="313" y="1393" type="qcurve"/>
      <point x="279" y="1393"/>
      <point x="225" y="1371"/>
      <point x="187" y="1332"/>
      <point x="166" y="1277"/>
      <point x="166" y="1244" type="qcurve"/>
      <point x="166" y="1212"/>
      <point x="183" y="1156"/>
      <point x="216" y="1115"/>
      <point x="268" y="1091"/>
      <point x="302" y="1091" type="qcurve"/>
      <point x="329" y="1091"/>
      <point x="377" y="1108"/>
      <point x="418" y="1137"/>
      <point x="449" y="1175"/>
    </contour>
  </outline>
</glyph>
<glyph name="nsuperior" format="2">
  <advance width="600"/>
  <unicode hex="207F"/>
  <outline>
    <contour>
      <point x="195" y="720" type="line" name="hr00"/>
      <point x="100" y="720" type="line"/>
      <point x="100" y="1270" type="line"/>
      <point x="195" y="1280" type="line"/>
      <point x="195" y="1188" type="line"/>
      <point x="225" y="1242" type="line"/>
      <point x="234" y="1248"/>
      <point x="262" y="1261"/>
      <point x="297" y="1271"/>
      <point x="337" y="1278"/>
      <point x="357" y="1278" type="qcurve"/>
      <point x="397" y="1278"/>
      <point x="451" y="1253"/>
      <point x="485" y="1205"/>
      <point x="500" y="1137"/>
      <point x="500" y="1095" type="qcurve"/>
      <point x="500" y="720" type="line"/>
      <point x="405" y="720" type="line"/>
      <point x="405" y="1095" type="line"/>
      <point x="405" y="1122"/>
      <point x="397" y="1161"/>
      <point x="379" y="1186"/>
      <point x="348" y="1198"/>
      <point x="325" y="1198" type="qcurve"/>
      <point x="308" y="1198"/>
      <point x="273" y="1188"/>
      <point x="239" y="1171"/>
      <point x="208" y="1151"/>
      <point x="195" y="1142" type="qcurve"/>
    </contour>
  </outline>
</glyph>
<glyph name="zeroinferior" format="2">
  <advance width="600"/>
  <unicode hex="2080"/>
  <outline>
    <contour>
      <point x="300" y="-509" type="qcurve" name="hr00"/>
      <point x="257" y="-509"/>
      <point x="186" y="-476"/>
      <point x="130" y="-420"/>
      <point x="87" y="-345"/>
      <point x="59" y="-260"/>
      <point x="45" y="-169"/>
      <point x="45" y="-125" type="qcurve"/>
      <point x="45" y="-80"/>
      <point x="57" y="12"/>
      <point x="83" y="97"/>
      <point x="123" y="171"/>
      <point x="180" y="226"/>
      <point x="253" y="258"/>
      <point x="300" y="258" type="qcurve"/>
      <point x="342" y="258"/>
      <point x="413" y="226"/>
      <point x="470" y="170"/>
      <point x="512" y="95"/>
      <point x="541" y="9"/>
      <point x="555" y="-82"/>
      <point x="555" y="-125" type="qcurve"/>
      <point x="555" y="-170"/>
      <point x="543" y="-262"/>
      <point x="517" y="-347"/>
      <point x="476" y="-422"/>
      <point x="420" y="-477"/>
      <point x="346" y="-509"/>
    </contour>
    <contour>
      <point x="148" y="-104" type="qcurve"/>
      <point x="148" y="-133"/>
      <point x="152" y="-202"/>
      <point x="164" y="-273"/>
      <point x="186" y="-339"/>
      <point x="220" y="-390"/>
      <point x="270" y="-421"/>
      <point x="304" y="-421" type="qcurve"/>
      <point x="334" y="-421"/>
      <point x="380" y="-398"/>
      <point x="413" y="-357"/>
      <point x="434" y="-304"/>
      <point x="446" y="-243"/>
      <point x="451" y="-178"/>
      <point x="451" y="-147" type="qcurve"/>
      <point x="451" y="-118"/>
      <point x="447" y="-48"/>
      <point x="435" y="22"/>
      <point x="414" y="88"/>
      <point x="379" y="139"/>
      <point x="330" y="170"/>
      <point x="296" y="170" type="qcurve"/>
      <point x="265" y="170"/>
      <point x="220" y="147"/>
      <point x="187" y="107"/>
      <point x="166" y="53"/>
      <point x="153" y="-8"/>
      <point x="148" y="-73"/>
    </contour>
  </outline>
</glyph>
<glyph name="oneinferior" format="2">
  <advance width="600"/>
  <unicode hex="2081"/>
  <outline>
    <contour>
      <point x="175" y="-500" type="line" name="hr00"/>
      <point x="175" y="-420" type="line"/>
      <point x="297" y="-420" type="line"/>
      <point x="297" y="63" type="line"/>
      <point x="326" y="176" type="line"/>
      <point x="258" y="83" type="line"/>
      <point x="152" y="-11" type="line"/>
      <point x="98" y="50" type="line"/>
      <point x="327" y="260" type="line"/>
      <point x="402" y="250" type="line"/>
      <point x="402" y="-420" type="line"/>
      <point x="525" y="-420" type="line"/>
      <point x="525" y="-500" type="line"/>
    </contour>
  </outline>
</glyph>
<glyph name="twoinferior" format="2">
  <advance width="600"/>
  <unicode hex="2082"/>
  <outline>
    <contour>
      <point x="76" y="-500" type="line" name="hr00"/>
      <point x="76" y="-416" type="line"/>
      <point x="100" y="-378"/>
      <point x="155" y="-305"/>
      <point x="212" y="-236"/>
      <point x="267" y="-175"/>
      <point x="290" y="-149" type="qcurve"/>
      <point x="315" y="-121"/>
      <point x="361" y="-72"/>
      <point x="396" y="-23"/>
      <point x="417" y="28"/>
      <point x="417" y="57" type="qcurve"/>
      <point x="417" y="81"/>
      <point x="399" y="124"/>
      <point x="367" y="155"/>
      <point x="322" y="174"/>
      <point x="295" y="174" type="qcurve"/>
      <point x="264" y="174"/>
      <point x="220" y="157"/>
      <point x="186" y="130"/>
      <point x="162" y="97"/>
      <point x="151" y="80" type="qcurve"/>
      <point x="81" y="110" type="line"/>
      <point x="94" y="142"/>
      <point x="134" y="197"/>
      <point x="189" y="236"/>
      <point x="259" y="258"/>
      <point x="302" y="258" type="qcurve"/>
      <point x="353" y="258"/>
      <point x="432" y="222"/>
      <point x="486" y="164"/>
      <point x="515" y="90"/>
      <point x="515" y="52" type="qcurve"/>
      <point x="515" y="13"/>
      <point x="486" y="-56"/>
      <point x="444" y="-119"/>
      <point x="395" y="-174"/>
      <point x="374" y="-198" type="qcurve"/>
      <point x="348" y="-228"/>
      <point x="296" y="-287"/>
      <point x="249" y="-344"/>
      <point x="208" y="-396"/>
      <point x="193" y="-420" type="qcurve"/>
      <point x="528" y="-420" type="line"/>
      <point x="528" y="-500" type="line"/>
    </contour>
  </outline>
</glyph>
<glyph name="threeinferior" format="2">
  <advance width="600"/>
  <unicode hex="2083"/>
  <outline>
    <contour>
      <point x="107" y="170" type="line" name="hr00"/>
      <point x="115" y="250" type="line"/>
      <point x="480" y="250" type="line"/>
      <point x="480" y="180" type="line"/>
      <point x="474" y="160"/>
      <point x="445" y="116"/>
      <point x="407" y="72"/>
      <point x="361" y="29"/>
      <point x="338" y="9" type="qcurve"/>
      <point x="272" y="-28" type="line"/>
      <point x="277" y="-27"/>
      <point x="293" y="-26"/>
      <point x="300" y="-26" type="qcurve"/>
      <point x="348" y="-26"/>
      <point x="432" y="-50"/>
      <point x="493" y="-99"/>
      <point x="529" y="-173"/>
      <point x="529" y="-224" type="qcurve"/>
      <point x="529" y="-272"/>
      <point x="493" y="-351"/>
      <point x="430" y="-413"/>
      <point x="346" y="-457"/>
      <point x="251" y="-486"/>
      <point x="149" y="-500"/>
      <point x="100" y="-500" type="qcurve"/>
      <point x="100" y="-420" type="line"/>
      <point x="141" y="-419"/>
      <point x="221" y="-407"/>
      <point x="293" y="-385"/>
      <point x="354" y="-354"/>
      <point x="399" y="-313"/>
      <point x="424" y="-261"/>
      <point x="424" y="-229" type="qcurve"/>
      <point x="424" y="-193"/>
      <point x="393" y="-145"/>
      <point x="340" y="-117"/>
      <point x="269" y="-105"/>
      <point x="228" y="-105" type="qcurve"/>
      <point x="212" y="-105"/>
      <point x="174" y="-107"/>
      <point x="159" y="-108" type="qcurve"/>
      <point x="159" y="-30" type="line"/>
      <point x="180" y="-15"/>
      <point x="228" y="23"/>
      <point x="277" y="64"/>
      <point x="323" y="107"/>
      <point x="361" y="145"/>
      <point x="387" y="178"/>
      <point x="391" y="190" type="qcurve"/>
      <point x="315" y="170" type="line"/>
    </contour>
  </outline>
</glyph>
<glyph name="fourinferior" format="2">
  <advance width="600"/>
  <unicode hex="2084"/>
  <outline>
    <contour>
      <point x="542" y="-350" type="line" name="hr00"/>
      <point x="452" y="-350" type="line"/>
      <point x="452" y="-500" type="line"/>
      <point x="347" y="-500" type="line"/>
      <point x="347" y="-350" type="line"/>
      <point x="50" y="-350" type="line"/>
      <point x="50" y="-265" type="line"/>
      <point x="292" y="260" type="line"/>
      <point x="386" y="250" type="line"/>
      <point x="179" y="-200" type="line"/>
      <point x="132" y="-270" type="line"/>
      <point x="347" y="-270" type="line"/>
      <point x="347" y="-67" type="line"/>
      <point x="452" y="-75" type="line"/>
      <point x="452" y="-270" type="line"/>
      <point x="550" y="-270" type="line"/>
    </contour>
  </outline>
</glyph>
<glyph name="fiveinferior" format="2">
  <advance width="600"/>
  <unicode hex="2085"/>
  <outline>
    <contour>
      <point x="204" y="-9" type="line" name="hr00"/>
      <point x="207" y="-7"/>
      <point x="225" y="2"/>
      <point x="251" y="11"/>
      <point x="284" y="17"/>
      <point x="305" y="17" type="qcurve"/>
      <point x="357" y="17"/>
      <point x="438" y="-15"/>
      <point x="495" y="-72"/>
      <point x="524" y="-148"/>
      <point x="524" y="-191" type="qcurve"/>
      <point x="524" y="-241"/>
      <point x="488" y="-327"/>
      <point x="426" y="-395"/>
      <point x="342" y="-447"/>
      <point x="248" y="-483"/>
      <point x="148" y="-500"/>
      <point x="100" y="-500" type="qcurve"/>
      <point x="100" y="-420" type="line"/>
      <point x="137" y="-419"/>
      <point x="214" y="-403"/>
      <point x="286" y="-375"/>
      <point x="348" y="-336"/>
      <point x="395" y="-289"/>
      <point x="422" y="-233"/>
      <point x="422" y="-201" type="qcurve"/>
      <point x="422" y="-176"/>
      <point x="405" y="-128"/>
      <point x="373" y="-90"/>
      <point x="324" y="-67"/>
      <point x="291" y="-67" type="qcurve"/>
      <point x="266" y="-67"/>
      <point x="225" y="-74"/>
      <point x="192" y="-83"/>
      <point x="169" y="-95"/>
      <point x="162" y="-100" type="qcurve"/>
      <point x="100" y="-100" type="line"/>
      <point x="100" y="250" type="line"/>
      <point x="476" y="250" type="line"/>
      <point x="476" y="170" type="line"/>
      <point x="204" y="170" type="line"/>
    </contour>
  </outline>
</glyph>
<glyph name="seveninferior" format="2">
  <advance width="600"/>
  <unicode hex="2087"/>
  <outline>
    <contour>
      <point x="100" y="250" type="line" name="hr00"/>
      <point x="550" y="250" type="line"/>
      <point x="550" y="185" type="line"/>
      <point x="550" y="163"/>
      <point x="517" y="96"/>
      <point x="467" y="12"/>
      <point x="408" y="-85"/>
      <point x="354" y="-186"/>
      <point x="314" y="-288"/>
      <point x="309" y="-336" type="qcurve"/>
      <point x="306" y="-356"/>
      <point x="304" y="-400"/>
      <point x="302" y="-443"/>
      <point x="302" y="-483"/>
      <point x="302" y="-500" type="qcurve"/>
      <point x="200" y="-500" type="line"/>
      <point x="200" y="-485"/>
      <point x="200" y="-435"/>
      <point x="202" y="-379"/>
      <point x="207" y="-324"/>
      <point x="211" y="-304" type="qcurve"/>
      <point x="222" y="-251"/>
      <point x="265" y="-147"/>
      <point x="316" y="-52"/>
      <point x="369" y="33"/>
      <point x="412" y="103"/>
      <point x="439" y="155"/>
      <point x="439" y="170" type="qcurve"/>
      <point x="100" y="170" type="line"/>
    </contour>
  </outline>
</glyph>
<glyph name="lsquare" format="2">
  <advance width="900"/>
  <unicode hex="2113"/>
  <outline>
    <contour>
      <point x="100" y="540" type="line"/>
      <point x="200" y="540" type="line"/>
      <point x="200" y="1000" type="line" smooth="yes"/>
      <point x="200" y="1300"/>
      <point x="274" y="1517"/>
      <point x="540" y="1517" type="curve" smooth="yes"/>
      <point x="690" y="1517"/>
      <point x="800" y="1400"/>
      <point x="800" y="1100" type="curve" smooth="yes"/>
      <point x="800" y="800"/>
      <point x="800" y="400"/>
      <point x="500" y="400" type="curve" smooth="yes"/>
      <point x="400" y="400" type="line"/>
      <point x="400" y="383" type="line" smooth="yes"/>
      <point x="400" y="310"/>
      <point x="405" y="250"/>
      <point x="426" y="207" type="curve" smooth="yes"/>
      <point x="437" y="186"/>
      <point x="452" y="168"/>
      <point x="471" y="155" type="curve" smooth="yes"/>
      <point x="491" y="142"/>
      <point x="513" y="133"/>
      <point x="537" y="130" type="curve" smooth="yes"/>
      <point x="562" y="127"/>
      <point x="577" y="126"/>
      <point x="582" y="126" type="curve" smooth="yes"/>
      <point x="615" y="126"/>
      <point x="666" y="138"/>
      <point x="691" y="153" type="curve"/>
      <point x="774" y="30" type="line"/>
      <point x="717" y="3"/>
      <point x="651" y="-17"/>
      <point x="530" y="-17" type="curve" smooth="yes"/>
      <point x="274" y="-17"/>
      <point x="200" y="156"/>
      <point x="200" y="383" type="curve" smooth="yes"/>
      <point x="200" y="400" type="line"/>
      <point x="100" y="400" type="line"/>
    </contour>
    <contour>
      <point x="450" y="540" type="line"/>
      <point x="500" y="540" type="line" smooth="yes"/>
      <point x="618" y="540"/>
      <point x="620" y="782"/>
      <point x="620" y="987" type="curve" smooth="yes"/>
      <point x="620" y="1183"/>
      <point x="618" y="1371"/>
      <point x="528" y="1371" type="curve" smooth="yes"/>
      <point x="472" y="1371"/>
      <point x="400" y="1290"/>
      <point x="400" y="1039" type="curve" smooth="yes"/>
      <point x="400" y="440" type="line"/>
    </contour>
  </outline>
</glyph>
<glyph name="scriptsmallo" format="2">
  <advance width="1100"/>
  <unicode hex="2134"/>
  <outline>
    <contour>
      <point x="367" y="-17" type="curve" smooth="yes" name="hr00"/>
      <point x="181" y="-17"/>
      <point x="78" y="106"/>
      <point x="78" y="284" type="curve" smooth="yes"/>
      <point x="78" y="580"/>
      <point x="302" y="885"/>
      <point x="626" y="885" type="curve" smooth="yes"/>
      <point x="811" y="885"/>
      <point x="918" y="767"/>
      <point x="918" y="590" type="curve" smooth="yes"/>
      <point x="918" y="296"/>
      <point x="690" y="-17"/>
    </contour>
    <contour>
      <point x="748" y="558" type="curve" smooth="yes"/>
      <point x="748" y="663"/>
      <point x="712" y="746"/>
      <point x="593" y="746" type="curve" smooth="yes"/>
      <point x="378" y="746"/>
      <point x="246" y="500"/>
      <point x="246" y="310" type="curve" smooth="yes"/>
      <point x="246" y="204"/>
      <point x="283" y="123"/>
      <point x="401" y="123" type="curve" smooth="yes"/>
      <point x="616" y="123"/>
      <point x="748" y="353"/>
    </contour>
  </outline>
</glyph>
<glyph name="fractionnumeratorone" format="2">
  <advance width="1500"/>
  <unicode hex="215F"/>
  <outline>
    <contour>
      <point x="454" y="0" type="line"/>
      <point x="319" y="0" type="line"/>
      <point x="1094" y="1500" type="line"/>
      <point x="1220" y="1500" type="line"/>
    </contour>
    <component base="one" xScale="0.5" yScale="0.5" yOffset="720"/>
  </outline>
</glyph>
<glyph name="arrowboth" format="2">
  <advance width="1800"/>
  <unicode hex="2194"/>
  <outline>
    <contour>
      <point x="547" y="500" type="line"/>
      <point x="443" y="512" type="line"/>
      <point x="500" y="437" type="line"/>
      <point x="500" y="200" type="line"/>
      <point x="199" y="500" type="line"/>
      <point x="80" y="600" type="line"/>
      <point x="200" y="700" type="line"/>
      <point x="500" y="1000" type="line"/>
      <point x="500" y="765" type="line"/>
      <point x="443" y="690" type="line"/>
      <point x="547" y="700" type="line"/>
      <point x="1233" y="700" type="line"/>
      <point x="1337" y="690" type="line"/>
      <point x="1280" y="765" type="line"/>
      <point x="1280" y="1000" type="line"/>
      <point x="1580" y="700" type="line"/>
      <point x="1700" y="600" type="line"/>
      <point x="1581" y="500" type="line"/>
      <point x="1280" y="200" type="line"/>
      <point x="1280" y="437" type="line"/>
      <point x="1337" y="512" type="line"/>
      <point x="1233" y="500" type="line"/>
    </contour>
  </outline>
</glyph>
<glyph name="leftwardsarrowwithhook" format="2">
  <advance width="1400"/>
  <unicode hex="21A9"/>
  <outline>
    <contour>
      <point x="547" y="400" type="line"/>
      <point x="443" y="412" type="line"/>
      <point x="500" y="337" type="line"/>
      <point x="500" y="100" type="line"/>
      <point x="199" y="400" type="line"/>
      <point x="80" y="500" type="line"/>
      <point x="200" y="600" type="line"/>
      <point x="500" y="900" type="line"/>
      <point x="500" y="665" type="line"/>
      <point x="443" y="590" type="line"/>
      <point x="547" y="600" type="line"/>
      <point x="1000" y="600" type="line" smooth="yes"/>
      <point x="1072" y="600"/>
      <point x="1130" y="644"/>
      <point x="1130" y="700" type="curve" smooth="yes"/>
      <point x="1130" y="756"/>
      <point x="1072" y="800"/>
      <point x="1000" y="800" type="curve"/>
      <point x="1000" y="1000" type="line"/>
      <point x="1150" y="1000"/>
      <point x="1300" y="900"/>
      <point x="1300" y="700" type="curve" smooth="yes"/>
      <point x="1300" y="500"/>
      <point x="1150" y="400"/>
      <point x="1000" y="400" type="curve" smooth="yes"/>
    </contour>
  </outline>
</glyph>
<glyph name="downwardsarrowwithtiprightwards" format="2">
  <advance width="1100"/>
  <unicode hex="21B3"/>
  <outline>
    <contour>
      <point x="259" y="500" type="line"/>
      <point x="553" y="500" type="line"/>
      <point x="657" y="490" type="line"/>
      <point x="600" y="565" type="line"/>
      <point x="600" y="800" type="line"/>
      <point x="900" y="500" type="line"/>
      <point x="1020" y="400" type="line"/>
      <point x="901" y="300" type="line"/>
      <point x="600" y="0" type="line"/>
      <point x="600" y="237" type="line"/>
      <point x="657" y="312" type="line"/>
      <point x="553" y="300" type="line"/>
      <point x="100" y="300" type="line"/>
      <point x="100" y="1300" type="line"/>
      <point x="259" y="1300" type="line"/>
    </contour>
  </outline>
</glyph>
<glyph name="undo" format="2">
  <advance width="1600"/>
  <unicode hex="21B6"/>
  <outline>
    <contour>
      <point x="406" y="381" type="line"/>
      <point x="487" y="446" type="line"/>
      <point x="666" y="591"/>
      <point x="824" y="751"/>
      <point x="1013" y="751" type="curve" smooth="yes"/>
      <point x="1185" y="751"/>
      <point x="1330" y="660"/>
      <point x="1330" y="500" type="curve"/>
      <point x="1500" y="500" type="line"/>
      <point x="1496" y="815"/>
      <point x="1300" y="951"/>
      <point x="1000" y="951" type="curve" smooth="yes"/>
      <point x="740" y="951"/>
      <point x="555" y="802"/>
      <point x="346" y="587" type="curve"/>
      <point x="279" y="508" type="line"/>
      <point x="268" y="601" type="line"/>
      <point x="100" y="766" type="line"/>
      <point x="100" y="362" type="line"/>
      <point x="80" y="180" type="line"/>
      <point x="262" y="200" type="line"/>
      <point x="666" y="200" type="line"/>
      <point x="500" y="369" type="line"/>
    </contour>
  </outline>
</glyph>
<glyph name="arrowdblleft" format="2">
  <advance width="1600"/>
  <unicode hex="21D0"/>
  <outline>
    <contour>
      <point x="100" y="600" type="line"/>
      <point x="207" y="509" type="line"/>
      <point x="573" y="143" type="line"/>
      <point x="743" y="143" type="line"/>
      <point x="498" y="388" type="line"/>
      <point x="598" y="400" type="line"/>
      <point x="1500" y="400" type="line"/>
      <point x="1500" y="516" type="line"/>
      <point x="748" y="516" type="line"/>
      <point x="398" y="488" type="line"/>
      <point x="267" y="600" type="line"/>
      <point x="398" y="712" type="line"/>
      <point x="748" y="684" type="line"/>
      <point x="1500" y="684" type="line"/>
      <point x="1500" y="800" type="line"/>
      <point x="598" y="800" type="line"/>
      <point x="498" y="813" type="line"/>
      <point x="743" y="1057" type="line"/>
      <point x="573" y="1057" type="line"/>
      <point x="207" y="691" type="line"/>
    </contour>
  </outline>
</glyph>
<glyph name="arrowdblleftright" format="2">
  <advance width="1900"/>
  <unicode hex="21D4"/>
  <outline>
    <contour>
      <point x="1693" y="691" type="line"/>
      <point x="1327" y="1057" type="line"/>
      <point x="1157" y="1057" type="line"/>
      <point x="1402" y="813" type="line"/>
      <point x="1302" y="800" type="line"/>
      <point x="598" y="800" type="line"/>
      <point x="498" y="813" type="line"/>
      <point x="743" y="1057" type="line"/>
      <point x="573" y="1057" type="line"/>
      <point x="207" y="691" type="line"/>
      <point x="100" y="600" type="line"/>
      <point x="207" y="509" type="line"/>
      <point x="573" y="143" type="line"/>
      <point x="743" y="143" type="line"/>
      <point x="498" y="388" type="line"/>
      <point x="598" y="400" type="line"/>
      <point x="1302" y="400" type="line"/>
      <point x="1402" y="388" type="line"/>
      <point x="1157" y="143" type="line"/>
      <point x="1327" y="143" type="line"/>
      <point x="1693" y="509" type="line"/>
      <point x="1800" y="600" type="line"/>
    </contour>
    <contour>
      <point x="398" y="488" type="line"/>
      <point x="267" y="600" type="line"/>
      <point x="398" y="712" type="line"/>
      <point x="748" y="684" type="line"/>
      <point x="1152" y="684" type="line"/>
      <point x="1502" y="712" type="line"/>
      <point x="1633" y="600" type="line"/>
      <point x="1502" y="488" type="line"/>
      <point x="1152" y="516" type="line"/>
      <point x="748" y="516" type="line"/>
    </contour>
  </outline>
</glyph>
<glyph name="arrowdblnorthwest" format="2">
  <advance width="1300"/>
  <unicode hex="21D6"/>
  <outline>
    <contour>
      <point x="89" y="1111" type="line"/>
      <point x="100" y="971" type="line"/>
      <point x="100" y="453" type="line"/>
      <point x="221" y="333" type="line"/>
      <point x="221" y="680" type="line"/>
      <point x="300" y="617" type="line"/>
      <point x="938" y="-20" type="line"/>
      <point x="1020" y="62" type="line"/>
      <point x="488" y="593" type="line"/>
      <point x="221" y="821" type="line"/>
      <point x="207" y="993" type="line"/>
      <point x="379" y="979" type="line"/>
      <point x="607" y="712" type="line"/>
      <point x="1138" y="180" type="line"/>
      <point x="1220" y="262" type="line"/>
      <point x="583" y="900" type="line"/>
      <point x="521" y="979" type="line"/>
      <point x="867" y="979" type="line"/>
      <point x="747" y="1100" type="line"/>
      <point x="229" y="1100" type="line"/>
    </contour>
  </outline>
</glyph>
<glyph name="leftwardsdashedarrow" format="2">
  <advance width="1600"/>
  <unicode hex="21E0"/>
  <outline>
    <contour>
      <point x="547" y="500" type="line"/>
      <point x="443" y="512" type="line"/>
      <point x="500" y="437" type="line"/>
      <point x="500" y="200" type="line"/>
      <point x="199" y="500" type="line"/>
      <point x="80" y="600" type="line"/>
      <point x="200" y="700" type="line"/>
      <point x="500" y="1000" type="line"/>
      <point x="500" y="765" type="line"/>
      <point x="443" y="690" type="line"/>
      <point x="547" y="700" type="line"/>
      <point x="650" y="700" type="line"/>
      <point x="650" y="500" type="line"/>
    </contour>
    <contour>
      <point x="800" y="700" type="line"/>
      <point x="1050" y="700" type="line"/>
      <point x="1050" y="500" type="line"/>
      <point x="800" y="500" type="line"/>
    </contour>
    <contour>
      <point x="1200" y="700" type="line"/>
      <point x="1450" y="700" type="line"/>
      <point x="1450" y="500" type="line"/>
      <point x="1200" y="500" type="line"/>
    </contour>
  </outline>
</glyph>
<glyph name="universal" format="2">
  <advance width="1400"/>
  <unicode hex="2200"/>
  <guideline x="0" y="1299" angle="0"/>
  <guideline x="0" y="850" angle="0"/>
  <guideline x="0" y="1000" angle="0"/>
  <outline>
    <contour>
      <point x="1141" y="1300" type="line" name="hr00"/>
      <point x="1331" y="1300" type="line"/>
      <point x="742" y="-20" type="line"/>
      <point x="599" y="0" type="line"/>
      <point x="561" y="160" type="line"/>
      <point x="72" y="1300" type="line"/>
      <point x="249" y="1300" type="line"/>
      <point x="379" y="1000" type="line"/>
      <point x="1010" y="1000" type="line"/>
    </contour>
    <contour>
      <point x="640" y="400" type="line"/>
      <point x="694" y="112" type="line"/>
      <point x="748" y="400" type="line"/>
      <point x="944" y="850" type="line"/>
      <point x="444" y="850" type="line"/>
    </contour>
  </outline>
</glyph>
<glyph name="complement" format="2">
  <advance width="1200"/>
  <unicode hex="2201"/>
  <outline>
    <contour>
      <point x="600" y="143" type="curve" smooth="yes" name="hr00"/>
      <point x="800" y="143"/>
      <point x="900" y="228"/>
      <point x="900" y="416" type="curve"/>
      <point x="1074" y="400" type="line"/>
      <point x="1074" y="166"/>
      <point x="923" y="-17"/>
      <point x="600" y="-17" type="curve" smooth="yes"/>
      <point x="200" y="-17"/>
      <point x="100" y="300"/>
      <point x="100" y="650" type="curve"/>
      <point x="100" y="1000"/>
      <point x="200" y="1317"/>
      <point x="600" y="1317" type="curve" smooth="yes"/>
      <point x="909" y="1317"/>
      <point x="1074" y="1135"/>
      <point x="1074" y="900" type="curve"/>
      <point x="900" y="885" type="line"/>
      <point x="900" y="1059"/>
      <point x="805" y="1157"/>
      <point x="600" y="1157" type="curve" smooth="yes"/>
      <point x="330" y="1157"/>
      <point x="290" y="900"/>
      <point x="290" y="650" type="curve" smooth="yes"/>
      <point x="290" y="400"/>
      <point x="330" y="143"/>
    </contour>
  </outline>
</glyph>
<glyph name="existential" format="2">
  <advance width="1300"/>
  <unicode hex="2203"/>
  <guideline x="0" y="900" angle="0"/>
  <outline>
    <contour>
      <point x="1015" y="160" type="line" name="hr00"/>
      <point x="1000" y="350" type="line"/>
      <point x="1000" y="650" type="line"/>
      <point x="248" y="650" type="line"/>
      <point x="230" y="800" type="line"/>
      <point x="1000" y="800" type="line"/>
      <point x="1000" y="950" type="line"/>
      <point x="1020" y="1150" type="line"/>
      <point x="175" y="1150" type="line"/>
      <point x="175" y="1300" type="line"/>
      <point x="1192" y="1300" type="line"/>
      <point x="1170" y="1100" type="line"/>
      <point x="1170" y="200" type="line"/>
      <point x="1187" y="0" type="line"/>
      <point x="175" y="0" type="line"/>
      <point x="175" y="160" type="line"/>
    </contour>
  </outline>
</glyph>
<glyph name="emptyset" format="2">
  <advance width="1400"/>
  <unicode hex="2205"/>
  <outline>
    <contour>
      <point x="699" y="-17" type="curve" smooth="yes"/>
      <point x="332" y="-17"/>
      <point x="109" y="266"/>
      <point x="109" y="650" type="curve" smooth="yes"/>
      <point x="109" y="1034"/>
      <point x="323" y="1317"/>
      <point x="699" y="1317" type="curve" smooth="yes"/>
      <point x="1066" y="1317"/>
      <point x="1289" y="1034"/>
      <point x="1289" y="650" type="curve" smooth="yes"/>
      <point x="1289" y="266"/>
      <point x="1075" y="-17"/>
    </contour>
    <contour>
      <point x="1107" y="623" type="curve" smooth="yes"/>
      <point x="1107" y="902"/>
      <point x="994" y="1169"/>
      <point x="694" y="1169" type="curve" smooth="yes"/>
      <point x="407" y="1169"/>
      <point x="291" y="931"/>
      <point x="291" y="680" type="curve" smooth="yes"/>
      <point x="291" y="398"/>
      <point x="405" y="131"/>
      <point x="704" y="131" type="curve" smooth="yes"/>
      <point x="988" y="131"/>
      <point x="1107" y="375"/>
    </contour>
    <contour>
      <point x="474" y="-200" type="line"/>
      <point x="319" y="-200" type="line"/>
      <point x="928" y="1500" type="line"/>
      <point x="1074" y="1500" type="line"/>
    </contour>
  </outline>
</glyph>
<glyph name="gradient" format="2">
  <advance width="1600"/>
  <unicode hex="2207"/>
  <outline>
    <contour>
      <point x="65" y="1500" type="line" name="at01"/>
      <point x="1537" y="1500" type="line"/>
      <point x="914" y="0" type="line" name="ab01"/>
      <point x="687" y="0" type="line"/>
    </contour>
    <contour>
      <point x="392" y="1340" type="line"/>
      <point x="269" y="1392" type="line" name="iv01"/>
      <point x="351" y="1300" type="line"/>
      <point x="767" y="242" type="line"/>
      <point x="802" y="75" type="line" name="iv02"/>
      <point x="837" y="242" type="line"/>
      <point x="1253" y="1300" type="line"/>
      <point x="1338" y="1392" type="line" name="iv03"/>
      <point x="1212" y="1340" type="line"/>
    </contour>
  </outline>
</glyph>
<glyph name="notelement" format="2">
  <advance width="1500"/>
  <unicode hex="2209"/>
  <outline>
    <contour>
      <point x="620" y="-200" type="line"/>
      <point x="465" y="-200" type="line"/>
      <point x="1074" y="1500" type="line"/>
      <point x="1220" y="1500" type="line"/>
    </contour>
    <component base="element"/>
  </outline>
</glyph>
<glyph name="doesnotcontainasmember" format="2">
  <advance width="1500"/>
  <unicode hex="220C"/>
  <outline>
    <contour>
      <point x="420" y="-200" type="line"/>
      <point x="265" y="-200" type="line"/>
      <point x="874" y="1500" type="line"/>
      <point x="1020" y="1500" type="line"/>
    </contour>
    <component base="suchthat"/>
  </outline>
</glyph>
<glyph name="minus" format="2">
  <advance width="1100"/>
  <unicode hex="2212"/>
  <outline>
    <contour>
      <point x="100" y="700" type="line" name="hr01"/>
      <point x="1000" y="700" type="line"/>
      <point x="1000" y="545" type="line"/>
      <point x="100" y="545" type="line"/>
    </contour>
  </outline>
</glyph>
<glyph name="radical" format="2">
  <advance width="1600"/>
  <unicode hex="221A"/>
  <outline>
    <contour>
      <point x="1500" y="1300" type="line" name="dv02"/>
      <point x="1480" y="1150" type="line" name="dv01"/>
      <point x="1210" y="1150" type="line"/>
      <point x="1010" y="1170" type="line"/>
      <point x="676" y="-20" type="line" name="ab01"/>
      <point x="418" y="0" type="line"/>
      <point x="265" y="550" type="line"/>
      <point x="188" y="750" type="line"/>
      <point x="373" y="770" type="line"/>
      <point x="504" y="300" type="line"/>
      <point x="550" y="60" type="line"/>
      <point x="596" y="300" type="line"/>
      <point x="878" y="1300" type="line"/>
    </contour>
  </outline>
</glyph>
<glyph name="sphericalangle" format="2">
  <advance width="1400"/>
  <unicode hex="2222"/>
  <outline>
    <contour>
      <point x="100" y="483" type="line"/>
      <point x="1100" y="-81" type="line"/>
      <point x="1208" y="5" type="line"/>
      <point x="966" y="145" type="line"/>
      <point x="1041" y="274"/>
      <point x="1077" y="410"/>
      <point x="1077" y="544" type="curve" smooth="yes"/>
      <point x="1077" y="681"/>
      <point x="1039" y="816"/>
      <point x="965" y="939" type="curve"/>
      <point x="1237" y="1096" type="line"/>
      <point x="1115" y="1187" type="line"/>
      <point x="100" y="600" type="line"/>
    </contour>
    <contour>
      <point x="862" y="205" type="curve"/>
      <point x="268" y="542" type="line"/>
      <point x="861" y="879" type="line"/>
      <point x="921" y="776"/>
      <point x="952" y="659"/>
      <point x="952" y="540" type="curve" smooth="yes"/>
      <point x="952" y="426"/>
      <point x="923" y="310"/>
    </contour>
  </outline>
</glyph>
<glyph name="intersection" format="2">
  <advance width="1500"/>
  <unicode hex="2229"/>
  <outline>
    <contour>
      <point x="750" y="1140" type="qcurve" name="dv01"/>
      <point x="664" y="1140"/>
      <point x="528" y="1092"/>
      <point x="424" y="1009"/>
      <point x="349" y="897"/>
      <point x="301" y="771"/>
      <point x="279" y="637"/>
      <point x="279" y="573" type="qcurve"/>
      <point x="279" y="0" type="line" name="sh02"/>
      <point x="100" y="0" type="line" name="sh01"/>
      <point x="100" y="538" type="line"/>
      <point x="100" y="709"/>
      <point x="181" y="990"/>
      <point x="344" y="1190"/>
      <point x="588" y="1300"/>
      <point x="750" y="1300" type="qcurve" name="dv02"/>
      <point x="912" y="1300"/>
      <point x="1155" y="1190"/>
      <point x="1318" y="990"/>
      <point x="1399" y="709"/>
      <point x="1399" y="538" type="qcurve"/>
      <point x="1399" y="0" type="line" name="sh03"/>
      <point x="1220" y="0" type="line" name="ah01"/>
      <point x="1220" y="573" type="line"/>
      <point x="1220" y="637"/>
      <point x="1198" y="771"/>
      <point x="1150" y="897"/>
      <point x="1076" y="1009"/>
      <point x="971" y="1092"/>
      <point x="835" y="1140"/>
    </contour>
  </outline>
</glyph>
<glyph name="union" format="2">
  <advance width="1500"/>
  <unicode hex="222A"/>
  <outline>
    <contour>
      <point x="749" y="143" type="qcurve" name="sv01"/>
      <point x="835" y="143"/>
      <point x="971" y="191"/>
      <point x="1075" y="274"/>
      <point x="1150" y="386"/>
      <point x="1198" y="512"/>
      <point x="1220" y="646"/>
      <point x="1220" y="710" type="qcurve" name="ah01"/>
      <point x="1220" y="1280" type="line"/>
      <point x="1399" y="1300" type="line" name="av01"/>
      <point x="1399" y="745" type="line" name="sh01"/>
      <point x="1399" y="574"/>
      <point x="1318" y="293"/>
      <point x="1155" y="93"/>
      <point x="911" y="-17"/>
      <point x="749" y="-17" type="qcurve" name="ab01"/>
      <point x="587" y="-17"/>
      <point x="344" y="93"/>
      <point x="181" y="293"/>
      <point x="100" y="574"/>
      <point x="100" y="745" type="qcurve" name="sh02"/>
      <point x="100" y="1280" type="line"/>
      <point x="279" y="1300" type="line" name="av02"/>
      <point x="279" y="710" type="line" name="sh03"/>
      <point x="279" y="646"/>
      <point x="301" y="512"/>
      <point x="349" y="386"/>
      <point x="423" y="274"/>
      <point x="528" y="191"/>
      <point x="664" y="143"/>
    </contour>
  </outline>
</glyph>
<glyph name="similar" format="2">
  <advance width="1000"/>
  <unicode hex="223C"/>
  <outline>
    <contour>
      <point x="660" y="400" type="curve"/>
      <point x="520" y="400"/>
      <point x="431" y="570"/>
      <point x="325" y="570" type="curve" smooth="yes"/>
      <point x="243" y="570"/>
      <point x="180" y="530"/>
      <point x="100" y="460" type="curve"/>
      <point x="100" y="460"/>
      <point x="100" y="560"/>
      <point x="100" y="560" type="curve"/>
      <point x="153" y="634"/>
      <point x="220" y="700"/>
      <point x="340" y="700" type="curve" smooth="yes"/>
      <point x="480" y="700"/>
      <point x="571" y="530"/>
      <point x="675" y="530" type="curve"/>
      <point x="757" y="530"/>
      <point x="820" y="570"/>
      <point x="900" y="640" type="curve"/>
      <point x="900" y="640"/>
      <point x="900" y="540"/>
      <point x="900" y="540" type="curve"/>
      <point x="847" y="466"/>
      <point x="780" y="400"/>
    </contour>
  </outline>
</glyph>
<glyph name="estimate" format="2">
  <advance width="1000"/>
  <unicode hex="2259"/>
  <outline>
    <contour>
      <point x="100" y="600" type="line"/>
      <point x="900" y="600" type="line"/>
      <point x="900" y="460" type="line"/>
      <point x="100" y="460" type="line"/>
    </contour>
    <contour>
      <point x="100" y="300" type="line"/>
      <point x="900" y="300" type="line"/>
      <point x="900" y="160" type="line"/>
      <point x="100" y="160" type="line"/>
    </contour>
    <component base="asciicircum" xScale="0.6" yScale="0.6" xOffset="50" yOffset="207"/>
  </outline>
</glyph>
<glyph name="equivalence" format="2">
  <advance width="1000"/>
  <unicode hex="2261"/>
  <outline>
    <contour>
      <point x="100" y="600" type="line"/>
      <point x="900" y="600" type="line"/>
      <point x="900" y="460" type="line"/>
      <point x="100" y="460" type="line"/>
    </contour>
    <contour>
      <point x="100" y="300" type="line"/>
      <point x="900" y="300" type="line"/>
      <point x="900" y="160" type="line"/>
      <point x="100" y="160" type="line"/>
    </contour>
    <contour>
      <point x="100" y="900" type="line"/>
      <point x="900" y="900" type="line"/>
      <point x="900" y="760" type="line"/>
      <point x="100" y="760" type="line"/>
    </contour>
  </outline>
</glyph>
<glyph name="circleplus" format="2">
  <advance width="1700"/>
  <unicode hex="2295"/>
  <outline>
    <contour>
      <point x="83" y="750" type="curve" smooth="yes"/>
      <point x="83" y="327"/>
      <point x="427" y="-17"/>
      <point x="850" y="-17" type="curve" smooth="yes"/>
      <point x="1273" y="-17"/>
      <point x="1617" y="327"/>
      <point x="1617" y="750" type="curve" smooth="yes"/>
      <point x="1617" y="1173"/>
      <point x="1273" y="1517"/>
      <point x="850" y="1517" type="curve" smooth="yes"/>
      <point x="427" y="1517"/>
      <point x="83" y="1173"/>
    </contour>
    <contour>
      <point x="236" y="675" type="curve"/>
      <point x="775" y="675" type="line"/>
      <point x="775" y="136" type="line"/>
      <point x="494" y="170"/>
      <point x="270" y="394"/>
    </contour>
    <contour>
      <point x="775" y="1362" type="curve"/>
      <point x="775" y="825" type="line"/>
      <point x="236" y="825" type="line"/>
      <point x="270" y="1106"/>
      <point x="494" y="1328"/>
    </contour>
    <contour>
      <point x="925" y="136" type="curve"/>
      <point x="925" y="675" type="line"/>
      <point x="1462" y="675" type="line"/>
      <point x="1428" y="394"/>
      <point x="1206" y="170"/>
    </contour>
    <contour>
      <point x="1462" y="825" type="curve"/>
      <point x="925" y="825" type="line"/>
      <point x="925" y="1362" type="line"/>
      <point x="1206" y="1328"/>
      <point x="1428" y="1106"/>
    </contour>
  </outline>
</glyph>
<glyph name="circleminus" format="2">
  <advance width="1700"/>
  <unicode hex="2296"/>
  <outline>
    <contour>
      <point x="83" y="750" type="curve" smooth="yes"/>
      <point x="83" y="327"/>
      <point x="427" y="-17"/>
      <point x="850" y="-17" type="curve" smooth="yes"/>
      <point x="1273" y="-17"/>
      <point x="1617" y="327"/>
      <point x="1617" y="750" type="curve" smooth="yes"/>
      <point x="1617" y="1173"/>
      <point x="1273" y="1517"/>
      <point x="850" y="1517" type="curve" smooth="yes"/>
      <point x="427" y="1517"/>
      <point x="83" y="1173"/>
    </contour>
    <contour>
      <point x="850" y="132" type="curve" smooth="yes"/>
      <point x="534" y="132"/>
      <point x="273" y="369"/>
      <point x="236" y="675" type="curve"/>
      <point x="1462" y="675" type="line"/>
      <point x="1425" y="369"/>
      <point x="1165" y="132"/>
    </contour>
    <contour>
      <point x="850" y="1367" type="curve" smooth="yes"/>
      <point x="1165" y="1367"/>
      <point x="1425" y="1130"/>
      <point x="1462" y="825" type="curve"/>
      <point x="236" y="825" type="line"/>
      <point x="273" y="1130"/>
      <point x="534" y="1367"/>
    </contour>
  </outline>
</glyph>
<glyph name="circlemultiply" format="2">
  <advance width="1700"/>
  <unicode hex="2297"/>
  <outline>
    <contour>
      <point x="83" y="750" type="curve" smooth="yes"/>
      <point x="83" y="327"/>
      <point x="427" y="-17"/>
      <point x="850" y="-17" type="curve" smooth="yes"/>
      <point x="1273" y="-17"/>
      <point x="1617" y="327"/>
      <point x="1617" y="750" type="curve" smooth="yes"/>
      <point x="1617" y="1173"/>
      <point x="1273" y="1517"/>
      <point x="850" y="1517" type="curve" smooth="yes"/>
      <point x="427" y="1517"/>
      <point x="83" y="1173"/>
    </contour>
    <contour>
      <point x="232" y="750" type="curve" smooth="yes"/>
      <point x="232" y="893"/>
      <point x="281" y="1025"/>
      <point x="363" y="1130" type="curve"/>
      <point x="744" y="750" type="line"/>
      <point x="363" y="369" type="line"/>
      <point x="281" y="474"/>
      <point x="232" y="606"/>
    </contour>
    <contour>
      <point x="850" y="132" type="curve" smooth="yes"/>
      <point x="706" y="132"/>
      <point x="574" y="181"/>
      <point x="469" y="263" type="curve"/>
      <point x="850" y="644" type="line"/>
      <point x="1230" y="263" type="line"/>
      <point x="1125" y="181"/>
      <point x="993" y="132"/>
    </contour>
    <contour>
      <point x="850" y="1367" type="curve" smooth="yes"/>
      <point x="993" y="1367"/>
      <point x="1125" y="1318"/>
      <point x="1230" y="1236" type="curve"/>
      <point x="850" y="856" type="line"/>
      <point x="470" y="1236" type="line"/>
      <point x="575" y="1318"/>
      <point x="706" y="1367"/>
    </contour>
    <contour>
      <point x="1467" y="750" type="curve" smooth="yes"/>
      <point x="1467" y="606"/>
      <point x="1418" y="475"/>
      <point x="1336" y="370" type="curve"/>
      <point x="956" y="750" type="line"/>
      <point x="1336" y="1130" type="line"/>
      <point x="1418" y="1025"/>
      <point x="1467" y="893"/>
    </contour>
  </outline>
</glyph>
<glyph name="perpendicular" format="2">
  <advance width="1400"/>
  <unicode hex="22A5"/>
  <outline>
    <contour>
      <point x="800" y="1300" type="line" name="av01"/>
      <point x="800" y="150" type="line" name="dh02"/>
      <point x="1300" y="150" type="line"/>
      <point x="1280" y="0" type="line" name="ab01"/>
      <point x="95" y="0" type="line"/>
      <point x="115" y="150" type="line" name="sv01"/>
      <point x="600" y="150" type="line" name="dh01"/>
      <point x="600" y="1300" type="line"/>
    </contour>
  </outline>
</glyph>
<glyph name="leftceiling" format="2">
  <advance width="800"/>
  <unicode hex="2308"/>
  <outline>
    <contour>
      <point x="300" y="0" type="line" name="hr00"/>
      <point x="100" y="0" type="line"/>
      <point x="100" y="1500" type="line"/>
      <point x="700" y="1500" type="line"/>
      <point x="700" y="1350" type="line"/>
      <point x="300" y="1350" type="line"/>
    </contour>
  </outline>
</glyph>
<glyph name="topleftcorner" format="2">
  <advance width="1000"/>
  <unicode hex="231C"/>
  <outline>
    <contour>
      <point x="300" y="750" type="line" name="hr00"/>
      <point x="100" y="750" type="line"/>
      <point x="100" y="1500" type="line"/>
      <point x="850" y="1500" type="line"/>
      <point x="850" y="1350" type="line"/>
      <point x="300" y="1350" type="line"/>
    </contour>
  </outline>
</glyph>
<glyph name="whiterightpointingtriangle" format="2">
  <advance width="1000"/>
  <unicode hex="25B7"/>
  <outline>
    <contour>
      <point x="900" y="700" type="line"/>
      <point x="151" y="1135" type="line"/>
      <point x="176" y="700" type="line"/>
      <point x="151" y="266" type="line"/>
    </contour>
    <contour>
      <point x="741" y="700" type="line"/>
      <point x="240" y="410" type="line"/>
      <point x="256" y="700" type="line"/>
      <point x="240" y="991" type="line"/>
    </contour>
  </outline>
</glyph>
<glyph name="blackrightpointingsmall" format="2">
  <advance width="900"/>
  <unicode hex="25B8"/>
  <outline>
    <contour>
      <point x="216" y="700" type="line"/>
      <point x="199" y="410" type="line"/>
      <point x="700" y="700" type="line"/>
      <point x="199" y="991" type="line"/>
    </contour>
  </outline>
</glyph>
<glyph name="bullseye" format="2">
  <advance width="1000"/>
  <unicode hex="25CE"/>
  <outline>
    <contour>
      <point x="500" y="821" type="curve" smooth="yes"/>
      <point x="566" y="821"/>
      <point x="620" y="767"/>
      <point x="620" y="701" type="curve" smooth="yes"/>
      <point x="620" y="635"/>
      <point x="566" y="581"/>
      <point x="500" y="581" type="curve" smooth="yes"/>
      <point x="434" y="581"/>
      <point x="380" y="635"/>
      <point x="380" y="701" type="curve" smooth="yes"/>
      <point x="380" y="767"/>
      <point x="434" y="821"/>
    </contour>
    <contour>
      <point x="84" y="701" type="curve" smooth="yes"/>
      <point x="84" y="471"/>
      <point x="270" y="285"/>
      <point x="500" y="285" type="curve" smooth="yes"/>
      <point x="730" y="285"/>
      <point x="916" y="471"/>
      <point x="916" y="701" type="curve" smooth="yes"/>
      <point x="916" y="931"/>
      <point x="730" y="1117"/>
      <point x="500" y="1117" type="curve" smooth="yes"/>
      <point x="270" y="1117"/>
      <point x="84" y="931"/>
    </contour>
    <contour>
      <point x="200" y="701" type="curve" smooth="yes"/>
      <point x="200" y="867"/>
      <point x="334" y="1001"/>
      <point x="500" y="1001" type="curve" smooth="yes"/>
      <point x="666" y="1001"/>
      <point x="800" y="867"/>
      <point x="800" y="701" type="curve" smooth="yes"/>
      <point x="800" y="535"/>
      <point x="666" y="401"/>
      <point x="500" y="401" type="curve" smooth="yes"/>
      <point x="334" y="401"/>
      <point x="200" y="535"/>
    </contour>
    <contour>
      <point x="300" y="701" type="curve" smooth="yes"/>
      <point x="300" y="591"/>
      <point x="390" y="501"/>
      <point x="500" y="501" type="curve" smooth="yes"/>
      <point x="610" y="501"/>
      <point x="700" y="591"/>
      <point x="700" y="701" type="curve" smooth="yes"/>
      <point x="700" y="811"/>
      <point x="610" y="901"/>
      <point x="500" y="901" type="curve" smooth="yes"/>
      <point x="390" y="901"/>
      <point x="300" y="811"/>
    </contour>
  </outline>
</glyph>
<glyph name="circlewithlefthalfblack" format="2">
  <advance width="1000"/>
  <unicode hex="25D0"/>
  <outline>
    <contour>
      <point x="84" y="701" type="curve" smooth="yes"/>
      <point x="84" y="471"/>
      <point x="270" y="285"/>
      <point x="500" y="285" type="curve" smooth="yes"/>
      <point x="730" y="285"/>
      <point x="916" y="471"/>
      <point x="916" y="701" type="curve" smooth="yes"/>
      <point x="916" y="931"/>
      <point x="730" y="1117"/>
      <point x="500" y="1117" type="curve" smooth="yes"/>
      <point x="270" y="1117"/>
      <point x="84" y="931"/>
    </contour>
    <contour>
      <point x="800" y="701" type="curve" smooth="yes"/>
      <point x="800" y="535"/>
      <point x="666" y="401"/>
      <point x="500" y="401" type="curve"/>
      <point x="500" y="1001" type="line"/>
      <point x="666" y="1001"/>
      <point x="800" y="867"/>
    </contour>
  </outline>
</glyph>
<glyph name="blackstar" format="2">
  <advance width="1700"/>
  <unicode hex="2605"/>
  <outline>
    <contour>
      <point x="1600" y="900" type="line"/>
      <point x="1050" y="900" type="line"/>
      <point x="852" y="1410" type="line"/>
      <point x="650" y="900" type="line"/>
      <point x="100" y="900" type="line"/>
      <point x="530" y="561" type="line"/>
      <point x="350" y="0" type="line"/>
      <point x="739" y="265" type="line"/>
      <point x="852" y="375" type="line"/>
      <point x="965" y="265" type="line"/>
      <point x="1350" y="0" type="line"/>
      <point x="1169" y="561" type="line"/>
    </contour>
  </outline>
</glyph>
<glyph name="boxwithaX" format="2">
  <advance width="1100"/>
  <unicode hex="2612"/>
  <outline>
    <contour>
      <point x="1100" y="0" type="line" name="hr00"/>
      <point x="0" y="0" type="line"/>
      <point x="0" y="1100" type="line"/>
      <point x="1100" y="1100" type="line"/>
    </contour>
    <contour>
      <point x="165" y="165" type="line"/>
      <point x="935" y="165" type="line"/>
      <point x="935" y="935" type="line"/>
      <point x="165" y="935" type="line"/>
    </contour>
    <contour>
      <point x="701" y="230" type="line"/>
      <point x="570" y="400" type="line"/>
      <point x="562" y="468" type="line"/>
      <point x="405" y="230" type="line"/>
      <point x="226" y="230" type="line"/>
      <point x="448" y="558" type="line"/>
      <point x="227" y="844" type="line"/>
      <point x="422" y="869" type="line"/>
      <point x="515" y="733" type="line"/>
      <point x="528" y="631" type="line"/>
      <point x="668" y="853" type="line"/>
      <point x="859" y="870" type="line"/>
      <point x="655" y="569" type="line"/>
      <point x="896" y="230" type="line"/>
    </contour>
  </outline>
</glyph>
<glyph name="night" format="2">
  <advance width="1300"/>
  <unicode hex="263E"/>
  <outline>
    <contour>
      <point x="1198" y="317" type="curve"/>
      <point x="1107" y="120"/>
      <point x="907" y="-17"/>
      <point x="676" y="-17" type="curve" smooth="yes"/>
      <point x="358" y="-17"/>
      <point x="100" y="241"/>
      <point x="100" y="559" type="curve" smooth="yes"/>
      <point x="100" y="877"/>
      <point x="358" y="1135"/>
      <point x="676" y="1135" type="curve" smooth="yes"/>
      <point x="769" y="1135"/>
      <point x="857" y="1113"/>
      <point x="935" y="1073" type="curve"/>
      <point x="931" y="1051" type="line"/>
      <point x="901" y="1057"/>
      <point x="871" y="1060"/>
      <point x="840" y="1060" type="curve" smooth="yes"/>
      <point x="595" y="1060"/>
      <point x="396" y="861"/>
      <point x="396" y="616" type="curve" smooth="yes"/>
      <point x="396" y="371"/>
      <point x="595" y="172"/>
      <point x="840" y="172" type="curve" smooth="yes"/>
      <point x="976" y="172"/>
      <point x="1099" y="233"/>
      <point x="1180" y="330" type="curve" smooth="yes"/>
      <point x="1180" y="329"/>
      <point x="1198" y="317"/>
    </contour>
  </outline>
</glyph>
<glyph name="spade" format="2">
  <advance width="1400"/>
  <unicode hex="2660"/>
  <outline>
    <contour>
      <point x="116" y="591" type="curve"/>
      <point x="116" y="397"/>
      <point x="247" y="271"/>
      <point x="436" y="271" type="curve"/>
      <point x="636" y="441" type="line"/>
      <point x="636" y="280"/>
      <point x="600" y="106"/>
      <point x="280" y="106" type="curve"/>
      <point x="280" y="0" type="line"/>
      <point x="1120" y="0" type="line"/>
      <point x="1120" y="106" type="line"/>
      <point x="800" y="106"/>
      <point x="763" y="280"/>
      <point x="763" y="441" type="curve"/>
      <point x="964" y="271" type="line"/>
      <point x="1153" y="271"/>
      <point x="1284" y="397"/>
      <point x="1284" y="591" type="curve" smooth="yes"/>
      <point x="1284" y="897"/>
      <point x="779" y="1100"/>
      <point x="779" y="1300" type="curve"/>
      <point x="622" y="1300" type="line"/>
      <point x="622" y="1100"/>
      <point x="116" y="897"/>
    </contour>
  </outline>
</glyph>
<glyph name="club" format="2">
  <advance width="1400"/>
  <unicode hex="2663"/>
  <outline>
    <contour>
      <point x="965" y="273" type="line"/>
      <point x="1154" y="273"/>
      <point x="1325" y="300"/>
      <point x="1325" y="570" type="curve"/>
      <point x="1325" y="731"/>
      <point x="1187" y="851"/>
      <point x="1077" y="851" type="curve"/>
      <point x="800" y="700" type="line"/>
      <point x="1000" y="900"/>
      <point x="1000" y="956"/>
      <point x="1000" y="975" type="curve" smooth="yes"/>
      <point x="1000" y="1123"/>
      <point x="972" y="1300"/>
      <point x="700" y="1300" type="curve" smooth="yes"/>
      <point x="429" y="1300"/>
      <point x="400" y="1124"/>
      <point x="400" y="976" type="curve" smooth="yes"/>
      <point x="400" y="956"/>
      <point x="400" y="900"/>
      <point x="600" y="700" type="curve"/>
      <point x="323" y="851" type="line"/>
      <point x="207" y="851"/>
      <point x="76" y="727"/>
      <point x="76" y="570" type="curve" smooth="yes"/>
      <point x="76" y="300"/>
      <point x="248" y="276"/>
      <point x="437" y="273" type="curve"/>
      <point x="636" y="441" type="line"/>
      <point x="636" y="280"/>
      <point x="600" y="106"/>
      <point x="280" y="106" type="curve"/>
      <point x="280" y="0" type="line"/>
      <point x="1120" y="0" type="line"/>
      <point x="1120" y="106" type="line"/>
      <point x="800" y="106"/>
      <point x="763" y="280"/>
      <point x="763" y="441" type="curve"/>
    </contour>
  </outline>
</glyph>
<glyph name="plane" format="2">
  <advance width="1800"/>
  <unicode hex="2708"/>
  <outline>
    <contour>
      <point x="795" y="0" type="line"/>
      <point x="1140" y="647" type="line"/>
      <point x="1540" y="662" type="line" smooth="yes"/>
      <point x="1599" y="664"/>
      <point x="1700" y="692"/>
      <point x="1700" y="750" type="curve" smooth="yes"/>
      <point x="1700" y="808"/>
      <point x="1599" y="836"/>
      <point x="1540" y="838" type="curve" smooth="yes"/>
      <point x="1140" y="853" type="line"/>
      <point x="795" y="1500" type="line"/>
      <point x="696" y="1520" type="line"/>
      <point x="788" y="1069" type="line"/>
      <point x="813" y="858" type="line"/>
      <point x="600" y="858" type="line" smooth="yes"/>
      <point x="400" y="858"/>
      <point x="293" y="827"/>
      <point x="293" y="827" type="curve"/>
      <point x="140" y="1043" type="line"/>
      <point x="77" y="1047" type="line"/>
      <point x="109" y="795" type="line"/>
      <point x="30" y="759" type="line"/>
      <point x="30" y="741" type="line"/>
      <point x="109" y="705" type="line"/>
      <point x="77" y="453" type="line"/>
      <point x="140" y="457" type="line"/>
      <point x="293" y="673" type="line"/>
      <point x="293" y="673"/>
      <point x="400" y="642"/>
      <point x="600" y="642" type="curve" smooth="yes"/>
      <point x="813" y="642" type="line"/>
      <point x="788" y="431" type="line"/>
      <point x="696" y="-20" type="line"/>
    </contour>
  </outline>
</glyph>
<glyph name="mail" format="2">
  <advance width="1400"/>
  <unicode hex="2709"/>
  <outline>
    <contour>
      <point x="1300" y="900" type="line"/>
      <point x="100" y="900" type="line"/>
      <point x="100" y="0" type="line"/>
      <point x="1300" y="0" type="line"/>
    </contour>
    <contour>
      <point x="758" y="501" type="line"/>
      <point x="700" y="400" type="line"/>
      <point x="644" y="499" type="line"/>
      <point x="260" y="800" type="line"/>
      <point x="1141" y="800" type="line"/>
    </contour>
    <contour>
      <point x="478" y="500" type="line"/>
      <point x="182" y="162" type="line"/>
      <point x="214" y="300" type="line"/>
      <point x="214" y="648" type="line"/>
      <point x="182" y="766" type="line"/>
    </contour>
    <contour>
      <point x="231" y="100" type="line"/>
      <point x="514" y="375" type="line"/>
      <point x="539" y="448" type="line"/>
      <point x="624" y="372" type="line"/>
      <point x="701" y="265" type="line"/>
      <point x="779" y="375" type="line"/>
      <point x="861" y="448" type="line"/>
      <point x="887" y="374" type="line"/>
      <point x="1171" y="100" type="line"/>
    </contour>
    <contour>
      <point x="921" y="500" type="line"/>
      <point x="1218" y="766" type="line"/>
      <point x="1186" y="648" type="line"/>
      <point x="1186" y="300" type="line"/>
      <point x="1218" y="161" type="line"/>
    </contour>
  </outline>
</glyph>
<glyph name="checkmark" format="2">
  <advance width="1100"/>
  <unicode hex="2713"/>
  <outline>
    <contour>
      <point x="580" y="400" type="line"/>
      <point x="590" y="600" type="line"/>
      <point x="710" y="941"/>
      <point x="952" y="1231"/>
      <point x="1057" y="1317" type="curve"/>
      <point x="1188" y="1300" type="line"/>
      <point x="1008" y="1100"/>
      <point x="719" y="631"/>
      <point x="687" y="263" type="curve"/>
      <point x="465" y="280" type="line"/>
      <point x="260" y="800" type="line"/>
      <point x="428" y="820" type="line"/>
    </contour>
  </outline>
</glyph>
<glyph name="whitecircledeight" format="2">
  <advance width="1700"/>
  <unicode hex="2787"/>
  <outline>
    <contour>
      <point x="83" y="750" type="curve" smooth="yes"/>
      <point x="83" y="327"/>
      <point x="427" y="-17"/>
      <point x="850" y="-17" type="curve" smooth="yes"/>
      <point x="1273" y="-17"/>
      <point x="1617" y="327"/>
      <point x="1617" y="750" type="curve" smooth="yes"/>
      <point x="1617" y="1173"/>
      <point x="1273" y="1517"/>
      <point x="850" y="1517" type="curve" smooth="yes"/>
      <point x="427" y="1517"/>
      <point x="83" y="1173"/>
    </contour>
    <contour>
      <point x="201" y="750" type="curve" smooth="yes"/>
      <point x="201" y="1108"/>
      <point x="492" y="1398"/>
      <point x="850" y="1398" type="curve" smooth="yes"/>
      <point x="1208" y="1398"/>
      <point x="1498" y="1108"/>
      <point x="1498" y="750" type="curve" smooth="yes"/>
      <point x="1498" y="392"/>
      <point x="1208" y="101"/>
      <point x="850" y="101" type="curve" smooth="yes"/>
      <point x="492" y="101"/>
      <point x="201" y="392"/>
    </contour>
    <component base="eight" xScale="0.6" yScale="0.6" xOffset="470" yOffset="300"/>
  </outline>
</glyph>
<glyph name="blackcircledfour" format="2">
  <advance width="1700"/>
  <unicode hex="278D"/>
  <outline>
    <contour>
      <point x="83" y="750" type="curve" smooth="yes"/>
      <point x="83" y="327"/>
      <point x="427" y="-17"/>
      <point x="850" y="-17" type="curve" smooth="yes"/>
      <point x="1273" y="-17"/>
      <point x="1617" y="327"/>
      <point x="1617" y="750" type="curve" smooth="yes"/>
      <point x="1617" y="1173"/>
      <point x="1273" y="1517"/>
      <point x="850" y="1517" type="curve" smooth="yes"/>
      <point x="427" y="1517"/>
      <point x="83" y="1173"/>
    </contour>
    <component base="four" xScale="0.6" yScale="0.6" xOffset="475" yOffset="300"/>
  </outline>
</glyph>
<glyph name="blackcircledzero" format="2">
  <advance width="1700"/>
  <unicode hex="2793"/>
  <outline>
    <contour>
      <point x="83" y="750" type="curve" smooth="yes"/>
      <point x="83" y="327"/>
      <point x="427" y="-17"/>
      <point x="850" y="-17" type="curve" smooth="yes"/>
      <point x="1273" y="-17"/>
      <point x="1617" y="327"/>
      <point x="1617" y="750" type="curve" smooth="yes"/>
      <point x="1617" y="1173"/>
      <point x="1273" y="1517"/>
      <point x="850" y="1517" type="curve" smooth="yes"/>
      <point x="427" y="1517"/>
      <point x="83" y="1173"/>
    </contour>
    <component base="zero" xScale="0.6" yScale="0.6" xOffset="485" yOffset="300"/>
  </outline>
</glyph>
<glyph name="widerightwardsarrow" format="2">
  <advance width="1900"/>
  <unicode hex="2794"/>
  <outline>
    <contour>
      <point x="1510" y="820" type="line"/>
      <point x="1190" y="1099" type="line"/>
      <point x="920" y="1099" type="line"/>
      <point x="1202" y="832" type="line"/>
      <point x="1400" y="686" type="line"/>
      <point x="1182" y="700" type="line"/>
      <point x="130" y="700" type="line"/>
      <point x="100" y="500" type="line"/>
      <point x="1182" y="500" type="line"/>
      <point x="1400" y="514" type="line"/>
      <point x="1202" y="364" type="line"/>
      <point x="920" y="99" type="line"/>
      <point x="1190" y="99" type="line"/>
      <point x="1510" y="380" type="line"/>
      <point x="1800" y="600" type="line"/>
    </contour>
  </outline>
</glyph>
<glyph name="ffl" format="2">
  <advance width="1800"/>
  <unicode hex="FB04"/>
  <outline>
    <contour>
      <point x="1214" y="1399" type="line"/>
      <point x="1171" y="1439"/>
      <point x="1122" y="1457"/>
      <point x="1062" y="1457" type="curve" smooth="yes"/>
      <point x="947" y="1457"/>
      <point x="885" y="1398"/>
      <point x="885" y="1245" type="curve" smooth="yes"/>
      <point x="885" y="1100" type="line"/>
      <point x="1114" y="1100" type="line"/>
      <point x="1114" y="940" type="line"/>
      <point x="890" y="940" type="line"/>
      <point x="890" y="0" type="line"/>
      <point x="700" y="0" type="line"/>
      <point x="700" y="940" type="line"/>
      <point x="390" y="940" type="line"/>
      <point x="390" y="0" type="line"/>
      <point x="200" y="0" type="line"/>
      <point x="200" y="940" type="line"/>
      <point x="50" y="940" type="line"/>
      <point x="50" y="1100" type="line"/>
      <point x="200" y="1100" type="line"/>
      <point x="200" y="1155" type="line" smooth="yes"/>
      <point x="200" y="1381"/>
      <point x="295" y="1517"/>
      <point x="530" y="1517" type="curve" smooth="yes"/>
      <point x="623" y="1517"/>
      <point x="680" y="1510"/>
      <point x="751" y="1487" type="curve"/>
      <point x="802" y="1574"/>
      <point x="891" y="1624"/>
      <point x="1030" y="1624" type="curve" smooth="yes"/>
      <point x="1150" y="1624"/>
      <point x="1215" y="1602"/>
      <point x="1287" y="1559" type="curve"/>
      <point x="1358" y="1517"/>
      <point x="1403" y="1448"/>
      <point x="1403" y="1333" type="curve" smooth="yes"/>
      <point x="1403" y="921"/>
      <point x="1404" y="786"/>
      <point x="1404" y="376" type="curve" smooth="yes"/>
      <point x="1404" y="200"/>
      <point x="1444" y="143"/>
      <point x="1519" y="143" type="curve" smooth="yes"/>
      <point x="1548" y="143"/>
      <point x="1573" y="147"/>
      <point x="1590" y="152" type="curve" smooth="yes"/>
      <point x="1617" y="161" type="line"/>
      <point x="1686" y="40" type="line"/>
      <point x="1665" y="19"/>
      <point x="1591" y="-17"/>
      <point x="1499" y="-17" type="curve" smooth="yes"/>
      <point x="1258" y="-17"/>
      <point x="1214" y="172"/>
      <point x="1214" y="400" type="curve" smooth="yes"/>
    </contour>
    <contour>
      <point x="562" y="1357" type="curve" smooth="yes"/>
      <point x="447" y="1357"/>
      <point x="385" y="1298"/>
      <point x="385" y="1145" type="curve" smooth="yes"/>
      <point x="385" y="1100" type="line"/>
      <point x="700" y="1100" type="line"/>
      <point x="700" y="1255" type="line" smooth="yes"/>
      <point x="700" y="1284"/>
      <point x="701" y="1311"/>
      <point x="704" y="1337" type="curve"/>
      <point x="666" y="1347"/>
      <point x="617" y="1357"/>
    </contour>
  </outline>
</glyph>
